<svg id="Layer_1" data-name="Layer 1" xmlns="http://www.w3.org/2000/svg" viewBox="0 0 200 200">
  <g>
    <path d="M78.81,117.71c.79,12.08,10.13,25.54,31.19,25.58s30.4-13.5,31.19-25.58-1.26-18.8-8-23.78c-6.48-4.77-21.84-5-23.15-5s-16.67.21-23.15,5C80.07,98.91,78,105.62,78.81,117.71Zm45.88-20.88c1.2-1.28,5.85-.18,7.41.4s6.37,10.85,4.82,20.15-8.82,16-8.82,16c9.53-11.74.8-32.6.18-33.53s.49,3.15,1.37,7.93.36,16.61-.31,8.11S123.5,98.12,124.69,96.83Zm-36.79.4c1.56-.58,6.21-1.68,7.41-.4s-4,10.54-4.65,19-1.2-3.33-.31-8.11,2-8.86,1.37-7.93-9.35,21.79.18,33.53c0,0-7.27-6.69-8.82-16S86.35,97.81,87.9,97.23Z" transform="translate(-10 -10)"/>
    <path d="M110,10A100,100,0,1,0,210,110,100,100,0,0,0,110,10Zm78.26,67.73,1.93,1.71.38-4.18.37,4.18,1.93-1.71-1.71,1.93,4.18.38-4.18.37,1.71,1.93-1.93-1.71-.37,4.18-.38-4.18-1.93,1.71L190,80.41,185.79,80l4.18-.38ZM182,64.52l-.9-1,1,.9.19-2.2.2,2.2,1-.9-.9,1,2.2.2-2.2.19.9,1-1-.9-.2,2.2L182.1,65l-1,.9.9-1-2.2-.19Zm-34-35.3,1,.9.2-2.2.19,2.2,1-.9-.9,1,2.2.2-2.2.2.9,1-1-.9-.19,2.2-.2-2.2-1,.9.9-1-2.2-.2,2.2-.2Zm6.33,25.94,1.58-17.73,1.58,17.73,8.2-7.26-7.26,8.2,17.73,1.57-17.73,1.58,7.26,8.2-8.2-7.26-1.58,17.73-1.58-17.73-8.2,7.26,7.26-8.2-17.73-1.58,17.73-1.57-7.26-8.2ZM172,118.63l-2.2.2.9,1-1-.9-.2,2.2-.19-2.2-1,.9.9-1-2.2-.2,2.2-.19-.9-1,1,.9.19-2.2.2,2.2,1-.9-.9,1Zm-2.47-30.08-1.93-1.72L167.18,91l-.38-4.19-1.93,1.72,1.71-1.94-4.18-.37,4.18-.37-1.71-1.94,1.93,1.71.38-4.18.37,4.18,1.93-1.71-1.71,1.94,4.18.37-4.18.37ZM63.2,151l.53-1.65A44.21,44.21,0,0,0,69,153L70.77,147s-2.81-2.49-4.86-4.38l.67-2.09c6.58,10.17,20.67,11.83,25,12.69a8.15,8.15,0,0,1,5.78,3.92l.7,1.5H122l.7-1.5a8.15,8.15,0,0,1,5.78-3.92c4.31-.86,18.4-2.52,25-12.69l.67,2.09c-2.05,1.89-4.86,4.38-4.86,4.38l1.82,6.07a44.21,44.21,0,0,0,5.22-3.69l.53,1.65s-15.54,13.56-46.7,13.62h-.2C78.74,164.56,63.2,151,63.2,151Zm8.36-73.27,1.94,1.71.37-4.18.37,4.18,1.94-1.71-1.72,1.93,4.19.38-4.19.37,1.72,1.93-1.94-1.71-.37,4.18-.37-4.18-1.94,1.71,1.72-1.93L69.09,80l4.19-.38ZM83.09,56.46l1,.9.19-2.2.2,2.2,1-.9-.9,1,2.2.19-2.2.2.9,1-1-.9-.2,2.19L84.11,58l-1,.9.9-1-2.2-.2,2.2-.19Zm3.45,25.26c4.13,2,11.77,4.56,23.46,4.81,11.69-.25,19.33-2.85,23.46-4.81C156.75,97.47,154.21,136,154.21,136c-8.63,13.42-21,14-27.1,15.62s-6.18,5.51-6.18,5.51H99.07s-.07-3.85-6.18-5.51S74.42,149.4,65.79,136C65.79,136,63.25,97.47,86.54,81.72Zm62.23,1,1,.9.19-2.2.2,2.2,1-.9-.9,1,2.19.19-2.19.2.9,1-1-.9-.2,2.19-.19-2.19-1,.9.9-1-2.2-.2,2.2-.19Zm5.62,60.75,1.5,4.66c-1.73,1.56-4.49,3.54-4.49,3.54l-1.24-4.39Zm-84.55,3.81-1.24,4.39s-2.76-2-4.49-3.54l1.5-4.66ZM70,102.1a76.45,76.45,0,0,0-5.1,22.52S55.18,109.48,70,102.1Zm85.06,22.52A76.45,76.45,0,0,0,150,102.1C164.82,109.48,155.08,124.62,155.08,124.62Zm-26-94L131,32.35l.37-4.18.37,4.18,1.94-1.71L132,32.57l4.18.37-4.18.37,1.71,1.94-1.94-1.71-.37,4.18L131,33.54l-1.93,1.71,1.71-1.94-4.18-.37,4.18-.37ZM127.7,47.5l-.9-1,1,.9.2-2.2.19,2.2,1-.9-.9,1,2.2.2-2.2.19.9,1-1-.9-.19,2.2-.2-2.2-1,.9.9-1-2.2-.19Zm-4.83,14.36.37-4.19.37,4.19,1.94-1.72-1.72,1.94,4.19.37-4.19.37,1.72,1.94L123.61,63l-.37,4.19L122.87,63l-1.94,1.72,1.71-1.94-4.18-.37,4.18-.37-1.71-1.94Zm-7.5-42.49,1,.9.19-2.2.2,2.2,1-.9-.9,1,2.2.19-2.2.2.9,1-1-.9-.2,2.19-.19-2.19-1,.9.9-1-2.2-.2,2.2-.19ZM103.24,44l1.94,1.71.37-4.18.37,4.18L107.86,44l-1.72,1.93,4.19.38-4.19.37,1.72,1.93-1.94-1.71-.37,4.18-.37-4.18-1.94,1.71L105,46.65l-4.19-.37L105,45.9Zm-9-12.24,1,.9.2-2.2.19,2.2,1-.9-.9,1,2.2.19-2.2.2.9,1-1-.91-.19,2.2-.2-2.2-1,.91.9-1-2.2-.2,2.2-.19Zm.9,35.3-.9-1,1,.91.2-2.2.19,2.2,1-.91-.9,1,2.2.2-2.2.19.9,1-1-.9-.19,2.2-.2-2.2-1,.9.9-1L93,67.23Zm14.73,8.1h.2c8.68,0,15.66,2,21.28,5.3-7.79,3.67-17.29,4.38-21.28,4.5h-.2c-4-.12-13.49-.83-21.28-4.5C94.24,77.17,101.22,75.16,109.9,75.13ZM71.54,33.81,76,37.72l.85-9.55.85,9.55,4.42-3.91-3.91,4.42,9.55.85-9.55.85,3.91,4.42-4.42-3.92L76.81,50,76,40.43l-4.42,3.92,3.91-4.42-9.55-.85,9.55-.85ZM60.89,57.59l1.93,1.72.38-4.19.37,4.19,1.93-1.72-1.71,1.94L68,59.9l-4.18.37,1.71,1.94-1.93-1.72-.37,4.19-.38-4.19-1.93,1.72,1.71-1.94-4.18-.37,4.18-.37ZM57.21,80.25l1,.9.2-2.2.19,2.2,1-.9-.9,1,2.2.19-2.2.2.9,1-1-.9L58.42,84l-.2-2.2-1,.9.9-1-2.2-.2,2.2-.19ZM55.3,152.8l-1.94-1.72L53,155.27l-.37-4.19-1.94,1.72,1.72-1.94-4.19-.37,4.19-.37-1.72-1.94,1.94,1.72.37-4.19.37,4.19,1.94-1.72-1.72,1.94,4.19.37-4.19.37ZM53,97.32l.2,2.2,1-.9-.9,1,2.2.2-2.2.19.9,1-1-.9-.2,2.2-.2-2.2-1,.9.9-1-2.2-.19,2.2-.2-.9-1,1,.9ZM49,47.58l1,.9.2-2.2.19,2.2,1-.9-.9,1,2.2.2-2.2.19.9,1-1-.9-.19,2.2L50,49.1,49,50l.9-1-2.2-.19,2.2-.2Zm-.09,38.57-1-.9-.19,2.2-.2-2.2-1,.9.9-1-2.19-.2,2.19-.19-.9-1,1,.9.2-2.2.19,2.2,1-.9-.9,1,2.2.19-2.2.2ZM45.74,99.63l-1.93-1.71-.37,4.18-.38-4.18-1.93,1.71,1.71-1.93-4.18-.38L42.84,97,41.13,95l1.93,1.71.38-4.18.37,4.18L45.74,95,44,97l4.18.37L44,97.7ZM32,65.54l4.42,3.92.85-9.56.85,9.56,4.42-3.92L38.66,70l9.55.85-9.55.85,3.91,4.42-4.42-3.91-.85,9.55-.85-9.55L32,76.08l3.91-4.42-9.55-.85L35.94,70ZM24.24,89.07l1,.9.2-2.2.19,2.2,1-.9-.9,1,2.2.19-2.2.2.9,1-1-.9-.19,2.2-.2-2.2-1,.9.9-1-2.2-.2,2.2-.19Zm-6.48,14.09,1.93,1.72.37-4.19.38,4.19,1.93-1.72-1.71,1.94,4.18.37-4.18.37,1.71,1.94-1.93-1.72-.38,4.19-.37-4.19-1.93,1.72,1.71-1.94-4.18-.37,4.18-.37Zm13.93,52.27-1-.9-.2,2.2-.19-2.2-1,.9.9-1-2.2-.19,2.2-.2-.9-1,1,.9.19-2.2.2,2.2,1-.9-.91,1,2.2.2-2.2.19Zm7.19-22.67L37.3,150.49l-1.58-17.73L27.52,140l7.26-8.2-17.72-1.57,17.72-1.58-7.26-8.2,8.2,7.26L37.3,110l1.58,17.73,8.2-7.26-7.26,8.2,17.73,1.58-17.73,1.57,7.26,8.2Zm.7,39q1.68-2.31,3.45-4.34a40.71,40.71,0,0,1,17.71,21.88A95.19,95.19,0,0,1,39.58,171.77Zm94.77,28.15a95.4,95.4,0,0,1-48.7,0v-22.1h48.7Zm2.87-.82V174.65H82.78V199.1a94.39,94.39,0,0,1-18.67-7.85c-2.23-9.15-7.23-20.3-18.35-26.76A66.86,66.86,0,0,1,61.4,152.56c19.76,15.17,46.08,14,48.5,13.86h.2c2.42.15,28.74,1.31,48.5-13.86a66.86,66.86,0,0,1,15.64,11.93c-11.12,6.46-16.12,17.61-18.35,26.76A94.39,94.39,0,0,1,137.22,199.1Zm22-9.79A40.71,40.71,0,0,1,177,167.43q1.77,2,3.45,4.34A95.19,95.19,0,0,1,159.26,189.31Zm11.94-48.88,3.91,4.42-4.42-3.91-.85,9.55-.85-9.55-4.42,3.91,3.91-4.42-9.55-.85,9.55-.85-3.91-4.42,4.42,3.91.85-9.55.85,9.55,4.42-3.91-3.91,4.42,9.55.85Zm9.55-24.05-.85-9.55-4.42,3.91,3.92-4.42-9.56-.85,9.56-.85-3.92-4.42,4.42,3.91.85-9.55.85,9.55L186,100.2l-3.91,4.42,9.55.85-9.55.85,3.91,4.42-4.42-3.91Zm6.69,8.1-.37,4.19-.37-4.19-1.94,1.72,1.72-1.94-4.19-.37,4.19-.37-1.72-1.94,1.94,1.72.37-4.19.37,4.19,1.94-1.72-1.72,1.94,4.19.37-4.19.37,1.72,1.94Zm10.21,19.66-1.94-1.71-.37,4.18-.37-4.18L193,144.14l1.71-1.93-4.18-.38,4.18-.37L193,139.53l1.93,1.71.37-4.18.37,4.18,1.94-1.71-1.71,1.93,4.18.37-4.18.38Zm5.18-38.36-.2,2.2-.19-2.2-1,.9.9-1-2.2-.2,2.2-.2-.9-1,1,.9.19-2.2.2,2.2,1-.9-.9,1,2.2.2-2.2.2.9,1Z" transform="translate(-10 -10)"/>
  </g>
</svg>
