<svg id="Layer_1" data-name="Layer 1" xmlns="http://www.w3.org/2000/svg" viewBox="0 0 200 200">
  <g>
    <path d="M52.49,157c-.05-.85-.06-1.69-.07-2.54,0-.21,0-.42,0-.63a57.44,57.44,0,0,1,18.26-42.06,56.56,56.56,0,0,1,7.91-6.2,57.22,57.22,0,0,1,22.65-8.68c1-.15,1.92-.27,2.89-.37a57.64,57.64,0,0,1,36.08,8.25c1.1.68,2.17,1.4,3.22,2.15a57.63,57.63,0,0,1,24.19,46.91c0,.21,0,.42,0,.63,0,.85,0,1.69-.07,2.54a77.71,77.71,0,0,1,14.33,22.48,100,100,0,1,0-143.68,0A77.71,77.71,0,0,1,52.49,157ZM42.32,146.18l-.72-.64-.14,1.55-.13-1.55-.72.64.63-.72-1.55-.14,1.55-.14-.63-.72.72.64.13-1.55.14,1.55.72-.64-.64.72,1.56.14-1.56.14Zm12.14-22-.72-.64-.14,1.55-.14-1.55-.72.64.64-.72-1.55-.14,1.55-.14-.64-.72.72.64.14-1.55.14,1.55.72-.64-.64.72,1.55.14-1.55.14Zm6.34-14.76L59.17,108l-.31,3.51L58.55,108l-1.63,1.44,1.44-1.63-3.51-.31,3.51-.31-1.44-1.63L58.55,107l.31-3.51.31,3.51,1.63-1.44-1.44,1.63,3.51.31-3.51.31ZM67.63,82l-.72-.64L66.77,83l-.14-1.55-.72.64.64-.72L65,81.18,66.55,81l-.64-.71.72.63.14-1.55L66.91,81l.72-.63L67,81l1.55.14L67,81.32Zm1-13.8-.72-.64-.14,1.55-.14-1.55-.72.64.64-.72L66,67.38l1.55-.14-.64-.72.72.64.14-1.55.14,1.55.72-.64-.64.72,1.55.14L68,67.52Zm3.92,38c-.54.2-1.08.41-1.64.6a38.93,38.93,0,0,1,2.92-10.94c8.48-3.06,20.62-9.52,24.46-22a38.75,38.75,0,0,1,7.1-1.49A46.45,46.45,0,0,1,88.81,97.25,61.5,61.5,0,0,0,72.56,106.19ZM77,73.06l1.62,1.44L79,71l.31,3.51,1.63-1.44-1.44,1.62L83,75l-3.51.31,1.44,1.62-1.63-1.44L79,79l-.31-3.51L77,76.93l1.43-1.62L74.94,75l3.51-.32Zm2.27-19.92.72.63.14-1.55.13,1.55.72-.63-.63.71,1.55.14-1.55.14.63.72-.72-.64-.13,1.55L80,54.21l-.72.64.64-.72L78.37,54l1.56-.14ZM96.13,74.55c-3.76,10.21-13.54,15.94-21.19,19A39.51,39.51,0,0,1,96.13,74.55Zm-6.12-9,.72.64.14-1.55L91,66.15l.72-.64-.63.72,1.55.14-1.55.14.63.72L91,66.59l-.13,1.55-.14-1.55-.72.64.64-.72-1.56-.14,1.56-.14Zm36.18,30.16c6.73,1,13.82,2,20.27.9a39.36,39.36,0,0,1,2.38,8.47c-.91.1-1.81.15-2.73.17A61.27,61.27,0,0,0,126.19,95.67Zm22.17,11.25.72-.07c0,.22,0,.45.06.68C148.89,107.32,148.62,107.12,148.36,106.92ZM155,89l-.72-.64L154.15,90,154,88.39l-.71.64.63-.72-1.55-.14,1.55-.13-.63-.72L154,88l.14-1.55.14,1.55.72-.63-.64.72,1.55.13-1.55.14Zm12.76,21.83-.72-.64-.14,1.55-.13-1.55-.72.64.63-.72-1.55-.14,1.55-.14-.63-.72.72.64.13-1.55.14,1.55.72-.64-.64.72,1.56.14-1.56.14ZM170,74.66l-.72-.64-.14,1.55L169,74l-.72.64.64-.72-1.55-.14,1.55-.14-.64-.71.72.63.14-1.55.14,1.55L170,73l-.64.71,1.55.14-1.55.14Zm-2.82,5.84-.71-.64-.14,1.56-.14-1.56-.72.64.64-.72-1.55-.14,1.55-.13-.64-.72.72.63.14-1.55.14,1.55.71-.63-.63.72,1.55.13-1.55.14ZM173,136l-.14-1.55-.72.63.64-.72-1.55-.14,1.55-.13-.64-.72.72.63.14-1.55.14,1.55.72-.63-.64.72,1.55.13-1.55.14.64.72-.72-.63Zm.77-15.84,1.62,1.44.31-3.51.32,3.51,1.62-1.44-1.44,1.63,3.51.31-3.51.31,1.44,1.63-1.62-1.44-.32,3.51-.31-3.51L173.8,124l1.43-1.63-3.5-.31,3.5-.31ZM177.39,149l-.72-.64-.14,1.56-.13-1.56-.72.64.63-.72-1.55-.14,1.55-.14-.63-.71.72.63.13-1.55.14,1.55.72-.63-.64.71,1.56.14-1.56.14Zm-2.2,7.42-.14,1.56-.14-1.56-.71.64.63-.72-1.55-.14,1.55-.13-.63-.72.71.63.14-1.55.14,1.55.72-.63-.64.72,1.55.13-1.55.14.64.72Zm7.29,7.88-1.63-1.43-.31,3.51-.31-3.51-1.62,1.43,1.43-1.62-3.51-.31L180,162l-1.43-1.63,1.62,1.44.31-3.51.31,3.51,1.63-1.44L181,162l3.51.31-3.51.31Zm1-83,.71.64.14-1.55.14,1.55.72-.64-.64.72,1.55.14-1.55.14.64.72-.72-.64-.14,1.55-.14-1.55-.71.64.63-.72-1.55-.14,1.55-.14Zm2.39,15.24-.71-.64-.14,1.55-.14-1.55-.72.64.64-.72-1.55-.14,1.55-.14-.64-.71.72.63.14-1.55.14,1.55.71-.63-.63.71,1.55.14-1.55.14Zm3.52,54.63-.72-.63-.13,1.55-.14-1.55-.72.63.64-.71-1.56-.14,1.56-.14-.64-.72.72.64.14-1.55.13,1.55.72-.64-.63.72,1.55.14-1.55.14Zm5.47-13.46-3.24-2.87-.63,7-.62-7-3.25,2.87,2.88-3.25-7-.62,7-.63L187.16,130l3.25,2.87.62-7,.63,7L194.9,130,192,133.2l7,.63-7,.62ZM202,125.45l-.72-.63-.14,1.55-.14-1.55-.71.63.63-.72-1.55-.13,1.55-.14-.63-.72.71.64.14-1.56.14,1.56.72-.64-.64.72,1.55.14-1.55.13Zm2.47-22.34-.64.72,1.55.14-1.55.14.64.71-.72-.63-.14,1.55-.14-1.55-.72.63.64-.71-1.55-.14,1.55-.14-.64-.72.72.64.14-1.55.14,1.55ZM197.56,77l.72.63.14-1.55.13,1.55.72-.63-.63.71,1.55.14-1.55.14.63.72-.72-.64-.13,1.55-.14-1.55-.72.64.64-.72-1.56-.14,1.56-.14ZM199.13,96l-1.43-1.62,1.62,1.44.31-3.51.31,3.51,1.63-1.44L200.13,96l3.51.31-3.51.32,1.44,1.62-1.63-1.44-.31,3.51-.31-3.51L197.7,98.2l1.43-1.62-3.51-.32Zm-2.89,22.44-.64.71,1.55.14-1.55.14.64.72-.72-.64-.14,1.55-.14-1.55-.72.64.64-.72-1.55-.14,1.55-.14-.64-.71.72.63.14-1.55.14,1.55Zm-2.63-10.16.14,1.55.71-.64-.63.72,1.55.14-1.55.14.63.72-.71-.64-.14,1.55-.14-1.55-.72.64.64-.72-1.55-.14,1.55-.14-.64-.72.72.64ZM181.19,62.67l3.24,2.87.63-7,.62,7,3.25-2.87-2.88,3.24,7,.63-7,.62,2.88,3.25-3.25-2.88-.62,7-.63-7-3.24,2.88,2.87-3.25-7-.62,7-.63Zm-6.78-7.4.72.64.14-1.56.14,1.56.72-.64-.64.72,1.55.14-1.55.13.64.72-.72-.63-.14,1.55-.14-1.55-.72.63.64-.72-1.55-.13,1.55-.14Zm-.67,33.08.14-1.55.14,1.55.72-.64-.64.72,1.55.14-1.55.14.64.72-.72-.64-.14,1.55-.14-1.55-.72.64.64-.72-1.55-.14,1.55-.14-.64-.72ZM172.4,64.27l-1.55.14.63.71-.71-.63L170.63,66l-.14-1.55-.72.63.64-.71-1.55-.14,1.55-.14-.64-.72.72.64.14-1.55.14,1.55.71-.64-.63.72ZM165,47.93l1.62,1.44.31-3.51.32,3.51,1.62-1.44-1.44,1.63,3.51.31-3.51.31,1.44,1.63-1.62-1.44-.32,3.51-.31-3.51L165,51.81l1.44-1.63-3.51-.31,3.51-.31Zm1.44,48.19L165,94.5l1.62,1.43.31-3.51.32,3.51,1.62-1.43-1.44,1.62,3.51.31-3.51.31,1.44,1.63-1.62-1.44-.32,3.51-.31-3.51L165,98.37l1.44-1.63-3.51-.31Zm-5.21-42-.72-.64-.14,1.55-.13-1.55-.72.64.63-.72-1.55-.14,1.55-.14-.63-.71.72.63.13-1.55.14,1.55.72-.63-.64.71,1.56.14-1.56.14Zm-2-24.44.72.63.14-1.55.14,1.55.72-.63-.64.71,1.55.14-1.55.14.64.72-.72-.64-.14,1.55-.14-1.55-.72.64.64-.72-1.55-.14,1.55-.14Zm-3.88,15.62.72.64.14-1.55.14,1.55.72-.64-.64.72,1.55.14-1.55.14.64.71-.72-.63L156.2,48l-.14-1.55-.72.63.64-.71-1.55-.14L156,46Zm-3.22,18.09.72.64L153,62.5l.13,1.55.72-.64-.63.72,1.55.14-1.55.14.63.71-.72-.63L153,66l-.14-1.55-.72.63.64-.71-1.56-.14,1.56-.14Zm-8,4.59.63,7L148,72.14l-2.87,3.25,7,.63-7,.62L148,79.89,144.72,77l-.63,7-.62-7-3.25,2.88,2.88-3.25-7-.62,7-.63-2.88-3.25L143.47,75Zm-31.28,0,1.56-.14-.64-.72.72.64.14-1.55.13,1.55.72-.64-.63.72,1.55.14-1.55.14.63.72-.72-.64-.13,1.55-.14-1.55-.72.64.64-.72ZM116,72.49a40,40,0,0,1,7.28,1.85c-1.08,3.4-1.18,6.07.25,7.87,2,2.45,6.38,2.85,14.15,1.23a39.49,39.49,0,0,1,2.75,3c-10,.85-22-.11-25.8-1.52C112.42,84.13,114.23,78.25,116,72.49Zm15.07-7.85.72.64.14-1.56.14,1.56.71-.64-.63.72,1.55.14-1.55.13.63.72-.71-.63L132,67.27l-.14-1.55-.72.63.64-.72-1.55-.13,1.55-.14Zm5,17.28c-6,1.12-9.77.84-11.11-.83-1-1.27-.8-3.48,0-6.09A39.35,39.35,0,0,1,136.08,81.92Zm5.31-26.49.14-1.55.14,1.55.71-.64-.63.72,1.55.14-1.55.14.63.72-.71-.64-.14,1.55-.14-1.55-.72.64.64-.72-1.55-.14,1.55-.14-.64-.72Zm-2.92-10.56.63.72-.71-.64-.14,1.55L138.11,45l-.72.64.64-.72-1.55-.14,1.55-.14-.64-.72.72.64.14-1.55.14,1.55.71-.64-.63.72,1.55.14Zm-4.93-19.34L135.16,27l.31-3.51.31,3.51,1.63-1.44L136,27.16l3.51.31-3.51.31,1.44,1.62L135.78,28l-.31,3.51L135.16,28l-1.62,1.43L135,27.78l-3.51-.31,3.51-.31Zm-5.36-10.1.72.64.14-1.55.14,1.55.72-.64-.64.72,1.55.14-1.55.14.64.72-.72-.64L129,18.06l-.14-1.55-.72.64.64-.72-1.55-.14,1.55-.14Zm-3,36.94-.72-.64-.13,1.55-.14-1.55-.72.64.64-.72-1.56-.14,1.56-.14-.64-.72.72.64.14-1.55.13,1.55.72-.64-.63.72,1.55.14-1.55.14Zm-2.4-31.89.72.64.13-1.55.14,1.55.72-.64-.64.72,1.56.14-1.56.14.64.72-.72-.64-.14,1.55-.13-1.55-.72.64.63-.72-1.55-.14,1.55-.14Zm-4.83,16.27.72.63.13-1.55.14,1.55.72-.63-.64.72,1.56.13-1.56.14.64.72-.72-.64-.14,1.56-.13-1.56-.72.64.63-.72L117,37.6l1.55-.13Zm4,10.67-8.85,10,21.62,1.92-21.62,1.92,8.85,10-10-8.85-.85,9.65c1.05,0,2.1.09,3.14.2-2.19,7-4,13-.18,14.4s16.94,2.57,27.73,1.5a38.51,38.51,0,0,1,3.93,6.65c-6.45,1-13.62-.06-20.34-1.09-7.61-1.17-14.92-2.28-20,0a61.6,61.6,0,0,0-12,2.1,47.64,47.64,0,0,0,10.6-14.13,48.22,48.22,0,0,0,3.46-9.55c.51,0,1,0,1.56-.06l-.86-9.66-10,8.85,8.85-10L85.31,59.34l21.62-1.92-8.85-10,10,8.85L110,34.65l1.92,21.62ZM109.14,21.48l.72.63.14-1.55.14,1.55.72-.63-.64.72,1.55.13-1.55.14.64.72-.72-.64L110,24.11l-.14-1.56-.72.64.64-.72-1.55-.14,1.55-.13Zm-3.66,28.9.72.63.13-1.55.14,1.55.72-.63-.63.71,1.55.14-1.55.14.63.72-.72-.64L106.33,53l-.13-1.55-.72.64.63-.72-1.55-.14,1.55-.14ZM97.7,35l.72.63.13-1.55.14,1.55.72-.63-.64.71,1.56.14L98.77,36l.64.72-.72-.64-.14,1.55-.13-1.55-.72.64.63-.72-1.55-.14,1.55-.14ZM92.64,49.9l.14,1.55.71-.64-.63.72,1.55.14-1.55.14.63.72-.71-.64-.14,1.55-.14-1.55-.72.64.64-.72-1.55-.14,1.55-.14-.64-.72.72.64ZM89.67,32l.71.64.14-1.55.14,1.55.72-.64-.64.72,1.55.14L90.74,33l.64.71-.72-.63-.14,1.55-.14-1.55-.71.63L90.3,33l-1.55-.14,1.55-.14ZM84.45,19l.72.63.14-1.55.14,1.55.72-.63-.64.72,1.55.13L85.53,20l.64.72-.72-.63-.14,1.55-.14-1.55-.72.63.64-.72-1.55-.14,1.55-.13ZM76.28,37.16,79.52,40l.63-7,.62,7L84,37.16,81.14,40.4l7,.63-7,.62L84,44.9,80.77,42l-.62,7-.63-7L76.28,44.9l2.87-3.25-7-.62,7-.63Zm-6.62,9.89.14-1.55.14,1.55.72-.64-.64.72,1.55.14L70,47.41l.64.72-.72-.64L69.8,49l-.14-1.55-.72.64.64-.72L68,47.27l1.55-.14-.64-.72Zm-4-20.44.72.64.14-1.55.13,1.55.72-.64-.63.72,1.55.14-1.55.14.63.71-.72-.63-.13,1.55-.14-1.55-.72.63.64-.71-1.56-.14,1.56-.14ZM58.34,39.09,60,40.53,60.28,37l.31,3.51,1.62-1.44-1.44,1.62,3.51.32-3.51.31L62.21,43l-1.62-1.43L60.28,45,60,41.53,58.34,43l1.44-1.62L56.27,41l3.51-.32ZM59.78,56.7l-1.44-1.62L60,56.51,60.28,53l.31,3.51,1.62-1.43L60.77,56.7l3.51.31-3.51.31L62.21,59l-1.62-1.44L60.28,61,60,57.51,58.34,59l1.44-1.63L56.27,57Zm-4,17.9.72.64.13-1.55.14,1.55.72-.64-.64.72,1.56.14-1.56.14.64.71-.72-.63-.14,1.55-.13-1.55-.72.63.63-.71-1.55-.14,1.55-.14ZM52.22,94.19l.72.64.14-1.56.14,1.56.72-.64-.64.72,1.55.14-1.55.14.64.71-.72-.63-.14,1.55-.14-1.55-.72.63.64-.71-1.55-.14,1.55-.14Zm-2.08,54.67-1.55.14.64.72-.72-.64-.14,1.56-.14-1.56-.71.64.63-.72-1.55-.14,1.55-.13-.63-.72.71.63.14-1.55.14,1.55.72-.63-.64.72Zm-5.83-32.51,1.55-.14-.63-.72.71.64.14-1.55.14,1.55.72-.64-.64.72,1.55.14-1.55.14.64.71-.72-.63-.14,1.55-.14-1.55-.71.63.63-.71Zm-1-27.93,1.56-.13-.64-.72.72.63.14-1.55.14,1.55.71-.63-.63.72,1.55.13-1.55.14.63.72-.71-.64-.14,1.56-.14-1.56-.72.64.64-.72ZM46,46.8l.72.63.14-1.55L47,47.43l.71-.63-.63.71,1.55.14L47,47.79l.63.72L47,47.87l-.14,1.55-.14-1.55-.72.64.64-.72-1.55-.14,1.55-.14ZM43.45,59.87l.72.64L44.31,59l.14,1.55.72-.64-.64.72,1.55.14-1.55.14.64.71L44.45,61l-.14,1.55L44.17,61l-.72.63.64-.71-1.55-.14,1.55-.14ZM41.68,78.15l.72.63.14-1.55.14,1.55.71-.63-.63.71,1.55.14-1.55.14.63.72-.71-.64-.14,1.55-.14-1.55-.72.64.64-.72L40.77,79l1.55-.14Zm.6,55.18.31-3.51.31,3.51,1.63-1.44-1.44,1.63,3.51.31-3.51.31,1.44,1.62-1.63-1.43-.31,3.51-.31-3.51-1.62,1.43,1.43-1.62-3.51-.31,3.51-.31-1.43-1.63ZM33.17,69.05l1.62,1.44L35.11,67l.31,3.51L37,69.05,35.6,70.68l3.51.31-3.51.31L37,72.92l-1.62-1.43L35.11,75l-.32-3.51-1.62,1.43,1.44-1.62L31.1,71l3.51-.31ZM36,89.8l-.72-.64-.13,1.55L35,89.16l-.72.64.64-.72-1.56-.14,1.56-.14-.64-.72.72.64.14-1.55.13,1.55.72-.64-.63.72,1.55.14-1.55.14ZM19.13,98.89l.72.64L20,98l.14,1.56.72-.64-.64.72,1.56.14-1.56.13.64.72-.72-.63L20,101.52,19.85,100l-.72.63.63-.72-1.55-.13,1.55-.14Zm-1.82,15.69L17.17,113l-.72.64.64-.72-1.55-.14,1.55-.13-.64-.72.72.63.14-1.55.14,1.55.72-.63-.64.72,1.55.13-1.55.14.64.72-.72-.64Zm3,20.79-.72-.63-.13,1.55-.14-1.55-.72.63.64-.71-1.56-.14,1.56-.14-.64-.72.72.64.14-1.55.13,1.55.72-.64-.63.72,1.55.14-1.55.14Zm1.86-14.2-.71-.63-.14,1.55-.14-1.55-.72.63.64-.71-1.55-.14,1.55-.14-.64-.72.72.64.14-1.55.14,1.55.71-.64-.63.72,1.55.14-1.55.14Zm.92-44.85,1.55-.13-.63-.72.71.63.14-1.55L25,76.1l.72-.63-.64.72,1.55.13-1.55.14.64.72L25,76.54,24.9,78.1l-.14-1.56-.71.64.63-.72Zm8,37.13-2.88-3.25,3.25,2.88.62-7,.63,7L36,110.2l-2.87,3.25,7,.62-7,.63L36,118l-3.24-2.88-.63,7-.62-7L28.28,118l2.88-3.25-7-.63Zm4.52,16.76-.72-.63-.14,1.55-.13-1.55-.72.63.63-.72-1.55-.14,1.55-.13L34,128.5l.72.63.13-1.55.14,1.55.72-.63-.63.72,1.55.13-1.55.14Zm-9.24,9.63-.14-1.56-.72.64.64-.72-1.56-.14,1.56-.14-.64-.71.72.63.14-1.55.13,1.55.72-.63-.63.71,1.55.14-1.55.14.63.72-.72-.64Zm5,4.81-.31,3.51-.31-3.51-1.63,1.44,1.44-1.62-3.51-.31,3.51-.32-1.44-1.62,1.63,1.44.31-3.51.31,3.51L33,142.22l-1.43,1.62,3.51.32-3.51.31L33,146.09Zm5.19,15.49-.14-1.55-.72.64.64-.72-1.56-.14,1.56-.14-.64-.71.72.63.14-1.55.14,1.55.71-.63-.63.71,1.55.14-1.55.14.63.72-.71-.64Z" transform="translate(-10 -10)"/>
    <path d="M169.61,169.79l-.06-.07c-.72-.85-1.47-1.68-2.23-2.5l-.13-.14c-.3-.32-.61-.62-.91-.94-.46-.47-.92-1-1.39-1.42l-.16-.16c-.79-.77-1.59-1.52-2.41-2.26l-.14-.12c-.83-.74-1.69-1.48-2.55-2.19l0,0c-1.77-1.45-3.61-2.83-5.51-4.12l-.09-.06c-.91-.62-1.83-1.21-2.76-1.79l-.25-.16c-.91-.56-1.82-1.09-2.75-1.61l-.34-.19q-1.38-.76-2.79-1.47l-.37-.19c-.94-.46-1.9-.92-2.86-1.35l-.34-.15c-1-.43-2-.85-3-1.24l-.22-.09c-2.1-.81-4.24-1.54-6.43-2.17l-.25-.08c-1-.3-2.09-.57-3.14-.82l-.42-.11c-1-.24-2.07-.46-3.11-.66l-.5-.1c-1-.19-2.08-.36-3.13-.52l-.51-.07c-1.06-.14-2.13-.27-3.2-.38l-.46,0c-1.1-.1-2.21-.18-3.32-.23h-.31c-1.17,0-2.35-.09-3.53-.09s-2.36,0-3.53.09h-.31c-1.11,0-2.22.13-3.32.23l-.46,0c-1.07.11-2.14.24-3.2.38l-.51.07c-1,.16-2.1.33-3.13.52l-.5.1c-1,.2-2.08.42-3.11.66l-.42.11c-1.05.25-2.1.52-3.14.82l-.25.08c-2.19.63-4.33,1.36-6.43,2.17l-.22.09c-1,.39-2,.81-3,1.24l-.34.15c-1,.43-1.92.88-2.86,1.35l-.37.19q-1.41.7-2.79,1.47l-.34.19c-.93.52-1.84,1.05-2.75,1.61l-.25.16c-.93.58-1.86,1.17-2.76,1.79l-.08.06q-2.87,1.93-5.53,4.13l0,0c-.86.71-1.72,1.45-2.55,2.19l-.14.12c-.82.74-1.62,1.49-2.41,2.26l-.16.16c-.47.46-.93.94-1.39,1.42-.3.32-.61.62-.91.94l-.13.14c-.76.82-1.51,1.65-2.24,2.5l0,.07a78.06,78.06,0,0,0-9,13,99.9,99.9,0,0,0,137.12,0A77.46,77.46,0,0,0,169.61,169.79Z" transform="translate(-10 -10)"/>
  </g>
</svg>
