<svg id="Layer_1" data-name="Layer 1" xmlns="http://www.w3.org/2000/svg" viewBox="0 0 200 200">
  <g>
    <g>
      <path d="M90.61,122l-.53.6,1.14.1-.4-.59Z" transform="translate(-10 -10)"/>
      <path d="M104.39,132v0l0,0Z" transform="translate(-10 -10)"/>
      <path d="M103.88,131.83l.19.16v-.1Z" transform="translate(-10 -10)"/>
      <path d="M104.48,132.09l.72.06-.64-.14Z" transform="translate(-10 -10)"/>
      <path d="M89.91,121.61l.07.84.59-.51Z" transform="translate(-10 -10)"/>
      <path d="M114,133.31l.83-.73-.73.83,1.76.16c.3-.62.58-1.24.84-1.89a23.56,23.56,0,0,1-2.79.65Z" transform="translate(-10 -10)"/>
      <path d="M81.32,96.12l-1-.09.39.82Z" transform="translate(-10 -10)"/>
      <polygon points="79.83 114.73 80.36 115.2 80.51 113.43 79.98 112.97 79.83 114.73"/>
      <path d="M110,10S6.86,48.26,68.06,124c0,0-66.15-51.8,5.67-107.23A100,100,0,0,0,110,210s103.14-38.26,41.94-114c0,0,66.15,51.8-5.67,107.23A100,100,0,0,0,110,10ZM46.47,44.56l-.39-.35-.08.85-.08-.85-.39.35.35-.4L45,44.08l.86-.07-.35-.4.39.35L46,43.1l.08.86.39-.35-.35.4.86.07-.86.08Zm8.21-15.41.4.36.07-.86.08.86.4-.36-.35.4.85.08-.85.07.35.4-.4-.35-.08.86-.07-.86-.4.35.35-.4-.85-.07.85-.08ZM44.43,39.87l.84.73.16-1.8.16,1.8.83-.73-.74.83,1.81.16L45.68,41l.74.83-.83-.73-.16,1.8-.16-1.8-.84.73.74-.83-1.8-.16,1.8-.16Zm158.89,66.66-1.59,1.8,3.89.35-3.89.35,1.59,1.8-1.8-1.6-.35,3.9-.34-3.9-1.81,1.6,1.6-1.8-3.9-.35,3.9-.35-1.6-1.8,1.81,1.6.34-3.9.35,3.9Zm-6.13,15.61-.39-.35-.08.85-.08-.85-.39.35.35-.4-.86-.08.86-.07-.35-.4.39.35.08-.86.08.86.39-.35-.35.4.86.07-.86.08Zm-4.33-22.65,1.8-.16-.74-.84.84.74.16-1.8.16,1.8.83-.74-.74.84,1.81.16-1.81.16.74.83-.83-.74-.16,1.8-.16-1.8-.84.74.74-.83Zm-.78-32.2.4.35.08-.86.07.86.4-.35-.35.4.85.07-.85.08.35.39-.4-.35-.07.86-.08-.86-.4.35.35-.39-.85-.08.85-.07ZM181,53.18l.35,3.9,1.8-1.59-1.59,1.8,3.9.35-3.9.34,1.59,1.81-1.8-1.6-.35,3.9-.34-3.9-1.81,1.6,1.6-1.81-3.9-.34,3.9-.35-1.6-1.8,1.81,1.59Zm-4.52-8.89.83.74.16-1.81.16,1.81.83-.74-.73.83,1.8.16-1.8.16.73.84-.83-.74-.16,1.8-.16-1.8-.83.74.73-.84-1.8-.16,1.8-.16ZM177.22,75l-.73-.84.83.74.16-1.8.16,1.8.83-.74-.73.84,1.8.16-1.8.16.73.83-.83-.74-.16,1.8-.16-1.8-.83.74.73-.83-1.8-.16Zm-4-23,.4.35.07-.85.08.85.4-.35-.36.4.86.08-.86.07.36.4-.4-.35-.08.85-.07-.85-.4.35.35-.4-.86-.07.86-.08Zm-3.19,8.49.08-.86.07.86.4-.35-.35.39.86.08-.86.08.35.39-.4-.35-.07.86-.08-.86-.39.35.35-.39-.86-.08.86-.08-.35-.39ZM159,37l2.77,2.45.53-6,.53,6L165.63,37l-2.44,2.77,6,.53-6,.53,2.44,2.76-2.76-2.44-.53,6-.53-6L159,43.63l2.45-2.76-6-.53,6-.53Zm-2.31,15.3L156,51.5l.83.74.16-1.8.16,1.8.84-.74-.74.84,1.8.16-1.8.16.74.83-.84-.74-.16,1.8-.16-1.8-.83.74.74-.83-1.81-.16ZM151.06,27l.83.74.16-1.8.16,1.8L153,27l-.73.84,1.8.16-1.8.16.73.83-.83-.74L152.05,30l-.16-1.81-.83.74.73-.83L150,28l1.8-.16Zm-.41,16.56-.35-.39.39.35.08-.86.08.86.39-.35-.35.39.86.08-.86.08.35.39-.39-.35-.08.86-.08-.86-.39.35.35-.39-.86-.08Zm-5.21-22.13.4.35.08-.85.07.85.4-.35-.35.4.86.08-.86.07.35.4L146,22l-.07.86-.08-.86-.4.35.35-.4-.85-.07.85-.08Zm-13.62-2.17.83.74.16-1.81L133,20l.84-.74-.74.83,1.8.16-1.8.16.74.84-.84-.74-.16,1.8-.16-1.8-.83.74.74-.84-1.81-.16,1.81-.16Zm-7.53,3.15.4.35.08-.85.07.85.4-.35-.35.4.86.08-.86.07.35.4-.4-.35-.07.85-.08-.85-.4.35.35-.4-.85-.07.85-.08Zm-14.9-3.07,1.81,1.59.34-3.89.35,3.89,1.8-1.59-1.59,1.8,3.9.35-3.9.34,1.59,1.81-1.8-1.6-.35,3.9L111.2,22l-1.81,1.6,1.6-1.81-3.9-.34,3.9-.35ZM99.1,24.56l.39.35.08-.86.07.86.4-.35-.35.39.86.08-.86.08.35.39-.4-.35-.07.86-.08-.86-.39.35.35-.39L98.59,25l.86-.08ZM89,26.57l.84.74.16-1.8.16,1.8.83-.74-.74.84,1.81.16-1.81.16.74.83-.83-.74L90,29.63l-.16-1.81-.84.74.74-.83-1.8-.16,1.8-.16Zm-1.28,11,.07-.86.08.86.4-.35-.36.4.86.07-.86.08.36.4-.4-.36-.08.86-.07-.86-.4.36.35-.4-.86-.08.86-.07-.35-.4Zm-2.06-7,.4.35.08-.86.07.86.4-.35-.35.4.86.07-.86.08.35.4-.4-.36-.07.86-.08-.86-.4.36.35-.4L85.15,31,86,31ZM82.32,43.61l.39.35.08-.86.08.86.39-.35-.35.4.86.07-.86.08.35.4-.39-.35-.08.85-.08-.85-.39.35.35-.4-.86-.08.86-.07Zm-3.08,5.94-1.8.16.74.84-.84-.74-.16,1.8L77,49.81l-.83.74.74-.84-1.8-.16,1.8-.16-.74-.83.83.74.16-1.8.16,1.8.84-.74-.74.83ZM74.67,37.81l.84.74.16-1.81.16,1.81.83-.74-.74.83,1.8.16-1.8.16.74.84-.83-.74-.16,1.8-.16-1.8-.84.74.74-.84-1.8-.16,1.8-.16ZM74.46,45l-.35-.4.4.35.08-.86.07.86.4-.35-.35.4.86.07-.86.08.35.4-.4-.35-.07.85-.08-.85-.4.35.35-.4-.85-.08Zm-7.86-.55.84.74.16-1.8.16,1.8.83-.74-.74.84,1.8.16-1.8.16.74.83-.83-.74L67.6,47.5l-.16-1.81-.84.74.74-.83-1.8-.16,1.8-.16Zm-6,9.9,2.76,2.45.53-6,.53,6,2.76-2.45L64.7,57.11l6,.53-6,.53,2.44,2.76-2.76-2.44-.53,6-.53-6-2.76,2.44L63,58.17l-6-.53,6-.53Zm7,21.7-1.81.16.74.84-.83-.74-.16,1.8-.16-1.8-.84.74.74-.84L63.48,76l1.8-.16-.74-.83.84.74L65.54,74l.16,1.81.83-.74-.74.83ZM55.24,63.46l.83.74.16-1.8.16,1.8.84-.74-.74.84,1.8.16-1.8.16.74.83-.84-.74-.16,1.81-.16-1.81-.83.74.74-.83-1.8-.16L56,64.3ZM55,74.89l-.35-.4.4.35.07-.86.08.86.4-.35-.35.4.85.07-.85.08.35.4-.4-.35-.08.85-.07-.85-.4.35L55,75,54.18,75ZM53,82.48l-.08.86-.07-.86-.4.35.35-.4-.86-.07.86-.08-.35-.4.4.36.07-.86.08.86.39-.36-.35.4.86.08-.86.07.35.4Zm3.95,15.09-.83-.73-.16,1.8-.16-1.8-.83.73.73-.83-1.8-.16,1.8-.16-.73-.83.83.73.16-1.8.16,1.8.83-.73-.73.83,1.8.16-1.8.16Zm2.88-11.11-.35-3.9-1.8,1.6,1.6-1.8L55.34,82l3.9-.35-1.6-1.8,1.8,1.6.35-3.9.35,3.9,1.8-1.6-1.6,1.8,3.9.35-3.9.35,1.6,1.8-1.8-1.6ZM63,106.17l-.4-.35-.07.86-.08-.86-.4.35.35-.39-.85-.08.85-.08-.35-.39.4.35.08-.86.07.86.4-.35-.35.39.86.08-.86.08Zm-.11-14.28.73-.84-1.8-.16,1.8-.16-.73-.83.83.74.16-1.81L64,90.64l.83-.74-.73.83,1.8.16-1.8.16.73.84L64,91.15,63.85,93l-.16-1.8Zm1.5,5.16.35-.39-.86-.08.86-.08-.35-.39.39.35.08-.86.08.86.39-.35L65,96.5l.86.08-.86.08.35.39-.39-.35-.08.86-.08-.86ZM66.28,113l-.4-.35-.07.85-.08-.85-.39.35.35-.4-.86-.08.86-.07-.35-.4.39.35.08-.86.07.86.4-.35-.35.4.86.07-.86.08ZM67.36,84.8l-.4-.35-.07.85-.08-.85-.4.35.36-.4-.86-.07.86-.08-.36-.4.4.35.08-.85.07.85.4-.35-.35.4.86.08L67,84.4ZM68,65.08l-.39.35L68,65,67.13,65l.86-.07-.35-.4.39.35.08-.86.08.86.39-.35-.35.4.86.07-.86.08.35.39-.39-.35-.08.86Zm-.18,76.06.4.35.08-.86.07.86.4-.35-.35.39.86.08-.86.08.35.39-.4-.35-.07.86-.08-.86-.4.35.35-.39-.85-.08.85-.08ZM64,127.61l.4.35.07-.86.08.86.4-.35-.35.39.85.08-.85.08.35.39-.4-.35-.08.86-.07-.86-.4.35.35-.39-.85-.08.85-.08Zm-3.28,4.6.84.74.16-1.8.16,1.8.83-.74-.74.84,1.81.16-1.81.16.74.83-.83-.74-.16,1.81-.16-1.81-.84.74.74-.83-1.8-.16,1.8-.16ZM48.89,111.48l.83.74.16-1.8.16,1.8.84-.74-.74.83,1.8.16-1.8.16.74.84-.84-.74-.16,1.8-.16-1.8-.83.74.74-.84-1.8-.16,1.8-.16Zm2.45,10.33-.4-.35-.08.85-.07-.85-.4.35.35-.4-.86-.07.86-.08-.35-.4.4.35.07-.85.08.85.4-.35-.35.4.85.08-.85.07ZM48.4,141.63l-.4-.35-.07.85-.08-.85-.4.35.35-.4-.85-.08.85-.07-.35-.4.4.35.08-.85L48,141l.4-.35-.35.4.85.07-.85.08Zm-2.25-8.31.16-1.8.16,1.8.84-.74-.74.84,1.8.16-1.8.16.74.83-.84-.74-.16,1.8-.16-1.8-.83.74.74-.83-1.81-.16,1.81-.16-.74-.84ZM40.66,98.05l-1.8.16.73.83-.83-.74-.16,1.81-.16-1.81-.83.74.73-.83-1.8-.16,1.8-.16-.73-.84.83.74L38.6,96l.16,1.8.83-.74-.73.84ZM35,103.87l-.4-.35-.08.85-.07-.85-.4.35.35-.4-.86-.07.86-.08-.35-.4.4.35.07-.85.08.85.4-.35-.35.4.85.08-.85.07Zm.07-8.13-1.8-1.59-.35,3.9-.34-3.9-1.81,1.59,1.6-1.8-3.9-.35,3.9-.34-1.6-1.81L32.57,93l.34-3.9.35,3.9,1.8-1.6-1.59,1.81,3.9.34-3.9.35ZM29,83.85l.39.35.08-.85.08.85.39-.35-.35.4.86.08-.86.07.35.4-.39-.35-.08.85-.08-.85L29,84.8l.35-.4-.86-.07.86-.08Zm5.32-3.57.83.74.16-1.8.16,1.8.84-.74-.74.84,1.8.16-1.8.16.74.83-.84-.74-.16,1.81-.16-1.81-.83.74.74-.83-1.81-.16L35,81.12Zm3.58-5.79.4.35.08-.86.07.86.4-.35-.35.4.85.07-.85.08.35.4-.4-.35-.07.85-.08-.85-.4.35.35-.4L37.37,75l.85-.07Zm0-26.49.4.35.08-.85.07.85.4-.35-.35.4.85.07-.85.08.35.4-.4-.35-.07.85-.08-.85-.4.35.35-.4-.85-.08.85-.07Zm-.26,18,.16-1.8.16,1.8.83-.73-.74.83,1.81.16L38,66.45l.74.83-.83-.73-.16,1.8-.16-1.8-.84.73.74-.83-1.8-.16,1.8-.16-.74-.83Zm-2.75-4.41.08-.85.07.85.4-.35-.35.4.85.07-.85.08.35.4-.4-.35-.07.85-.08-.85-.4.35.35-.4L34,61.74l.85-.07-.35-.4Zm-4-6.31.84.74.16-1.8.16,1.8.83-.74-.74.84,1.81.16-1.81.16.74.83-.83-.74-.16,1.81-.16-1.81-.84.74.74-.83-1.8-.16,1.8-.16ZM25.17,68l2.76,2.44.53-6,.53,6L31.76,68l-2.45,2.76,6,.53-6,.53,2.45,2.76L29,72.13l-.53,6-.53-6-2.76,2.44,2.44-2.76-6-.53,6-.53ZM21.36,87.84l.84.74.16-1.8.16,1.8.83-.74-.73.83,1.8.16-1.8.16.73.84-.83-.74-.16,1.8-.16-1.8-.84.74L22.1,89l-1.8-.16,1.8-.16ZM22,114.68l-.4-.35-.08.86-.07-.86-.4.35.35-.4-.86-.07.86-.08-.35-.4.4.35.07-.85.08.85.4-.35-.35.4.85.08-.85.07Zm-.85-22.24-.39-.35-.08.86-.08-.86-.39.35.35-.39L19.68,92l.86-.07-.35-.4.39.35.08-.86.08.86.39-.35-.35.4.86.07-.86.08Zm-2.37-10.9.4.35.08-.86.07.86.4-.35-.35.39.85.08-.85.08.35.39-.4-.35-.07.86-.08-.86-.4.35.35-.39L18.26,82l.85-.08Zm-4,19.38.36-.4-.86-.08.86-.07-.36-.4.4.35.08-.86.07.86.4-.35-.35.4.86.07-.86.08.35.4-.4-.35-.07.85-.08-.85Zm1.93,22.34-.4-.35-.07.86-.08-.86-.4.35.36-.4-.86-.07.86-.08-.36-.4.4.35.08-.85.07.85.4-.35-.35.4.86.08-.86.07ZM20,105.9l-.73-.83.83.74L20.3,104l.16,1.81.83-.74-.73.83,1.8.16-1.8.16.73.84-.83-.74-.16,1.8-.16-1.8-.83.74.73-.84-1.8-.16Zm3.68,29.62-.16,1.8-.16-1.8-.83.74.74-.83-1.81-.16,1.81-.16-.74-.84.83.74.16-1.8.16,1.8.84-.74-.74.84,1.8.16-1.8.16.74.83ZM28.13,153l-.84-.74L27.13,154,27,152.21l-.83.74.74-.83L25.07,152l1.81-.16-.74-.84.83.74.16-1.8.16,1.8.84-.74-.74.84,1.8.16-1.8.16Zm-.85-12.79.4.35.08-.86.07.86.4-.35-.35.39.86.08-.86.08.35.39-.4-.35-.07.86-.08-.86-.4.35.36-.39-.86-.08.86-.08Zm-1.39-15.3,4.62-5.22-11.27-1,11.27-1-4.62-5.22L31.11,117l1-11.27,1,11.27,5.22-4.62-4.62,5.22,11.28,1-11.28,1,4.62,5.22-5.22-4.62-1,11.28-1-11.28Zm14.8,24.28-.84-.74-.16,1.8-.16-1.8-.83.74.74-.83-1.81-.17,1.81-.16-.74-.83.83.74.16-1.8.16,1.8.84-.74L40,148l1.8.16-1.8.17Zm-3.27-17.52-.4-.35-.07.86-.08-.86-.4.35.36-.39-.86-.08.86-.08-.36-.39.4.35.08-.86L37,131l.4-.35-.35.39.86.08-.86.08Zm-1.73,9.19L34.09,139l1.8,1.6.35-3.9.35,3.9,1.8-1.6-1.6,1.81,3.9.34-3.9.35,1.6,1.8-1.8-1.59-.35,3.9-.35-3.9-1.8,1.59,1.6-1.8-3.9-.35Zm-1.51,24.44-.39-.35-.08.86-.07-.86-.4.35.35-.4-.86-.07.86-.08-.35-.4.4.35.07-.85.08.85.39-.35-.35.4.86.08-.86.07Zm1.57-11.11-.08.86-.08-.86-.39.35.35-.4-.86-.07.86-.08-.35-.4.39.35.08-.85.08.85.39-.35-.35.4.86.08-.86.07.35.4Zm9.82,26.05-.84-.74-.16,1.8-.16-1.8-.83.74.74-.84-1.8-.16,1.8-.16-.74-.83.83.74.16-1.81.16,1.81.84-.74-.74.83,1.8.16-1.8.16Zm3.81-8-.4-.35-.08.86-.07-.86-.4.35.35-.4-.85-.07.85-.08-.35-.4.4.35.07-.85.08.85.4-.35-.35.4.85.08-.85.07Zm-5.47-8.43,2.45,2.76-2.77-2.44-.53,6-.53-6-2.76,2.44,2.44-2.76-6-.53,6-.53-2.44-2.77,2.76,2.45.53-6,.53,6,2.77-2.45-2.45,2.77,6,.53ZM53.78,161l-.08-.86-.39.36.35-.4L52.8,160l.86-.07-.35-.4.39.35.08-.86.08.86.39-.35-.35.4.86.07-.86.08.35.4-.39-.36Zm3.14,25.84-.4-.35-.07.86-.08-.86-.39.35.35-.4-.86-.07.86-.08-.35-.4.39.35.08-.85.07.85.4-.35-.35.4.86.08-.86.07Zm-.48-16.63.74.83-.84-.73-.16,1.8-.16-1.8-.83.73.74-.83L54.12,170l1.81-.16-.74-.83.83.73.16-1.8.16,1.8.84-.73-.74.83,1.8.16Zm8.81,10-.08-.86-.4.35.35-.39-.85-.08.85-.08-.35-.39.4.35.08-.86.07.86.4-.35-.35.39.86.08-.86.08.35.39-.4-.35Zm3.34,12.74-.83-.74L67.6,194l-.16-1.8-.84.74.74-.84-1.8-.16,1.8-.16-.74-.83.84.74.16-1.81.16,1.81.83-.74-.74.83,1.81.16-1.81.16Zm3.08-18.75-.84-.74-.16,1.8-.16-1.8-.83.74.74-.84-1.81-.16,1.81-.16-.74-.83.83.74.16-1.81.16,1.81.84-.74-.74.83,1.8.16-1.8.16ZM78,198.21l-.4-.35-.08.86-.07-.86-.4.35.35-.4-.86-.07.86-.08-.35-.4.4.36.07-.86.08.86.4-.36-.35.4.85.08-.85.07Zm13.55,5.33-.83-.74-.16,1.8-.16-1.8-.83.74.73-.84-1.8-.16,1.8-.16-.73-.83.83.73.16-1.8.16,1.8.83-.73-.73.83,1.8.16-1.8.16ZM91,193.92l.39.35.08-.85.08.85.39-.35-.35.4.86.08-.86.07.35.4-.39-.35-.08.85-.08-.85-.39.35.35-.4-.86-.07.86-.08Zm13.5,9.4-.4-.35-.07.86L104,203l-.4.35.35-.4-.85-.07.85-.08-.35-.4.4.36.08-.86.07.86.4-.36-.35.4.86.08-.86.07Zm.86-8.35-.83-.74-.16,1.8-.16-1.8-.83.74.73-.84-1.8-.16,1.8-.16-.73-.83.83.74.16-1.81.16,1.81.83-.74-.73.83,1.8.16-1.8.16Zm11.3,7.89-.84-.74-.16,1.81-.16-1.81-.83.74.74-.83-1.81-.16,1.81-.16-.74-.84.83.74.16-1.8.16,1.8.84-.74-.74.84,1.8.16L116,202Zm1.54-12.31-.4-.35-.08.85-.07-.85-.4.35.35-.4-.86-.08.86-.07-.35-.4.4.35.07-.86.08.86.4-.35-.36.4.86.07-.86.08Zm9.86,7.63-1.8-1.6-.35,3.9-.34-3.9-1.81,1.6,1.6-1.8-3.9-.35,3.9-.35-1.6-1.8,1.81,1.6.34-3.9.35,3.9,1.8-1.6-1.59,1.8,3.9.35-3.9.35Zm5.73-13.1-.83-.73-.16,1.8-.16-1.8-.83.73.73-.83-1.8-.16,1.8-.16-.73-.83.83.73.16-1.8.16,1.8.83-.73-.73.83,1.8.16-1.8.16Zm4.71-.28-.39-.35-.08.86-.08-.86-.39.35.35-.4-.86-.07.86-.08-.35-.39.39.35.08-.86.08.86.39-.35-.35.39.86.08-.86.07Zm8.55.28-.83-.73-.16,1.8-.16-1.8-.83.73.73-.83-1.8-.16,1.8-.16-.73-.83.83.73.16-1.8.16,1.8.83-.73-.73.83,1.8.16-1.8.16Zm.53-20.26-.16,1.8-.16-1.8-.83.74.74-.83-1.81-.17,1.81-.16-.74-.83.83.74.16-1.8.16,1.8.84-.74-.74.83,1.8.16-1.8.17.74.83Zm2.78,11.85-.39-.35-.08.86-.08-.86-.39.35.35-.39-.86-.08.86-.08-.35-.39.39.35.08-.86.08.86.39-.35-.35.39.86.08-.86.08Zm11-13.57-2.76-2.45-.53,6-.54-6-2.76,2.45,2.45-2.77-6-.53,6-.53-2.45-2.76,2.76,2.44.54-6,.53,6,2.76-2.44-2.45,2.76,6,.53-6,.53Zm-7.63-17.65.83.74.16-1.81.16,1.81.84-.74-.74.83,1.8.16-1.8.16.74.84-.84-.74-.16,1.8-.16-1.8-.83.74.74-.84-1.81-.16,1.81-.16ZM160.89,135l.39.35.08-.86.07.86.4-.35-.35.4.86.07-.86.08.35.4-.4-.35-.07.85-.08-.85-.39.35.35-.4-.86-.08.86-.07Zm-.39,14,.4.35.08-.86.07.86.4-.35-.35.39.86.08-.86.08.35.39-.4-.35-.07.86-.08-.86-.4.35.36-.39-.86-.08.86-.08Zm6.94-8.77-.35.39.86.08-.86.08.35.39-.4-.35-.07.86-.08-.86-.4.35.35-.39-.85-.08.85-.08-.35-.39.4.35.08-.86.07.86Zm-3.53-12.35.84.74.16-1.8.16,1.8.83-.74-.74.84,1.81.16-1.81.16.74.83-.83-.74-.16,1.8-.16-1.8-.84.74.74-.83-1.8-.16,1.8-.16Zm.74,25.17-.74-.84.84.74.16-1.8.16,1.8.83-.74-.74.84,1.81.16-1.81.16.74.83-.83-.74-.16,1.81-.16-1.81-.84.74.74-.83-1.8-.16Zm-8.22-44.51.4.35.08-.86.07.86.4-.35-.35.39.86.08-.86.08.35.39-.4-.35-.07.86-.08-.86-.4.35.35-.39-.85-.08.85-.08Zm1.11,14,.35-3.9.34,3.9,1.81-1.6-1.6,1.8,3.9.35-3.9.35,1.6,1.8-1.81-1.6-.34,3.9-.35-3.9-1.81,1.6,1.6-1.8-3.9-.35,3.9-.35-1.6-1.8Zm-5-20.43.4.35.07-.85.08.85.4-.35-.35.4.85.07-.85.08.35.4-.4-.35-.08.85-.07-.85-.4.35.35-.4-.85-.08.85-.07Zm-.61,16.86-.35.39.86.08-.86.08.35.39-.39-.35-.08.86-.08-.86-.39.35.35-.39-.86-.08.86-.08-.35-.39.39.35.08-.86.08.86Zm-2.15-7.73-.39-.35-.08.86-.08-.86-.39.35.35-.4-.86-.07.86-.08-.35-.39.39.35.08-.86.08.86.39-.35-.35.39.86.08-.86.07Zm-.83-8.88.74.83-.84-.73-.16,1.8-.16-1.8-.83.73.74-.83-1.81-.16,1.81-.16-.74-.83.83.73.16-1.8.16,1.8.84-.73L149,102l1.8.16Zm-5.17-7.08-.4-.35-.07.85-.08-.85-.4.35.36-.4-.86-.08.86-.07-.36-.4.4.35.08-.86.07.86.4-.35-.35.4.86.07-.86.08Zm-.58,8.76-.4-.35-.08.85-.07-.85-.4.35.35-.4-.86-.08.86-.07-.35-.4.4.35.07-.86.08.86.4-.35-.36.4.86.07-.86.08Zm-2.54-17.59,2.45,2.77-2.77-2.45-.53,6-.53-6-2.76,2.45L139,86.42l-6-.53,6-.53-2.44-2.76,2.76,2.45.53-6,.53,6,2.77-2.45-2.45,2.76,6,.53Zm-2.39,9.35-.83-.74-.16,1.8-.16-1.8-.83.74.73-.84-1.8-.16,1.8-.16-.73-.83.83.74.16-1.8.16,1.8.83-.74-.73.83,1.8.16-1.8.16Zm-2.07,5.47-.4-.35-.07.85-.08-.85-.4.35.36-.4-.86-.07.86-.08-.36-.4.4.35.08-.85.07.85.4-.35-.35.4.86.08-.86.07Zm-2.5-8.9-.4-.35-.07.86-.08-.86-.4.35.36-.39-.86-.08.86-.07-.36-.4.4.35.08-.86.07.86.4-.35-.35.4.86.07-.86.08Zm-1.77-16.5-.84-.73-.16,1.8-.16-1.8-.83.73.74-.83-1.81-.16,1.81-.16-.74-.83.83.73.16-1.8.16,1.8.84-.73-.74.83,1.8.16-1.8.16Zm-.67,11.08-.4-.35-.07.86-.08-.86-.4.35.35-.39-.85-.08.85-.08-.35-.39.4.35.08-.86.07.86.4-.35-.35.39.86.08-.86.08ZM130,96.43l-.4-.35-.07.86-.08-.86-.4.35.35-.39L128.5,96l.85-.08-.35-.39.4.35.08-.86.07.86.4-.35-.35.39.86.08-.86.08Zm-3.79-5.54,1.8-.16-.74-.83.84.74.16-1.81.16,1.81.83-.74-.74.83,1.81.16-1.81.16.74.84-.83-.74-.16,1.8-.16-1.8-.84.74.74-.84ZM125.65,89l-.84-.74-.16,1.8-.16-1.8-.83.74.74-.84L122.59,88l1.81-.16-.74-.83.83.74.16-1.81.16,1.81.84-.74-.74.83,1.8.16-1.8.16ZM121,88.33,120.6,88l-.08.85-.08-.85-.39.35.35-.4-.86-.08.86-.07-.35-.4.39.35.08-.86.08.86.39-.35-.35.4.86.07-.86.08Zm.16-5.77-1.8,1.6,1.6-1.8-2.38-.22.07.83.4-.35-.36.39.86.08-.86.07.36.4-.4-.35-.08.86-.07-.86-.4.35.35-.4-.86-.07.86-.08-.35-.39.4.35.07-.83L117.05,82l3.9-.35-1.6-1.8,1.8,1.6.35-3.9.35,3.9,1.8-1.6-1.6,1.8L126,82l-3.9.35,1.6,1.8-1.8-1.6-.35,3.9Zm-4.31,2.94-.84-.74-.16,1.8-.16-1.8-.83.74.74-.84-1.8-.16,1.8-.16-.74-.83.83.74.16-1.81.16,1.81.84-.74-.74.83,1.8.16-1.8.16Zm-3.85.87-.4-.35-.07.85-.08-.85-.4.35.35-.4-.85-.08.85-.07-.35-.4.4.35.08-.86.07.86.4-.35-.35.4.86.07-.86.08Zm-.2-5,.74-.84-1.8-.16,1.8-.16-.74-.83.84.74.16-1.8.16,1.8.83-.74-.74.83,1.8.16-1.8.16.74.84-.83-.74-.16,1.8-.16-1.8ZM128.48,81l.84.74.16-1.8.16,1.8.83-.74-.74.84,1.81.16-1.81.16.74.83-.83-.74-.16,1.81-.16-1.81-.84.74.74-.83-1.8-.16,1.8-.16Zm16.9-6.63.4.35.07-.86.08.86.4-.35-.35.39.85.08-.85.08.35.39-.4-.35-.08.86-.07-.86-.4.35.35-.39-.86-.08.86-.08Zm4.45,11.71.39.35.08-.86.08.86.39-.35-.35.39.86.08-.86.08.35.39-.39-.35-.08.86-.08-.86-.39.35.35-.39-.86-.08.86-.08Zm-9.44-16.76a40.42,40.42,0,0,0-19.92,1.81c-.74.34-12.85,6-17.18,17.2a19.25,19.25,0,0,1,2-.51l-.08-.83-.39.35.35-.4-.86-.08.86-.07-.35-.4.39.35.08-.85.08.85.39-.35-.35.4.86.07-.86.08.35.4-.39-.35-.08.82A22.65,22.65,0,0,1,129.25,98a38,38,0,0,1,3.42,1.83l-.13-1.49-.83.74.73-.84-1.8-.16,1.8-.16-.73-.83.83.74L132.7,96l.16,1.81.83-.74-.73.83,1.8.16-1.8.16.73.84-.83-.74-.14,1.52a39.14,39.14,0,0,1,16.71,20.85v0c6.5,16.76,0,39.07-17.3,54.69-17.9,16.13-41.66,20-57.71,10.71,15.17,6,35.47,1.68,51.11-12.42a60.17,60.17,0,0,0,14.22-19c3.7-11.69,3.44-20.63,1.26-27.42l-.68.06.35.4-.39-.35-.08.85-.08-.85-.39.35.35-.4-.86-.08.86-.07-.35-.4.39.35.08-.85.08.85.39-.35-.35.4.67.06c-.28-.87-.59-1.69-.93-2.49l-1.66.15.74.83-.84-.74-.16,1.81L138,125l-.83.74.73-.83-1.46-.13a34.93,34.93,0,0,1-5.4,27.77h0c-7.08,10.69-19.81,18.38-34.87,19.65-20.5,1.73-38.74-9-45-25.06,7.3,13.14,23.42,21.52,41.34,20,16.5-1.39,30.09-10.8,36.05-23.34,3.63-9.24,2.73-16.42.54-21.59a23,23,0,0,1-4.14,4.81c-.13.86-.31,1.74-.52,2.63l.68-.06-.35-.4.39.35.08-.86.08.86.39-.35-.35.4.86.07-.86.08.35.4-.39-.36-.08.86-.08-.86-.39.36.35-.4-.68-.06a32.41,32.41,0,0,1-5,11.13A31.78,31.78,0,0,1,116,145l0,0h0c-8,8.29-20.85,12.66-34.37,10.56-17.48-2.72-30.55-15.38-32.51-30.07C52.56,138,64.33,148.3,79.61,150.67a40.42,40.42,0,0,0,19.92-1.81c.69-.32,11.46-5.37,16.34-15.29l-1.76.16.73.83-.83-.73-.16,1.8-.16-1.8-.83.73.73-.83-1.8-.16,1.8-.16-.73-.83.83.73.08-.95a23.14,23.14,0,0,1-3.75.32l-.43,0,.07.79.4-.35-.35.39.85.08-.85.08.35.39-.4-.35-.08.86-.07-.86-.4.35.35-.39-.86-.08.86-.08-.35-.39.4.35.07-.79a22.77,22.77,0,0,1-3.72-.37l-1.38.12.74.83-.83-.73-.16,1.8-.16-1.8-.84.73.74-.83-1.8-.16,1.8-.16-.28-.32a22.75,22.75,0,0,1-12.4-9l-1.21.11.74.83-.3-.26.16,1.76.83-.74-.74.83,1.8.16-1.8.16.74.84-.83-.74-.16,1.8-.17-1.8-.83.74.74-.84-1.8-.16,1.8-.16-.74-.83.3.26L89.66,123l-.83.73.74-.83-1.81-.16,1.81-.16-.74-.83.83.73.08-.92A39.05,39.05,0,0,1,70.57,99.32v0c-6.5-16.76,0-39.07,17.3-54.69,17.9-16.13,41.66-20,57.71-10.71-15.17-6-35.47-1.68-51.11,12.42a60.17,60.17,0,0,0-14.22,19C75.94,78.9,77,88.79,80.22,95.9l1.1-.1L80.58,95l.83.73.16-1.8.16,1.8.84-.73-.74.83,1.8.16-1.8.16.74.83-.84-.73L81.57,98l-.16-1.8-.73.64a29.74,29.74,0,0,0,7,9.1l0-.09C75.67,84.28,89,67.43,89,67.43h0c7.08-10.69,19.81-18.38,34.87-19.65,20.5-1.73,38.74,9,45,25.06-7.3-13.14-23.42-21.52-41.34-20-16.5,1.39-30.09,10.8-36,23.34-3.64,9.27-2.73,16.46-.52,21.64A22.81,22.81,0,0,1,95,93a32.34,32.34,0,0,1,5.54-13.84A31.78,31.78,0,0,1,104,75l0,0h0c8-8.29,20.85-12.66,34.37-10.56,17.48,2.72,30.55,15.38,32.51,30.07C167.44,82,155.67,71.7,140.39,69.33Zm-29.92,11.9-.39-.35-.08.85-.08-.85-.39.35.35-.4-.86-.07.86-.08-.35-.4.39.35.08-.85.08.85.39-.35-.35.4.86.08-.86.07Zm-.58,3.57-.39-.35-.08.85-.08-.85-.39.35.35-.4-.86-.07.86-.08-.35-.4.39.35.08-.85.08.85.39-.35-.35.4.86.08-.86.07Zm-1.38,1.57-.39-.35-.08.85L108,86l-.39.35.35-.4-.86-.07.86-.08-.35-.4.39.35.08-.85.08.85.39-.35-.35.4.86.08-.86.07ZM79.8,176.22l1.8,1.6.35-3.9.34,3.9,1.81-1.6L82.5,178l3.9.34-3.9.35,1.6,1.8-1.81-1.59-.34,3.9-.35-3.9-1.8,1.59,1.59-1.8-3.9-.35,3.9-.34Zm7.68,6.09.83.74.16-1.8.16,1.8.84-.74-.74.84,1.8.16-1.8.16.74.83-.84-.74-.16,1.81-.16-1.81-.83.74.74-.83-1.81-.16,1.81-.16Zm7.11-8.08.83.73.16-1.8.16,1.8.83-.73-.73.83,1.8.16-1.8.16.73.83-.83-.73-.16,1.8-.16-1.8-.83.73.73-.83-1.8-.16,1.8-.16Zm10,1.6.4.35.08-.86.07.86.4-.35-.35.39.85.08-.85.08.35.39-.4-.35-.07.86-.08-.86-.4.35.35-.39-.85-.08.85-.08Zm4.51,3,.39.36.08-.86.07.86.4-.36-.35.4.86.08-.86.07.35.4-.4-.35-.07.86-.08-.86-.39.35.35-.4-.86-.07.86-.08Zm7.69-11,.83.74.16-1.8.16,1.8.84-.74-.74.84,1.8.16L118,169l.74.83-.84-.74-.16,1.81-.16-1.81-.83.74.74-.83-1.81-.16,1.81-.16Zm6.62,3.56.4.35.07-.85.08.85.4-.35-.36.4.86.08-.86.07.36.4-.4-.35-.08.86-.07-.86-.4.35.35-.4-.86-.07.86-.08Zm6.5-10.32.4.35.08-.85.07.85.4-.35-.35.4.86.08-.86.07.35.4-.4-.35-.07.86-.08-.86-.4.35.35-.4-.85-.07.85-.08Zm5.58-6.77.84.74.16-1.8.16,1.8.83-.74-.74.84,1.81.16-1.81.16.74.83-.83-.74-.16,1.81-.16-1.81-.84.74.74-.83-1.8-.16,1.8-.16Zm3.23-21,.83.74.16-1.8.17,1.8.83-.74-.74.84,1.8.16-1.8.16.74.83-.83-.74-.17,1.81-.16-1.81-.83.74.74-.83-1.8-.16,1.8-.16ZM56.26,147.15l.83.74.16-1.8.16,1.8.84-.74-.74.83,1.8.16-1.8.17.74.83-.84-.74-.16,1.8-.16-1.8-.83.74.74-.83-1.8-.17L57,148Zm19.16,13.92.84.74.16-1.81.16,1.81.83-.74-.74.83,1.81.16-1.81.16.74.84-.83-.74-.16,1.8-.16-1.8-.84.74.74-.84-1.8-.16,1.8-.16Zm13.24-3.62.84.74.16-1.8.16,1.8.83-.74-.74.84,1.8.16-1.8.16.74.83-.83-.74-.16,1.8-.16-1.8-.84.74.74-.83-1.8-.16,1.8-.16Zm22-2.3.84.74.16-1.8.16,1.8.83-.74-.74.84,1.81.16-1.81.16.74.83-.83-.74-.16,1.81-.16-1.81-.84.74.74-.83-1.8-.16,1.8-.16Zm10.88-15,.83.74.16-1.8.16,1.8.83-.74-.73.83,1.8.16-1.8.16.73.84-.83-.74-.16,1.8-.16-1.8-.83.74.73-.84-1.8-.16,1.8-.16Zm2.58-3.38.39.35.08-.85.08.85.39-.35-.35.4.86.08-.86.07.35.4-.39-.35-.08.86-.08-.86-.39.35.35-.4-.86-.07.86-.08Zm2.24-4.58.84.74.16-1.8.16,1.8.83-.74-.73.84,1.8.16-1.8.16.73.83-.83-.74-.16,1.81-.16-1.81-.84.74.74-.83-1.8-.16,1.8-.16Zm.91-5.91.84.74.16-1.8.16,1.8.83-.74-.74.83,1.81.16-1.81.17.74.83-.83-.74-.16,1.8-.16-1.8-.84.74.74-.83-1.8-.17,1.8-.16Zm2.62,5.15-.4-.35-.07.86-.08-.86-.4.35.36-.4-.86-.07.86-.08-.36-.4.4.36.08-.86.07.86.4-.36-.35.4.86.08-.86.07ZM71.39,112l.84.74.16-1.8.16,1.8.83-.74-.74.83,1.81.16-1.81.16.74.84-.83-.74-.16,1.8-.16-1.8-.84.74.74-.84-1.8-.16,1.8-.16Zm.52-4.46.4.35.08-.85.07.85.4-.35-.35.4.86.07-.86.08.35.4-.4-.35-.07.85-.08-.85-.4.35.36-.4-.86-.08.86-.07ZM75,122.4l.84.74.16-1.8.16,1.8.83-.74-.74.83,1.81.16-1.81.16.74.84-.83-.74-.16,1.8-.16-1.8-.84.74.74-.84-1.8-.16,1.8-.16ZM76.16,117l.4.35.07-.86.08.86.4-.35-.35.4.85.07-.85.08.35.4-.4-.35-.08.85-.07-.85-.4.35.35-.4-.86-.08.86-.07Zm5.58,2,.84.74.16-1.8.16,1.8.83-.74-.74.84,1.6.14.66-.06-.35-.4.4.36.07-.86.08.86.4-.36-.36.4.86.08-.86.07.36.4-.4-.35-.08.86-.07-.86-.4.35.35-.4-.65,0L83,120.2l.74.83-.83-.74-.16,1.81-.16-1.81-.84.74.74-.83-1.8-.16,1.8-.16Zm4.86,5.61.4.35.07-.85.08.85.4-.35-.36.4.86.08-.86.07.36.4-.4-.35-.08.86-.07-.86-.4.35.35-.4-.86-.07.86-.08Zm2.63,3.71-.86.07.35.4-.39-.35-.08.86-.08-.86-.39.35.35-.4-.86-.07.86-.08-.35-.39.39.35.08-.86.08.86.39-.35-.35.39Zm3,3.89-1.81.16.74.83-.83-.73-.16,1.8-.16-1.8-.84.73.74-.83-1.8-.16,1.8-.16-.74-.83L90,132l.16-1.8.16,1.8.83-.73-.74.83Zm.14-5.34.39.35.08-.86.08.86.39-.35-.35.39.86.08-.86.07.35.4-.39-.35-.08.86-.08-.86-.39.35.35-.4-.86-.07.86-.08Zm1.29,3.51-.73-.83.83.74.16-1.8.16,1.8.83-.74-.73.83,1.8.16-1.8.16.73.84-.83-.74-.16,1.8-.16-1.8-.83.74.73-.84-1.8-.16Zm2.4-1.56.4.36.07-.86.08.86.39-.36-.35.4.86.08-.86.07.35.4-.39-.35-.08.86-.07-.86-.4.35.35-.4-.86-.07.86-.08ZM100,136.7l-3.89.35,1.59,1.8-1.8-1.59-.35,3.89-.34-3.89-1.81,1.59,1.6-1.8-3.9-.35,3.9-.34-1.6-1.81,1.81,1.6.34-3.9.35,3.9,1.8-1.6-1.59,1.81Zm-1.6-6.22.39.35.08-.86.08.86.39-.35-.35.39.86.08L99,131l.35.39-.39-.35-.08.86-.08-.86-.39.35.35-.39-.86-.08.86-.08Zm2.58,3.36-.85.07.35.4-.4-.35-.08.86L100,134l-.4.35.35-.4-.85-.07.85-.08-.35-.4.4.35.07-.85.08.85.4-.35-.35.4ZM87.39,146.6l-.83-.74-.16,1.81-.16-1.81-.84.74.74-.83-1.8-.16,1.8-.16-.74-.84.84.74.16-1.8.16,1.8.83-.74-.74.84,1.81.16-1.81.16Zm-5.82-21.15,1.8-.16-.73-.83.83.74.16-1.81.16,1.81.83-.74-.73.83,1.8.16-1.8.16.73.84-.83-.74-.16,1.8-.16-1.8-.83.74.73-.84ZM85,130.11l-.35-.39.4.35.07-.86.08.86.4-.35-.35.39.85.08-.85.08.35.39-.4-.35-.08.86-.07-.86-.4.35.35-.39-.86-.08Zm-4.2.93-2.45,2.76,6,.53-6,.53,2.45,2.77L78,135.18l-.53,6-.53-6-2.76,2.45,2.45-2.77-6-.53,6-.53L74.2,131,77,133.48l.53-6,.53,6Zm22.81,6,.84.74.16-1.8.16,1.8.83-.74-.74.84,1.81.16-1.81.16.74.83-.83-.74-.16,1.81-.16-1.81-.84.74.74-.83-1.8-.16,1.8-.16Zm2.93-1.22.4.36.07-.86.08.86.4-.36-.35.4.85.08-.85.07.35.4-.4-.35-.08.86-.07-.86-.4.35.35-.4-.86-.07.86-.08Zm3.14,1.22.83.74.16-1.8.16,1.8.84-.74-.74.84,1.8.16-1.8.16.74.83-.84-.74-.16,1.81-.16-1.81-.83.74.74-.83L108.6,138l1.81-.16ZM142,43.35l-1.8-1.6-.35,3.9-.34-3.9-1.81,1.6,1.6-1.81-3.9-.34,3.9-.35-1.6-1.8,1.81,1.59.34-3.9.35,3.9,1.8-1.59-1.59,1.8,3.89.35-3.89.34Zm-9.76-8.68-.4-.35-.08.86-.07-.86-.4.35.35-.39-.86-.08.86-.07-.35-.4.4.35.07-.86.08.86.4-.35-.36.4.86.07-.86.08Zm-1.84,9.91-.83-.74-.16,1.81-.16-1.81-.84.74.74-.83-1.8-.16,1.8-.16-.74-.84.84.74.16-1.8.16,1.8.83-.74-.74.84,1.8.16-1.8.16Zm-14.86-5.3-.84-.74-.16,1.8-.16-1.8-.83.74.74-.83-1.81-.16,1.81-.16-.74-.84.83.74.16-1.8.16,1.8.84-.74-.74.84,1.8.16-1.8.16Zm-2.26,6.63-.4-.35-.07.86-.08-.86-.4.35.35-.4-.85-.07.85-.08-.35-.4.4.35.08-.85.07.85.4-.35-.35.4.86.08-.86.07Zm-9.64,3.4-1.8-1.6-.35,3.9-.34-3.9-1.81,1.6,1.6-1.8L97,47.16l3.9-.35L99.31,45l1.81,1.6.34-3.9.35,3.9,1.8-1.6L102,46.81l3.89.35-3.89.35ZM97,53l-.83-.74L96,54l-.16-1.8L95,53l.74-.84L93.94,52l1.8-.16L95,51l.84.74L96,49.92l.16,1.81L97,51l-.74.83,1.81.16-1.81.16Zm-5.22,4.11-.4-.36-.07.86-.08-.86-.4.36.35-.4-.85-.08.85-.07-.35-.4.4.35.08-.86.07.86.4-.35-.35.4.85.07-.85.08ZM88.1,66l-.83-.74L87.11,67l-.17-1.8-.83.74.74-.84L85.05,65l1.8-.16L86.11,64l.83.74.17-1.81.16,1.81L88.1,64l-.74.83,1.8.16-1.8.16Zm-3.31,5.16-.4-.35-.07.86-.08-.86-.4.35.35-.39-.85-.08.85-.08-.35-.39.4.35.08-.86.07.86.4-.35-.35.39.86.08-.86.08ZM82.79,92l-.86.08.35.39-.39-.35-.08.86-.08-.86-.39.35.35-.39L80.83,92l.86-.07-.35-.4.39.35.08-.86.08.86.39-.35-.35.4ZM80,89.5l-.4-.36-.08.86-.07-.86-.4.36.35-.4L78.53,89l.86-.07-.35-.4.4.35.07-.86.08.86.4-.35-.35.4.85.07-.85.08Zm0-7-.4-.35-.08.86-.07-.86-.4.35.35-.39L78.53,82l.86-.08L79,81.54l.4.35.07-.86.08.86.4-.35-.35.39.85.08-.85.08Zm74.59-16-.4-.35-.07.86-.08-.86-.39.35.35-.4-.86-.07.86-.08-.35-.4.39.35.08-.85.07.85.4-.35-.35.4.86.08-.86.07Zm-12.37-8.56-.84-.73-.16,1.8-.16-1.8-.83.73.74-.83-1.8-.16,1.8-.16-.74-.83.83.73.16-1.8.16,1.8.84-.73-.74.83,1.8.16-1.8.16Zm-7.35,1.21-.39-.35-.08.86-.08-.86-.39.35.35-.39-.86-.08.86-.08-.35-.39.39.35.08-.86.08.86.39-.35-.35.39.86.08-.86.08Zm-7-1.53-.83-.74-.17,1.8-.16-1.8-.83.74.74-.84-1.8-.16,1.8-.16-.74-.83.83.74.16-1.81.17,1.81.83-.74-.74.83,1.8.16-1.8.16ZM119,59.85l-.4-.35-.08.86-.07-.86-.4.35.35-.4-.86-.07.86-.08-.35-.39.4.35.07-.86.08.86.4-.35-.36.39.86.08-.86.07ZM113.77,67l-.83-.74-.16,1.81-.16-1.81-.84.74.74-.83-1.8-.16,1.8-.16-.74-.84.84.74.16-1.8.16,1.8.83-.74-.74.84,1.8.16-1.8.16Zm-3.3-5.21-.39-.35-.08.86-.08-.86-.39.35.35-.4-.86-.07.86-.08-.35-.4.39.36.08-.86.08.86.39-.36-.35.4.86.08-.86.07Zm-7.54,11.45-.39-.35-.08.86-.07-.86-.4.35.35-.39-.86-.08.86-.07-.35-.4.4.35.07-.86.08.86.39-.35-.35.4.86.07-.86.08ZM98.66,78.8l-.39-.35-.08.85-.08-.85-.39.35.35-.4-.86-.07.86-.08-.35-.4.39.35.08-.85.08.85.39-.35-.35.4.86.08-.86.07Zm.39-5.88-.83-.74L98.06,74l-.16-1.8-.84.74.74-.83L96,71.93l1.8-.16-.74-.84.84.74.16-1.8.16,1.8.83-.74-.74.84,1.8.16-1.8.16ZM95.43,87.77,94.59,87l-.16,1.8L94.27,87l-.83.74.74-.83-1.81-.16,1.81-.17-.74-.83.83.74.16-1.8.16,1.8.84-.74-.74.83,1.8.17-1.8.16Zm-2.06,4.12-.84-.74L92.37,93l-.16-1.8-.83.74.74-.84-1.8-.16,1.8-.16-.74-.83.83.74.16-1.81.16,1.81.84-.74-.74.83,1.8.16-1.8.16Zm-2.55-6.47.4.35.08-.86.07.86.4-.35-.35.4.85.07-.85.08.35.4-.4-.35-.07.85L91.22,86l-.4.35.35-.4-.85-.08.85-.07Zm2.06-6.92.4.35.07-.86.08.86.4-.35-.35.39.85.08-.85.08.35.39-.4-.35-.08.86-.07-.86-.4.35.35-.39L92.37,79l.86-.08Zm65.69,4.94-.84-.74-.16,1.8-.16-1.8-.83.74.74-.84-1.8-.16,1.8-.16-.74-.83.83.74.16-1.81.16,1.81.84-.74-.74.83,1.8.16-1.8.16Zm3.22,6.41.86-.07-.35-.4.4.35.07-.86.08.86.4-.35-.36.4.86.07-.86.08.36.4-.4-.35-.08.85L162.7,90l-.4.35.35-.4Zm3.6,10.63-.83-.74-.16,1.8-.16-1.8-.84.74.74-.83-1.8-.16,1.8-.16-.74-.84.84.74.16-1.8.16,1.8.83-.74-.74.84,1.8.16-1.8.16Zm12.1,8.58-2.77-2.45-.53,6-.53-6-2.76,2.45,2.44-2.76-6-.53,6-.54-2.44-2.76,2.76,2.45.53-6,.53,6,2.77-2.45L175,105.23l6,.54-6,.53Zm-.05-16.72.39.35.08-.85.08.85.39-.35-.35.4.86.08-.86.07.35.4-.39-.35-.08.85-.08-.85-.39.35.35-.4-.86-.07.86-.08Zm4.05,23.21-.4-.35-.08.86-.07-.86-.4.35.35-.39-.86-.08.86-.08-.35-.39.4.35.07-.86.08.86.4-.35-.35.39.85.08-.85.08Zm-6.07-32.47,11.28-1-4.62-5.21,5.21,4.61,1-11.27,1,11.27,5.21-4.61-4.61,5.21,11.27,1-11.27,1,4.61,5.21-5.21-4.61L188.3,96l-1-11.27-5.21,4.61,4.62-5.21Zm15.11,27.15-.39-.35-.08.86-.08-.86-.39.35.35-.39-.86-.08.86-.08-.35-.39.39.35.08-.86.08.86.39-.35-.35.39.86.08-.86.08Zm-5.12,31.17-.4-.35-.07.86-.08-.86-.4.35.35-.4-.85-.07.85-.08-.35-.39.4.35.08-.86.07.86.4-.35-.35.39.86.08-.86.07Zm.52-14.62-.83-.74-.16,1.81-.16-1.81-.84.74.74-.83-1.8-.16,1.8-.16-.74-.84.84.74.16-1.8.16,1.8.83-.74-.74.84,1.8.16-1.8.16Zm4.14,33.67-.83-.74-.16,1.8-.16-1.8-.83.74.73-.84-1.8-.16,1.8-.16-.73-.83.83.74.16-1.81.16,1.81.83-.74-.73.83,1.8.16-1.8.16Zm7.12-13.95-.39-.35-.08.86-.08-.86-.39.35.35-.39-.86-.08.86-.07-.35-.4.39.35.08-.86.08.86.39-.35-.35.4.86.07-.86.08Zm2-9.1L196.43,135l-.53,6-.53-6-2.76,2.45,2.44-2.76-6-.53,6-.53-2.44-2.77,2.76,2.45.53-6,.53,6,2.77-2.45-2.45,2.77,6,.53-6,.53Zm5.36-11.64-.83-.74-.16,1.81-.16-1.81-.84.74.74-.83-1.8-.16,1.8-.16-.74-.84.84.74.16-1.8.16,1.8.83-.74-.74.84,1.8.16-1.8.16Z" transform="translate(-10 -10)"/>
      <path d="M136,120.61l-.35-.4.4.35.07-.85.08.85.4-.35-.36.4.86.07-.86.08.36.4-.4-.35-.08.85-.07-.85-.4.35.35-.4-.73-.06a37.21,37.21,0,0,1,1.18,4l1.47-.13-.73-.84.83.74.16-1.8.16,1.8.84-.74-.74.84,1.65.15a29.55,29.55,0,0,0-7.73-10.68s0,.08,0,.12a41.88,41.88,0,0,1,2.92,6.47Z" transform="translate(-10 -10)"/>
    </g>
    <g>
      <path d="M110,92.72A17.28,17.28,0,1,0,127.31,110,17.28,17.28,0,0,0,110,92.72Zm0,32.85A15.57,15.57,0,1,1,125.59,110,15.57,15.57,0,0,1,110,125.57Z" transform="translate(-10 -10)"/>
      <circle cx="110.02" cy="110" r="14.04" transform="translate(-35.5 23.58) rotate(-15.58)"/>
    </g>
  </g>
</svg>
