<svg id="Layer_1" data-name="Layer 1" xmlns="http://www.w3.org/2000/svg" viewBox="0 0 200 200">
  <g>
    <path d="M106.23,144.37H105A6.64,6.64,0,0,0,98.34,151v17.92h7.89Z" transform="translate(-10 -10)"/>
    <path d="M117.51,168.92V151a6.64,6.64,0,0,0-6.62-6.63h-1.27v24.55Z" transform="translate(-10 -10)"/>
    <rect x="65.93" y="134.37" width="11.65" height="12.2" rx="2.79"/>
    <rect x="118.27" y="134.37" width="11.65" height="12.2" rx="2.79"/>
    <path d="M110,10A100,100,0,1,0,210,110,100,100,0,0,0,110,10Zm92,82,.6.54.12-1.31.12,1.31.6-.54-.53.61,1.31.12-1.31.12.53.6-.6-.54-.12,1.32-.12-1.32-.6.54.53-.6-1.31-.12,1.31-.12Zm-4.67-10.41.61.54.12-1.31.11,1.31.61-.54-.54.61,1.31.11-1.31.12.54.61-.61-.54-.11,1.31L198,82.45l-.61.54.54-.61-1.31-.12,1.31-.11Zm-12.73-25.7.61.53.12-1.31.11,1.31.61-.53-.54.6,1.32.12-1.32.12.54.6-.61-.53-.11,1.31-.12-1.31-.61.53.54-.6-1.31-.12,1.31-.12Zm3.44,11.68-2.34-2.64,2.64,2.34.51-5.71.51,5.71L192,64.88l-2.34,2.64,5.71.51-5.71.51L192,71.18l-2.64-2.34-.51,5.71-.51-5.71-2.64,2.34,2.34-2.64L182.34,68ZM185,83.11l-1.08-1.21L185.1,83l.24-2.62.23,2.62,1.22-1.07-1.08,1.21,2.62.24-2.62.23,1.08,1.21-1.22-1.07-.23,2.62-.24-2.62-1.21,1.07L185,83.58l-2.63-.23Zm-7-8.4.61.54.11-1.31.12,1.31.61-.54-.54.61,1.31.12-1.31.11.54.61-.61-.54-.12,1.32-.11-1.32-.61.54.54-.61-1.31-.11,1.31-.12Zm1.17,24-.61-.54-.11,1.32-.12-1.32-.61.54.54-.61L177,98l1.31-.12-.54-.61.61.54.12-1.31.11,1.31.61-.54-.54.61L180,98l-1.31.11Zm-1.94-11,.11,1.32.61-.54-.54.61,1.31.11-1.31.12L178,90l-.61-.54-.11,1.31-.12-1.31-.61.54.54-.61-1.31-.12,1.31-.11-.54-.61.61.54ZM175.46,64l.12,1.31.6-.54-.53.61,1.31.12-1.31.12.53.6-.6-.54L175.46,67l-.12-1.32-.6.54.53-.6L174,65.45l1.31-.12-.53-.61.6.54Zm3.68,61.2-2.62.23,1.07,1.22-1.21-1.08-.23,2.63-.24-2.63-1.21,1.08,1.07-1.22-2.62-.23,2.62-.23-1.07-1.22,1.21,1.08.24-2.63.23,2.63,1.21-1.08-1.07,1.22Zm-8-84.54.61.53.12-1.31.11,1.31.61-.53-.54.6,1.32.12-1.32.12.54.6-.61-.53-.11,1.31-.12-1.31-.61.53.54-.6-1.31-.12,1.31-.12Zm.36,12.17-1.08-1.21,1.21,1.07.24-2.62.23,2.62,1.22-1.07-1.08,1.21,2.62.23-2.62.24,1.08,1.21-1.22-1.07L171.88,56l-.24-2.62-1.21,1.07,1.08-1.21L168.88,53ZM170.33,97,169.11,96l-.23,2.63L168.65,96,167.43,97l1.08-1.22-2.63-.23,2.63-.24-1.08-1.21,1.22,1.08.23-2.63.23,2.63,1.22-1.08-1.08,1.21,2.63.24-2.63.23Zm-7.6,47.36-1.21-1.07-.24,2.62-.23-2.62-1.21,1.07,1.07-1.21-2.62-.24,2.62-.23-1.07-1.21,1.21,1.07.23-2.62.24,2.62,1.21-1.07-1.07,1.21,2.62.23-2.62.24Zm-.95,10.09-.6-.53-.12,1.31-.12-1.31-.61.53.54-.6-1.31-.12,1.31-.12-.54-.6.61.53.12-1.31.12,1.31.6-.53-.54.6,1.32.12-1.32.12Zm-1.22-24.83.61.53.11-1.31.12,1.31.61-.53-.54.6,1.31.12-1.31.12.54.6-.61-.53-.12,1.31-.11-1.31-.61.53.54-.6-1.32-.12,1.32-.12Zm-.19-14.87,2.34,2.64-2.64-2.34-.51,5.71-.51-5.71-2.64,2.34,2.34-2.64-5.71-.51,5.71-.51-2.34-2.64,2.64,2.34.51-5.71.51,5.71,2.64-2.34-2.34,2.64,5.71.51ZM150.2,99.61l-.6-.54-.12,1.31-.12-1.31-.6.54.53-.61L148,98.88l1.31-.12-.53-.6.6.54.12-1.32.12,1.32.6-.54-.53.6,1.31.12-1.31.12Zm.49-7,1.08-1.22-2.63-.23,2.63-.23-1.08-1.22,1.22,1.08.23-2.63.23,2.63,1.22-1.08L152.51,91l2.63.23-2.63.23,1.08,1.22-1.22-1.08-.23,2.63-.23-2.63ZM150.6,78a.31.31,0,0,1-.44,0l-6.24-6.25a.3.3,0,0,1,0-.44l1.44-1.45a.31.31,0,0,1,.44,0l6.25,6.25a.31.31,0,0,1,0,.44ZM158,100.74l.61.53.11-1.31.12,1.31.61-.53-.54.6,1.31.12-1.31.12.54.6-.61-.53L158.7,103l-.11-1.31-.61.53.54-.6-1.31-.12,1.31-.12Zm4.91-16.62.6.54.12-1.31.12,1.31.6-.54-.53.61,1.31.11L163.8,85l.53.61-.6-.54-.12,1.31L163.49,85l-.6.54.53-.61-1.31-.12,1.31-.11Zm2.16-23.69.61.53.12-1.31L165.9,61l.6-.53L166,61l1.32.12-1.32.12.54.6-.6-.53-.12,1.31-.12-1.31-.61.53.54-.6-1.31-.12,1.31-.12Zm1.85,12.12-1.07-1.22L167,72.41l.24-2.63.23,2.63,1.21-1.08-1.07,1.22,2.62.23-2.62.23,1.07,1.22-1.21-1.08-.23,2.63L167,73.15l-1.21,1.08L166.9,73l-2.62-.23Zm-4.28-20.08.54.61-.61-.54-.12,1.31-.11-1.31-.61.54.54-.61-1.32-.11,1.32-.12-.54-.61.61.54.11-1.31.12,1.31.61-.54-.54.61,1.31.12Zm-9.11-23.56,2.64,2.34.51-5.71.5,5.71,2.65-2.34-2.34,2.64,5.71.51-5.71.51,2.34,2.64-2.65-2.34-.5,5.71-.51-5.71-2.64,2.34,2.34-2.64-5.71-.51,5.71-.51Zm2.08,20.4-1.21-1.08-.24,2.63-.23-2.63-1.21,1.08,1.07-1.22-2.62-.23,2.62-.23-1.07-1.22,1.21,1.08.23-2.63.24,2.63,1.21-1.08-1.07,1.22,2.62.23-2.62.23Zm-6.83,7.47.6.54.12-1.31.12,1.31.6-.54-.53.61,1.31.12-1.31.12.53.6-.6-.54L149.48,59l-.12-1.32-.6.54.53-.6L148,57.51l1.31-.12Zm-3.41,10.61L147.77,65A.87.87,0,0,1,149,65l7.95,8a.88.88,0,0,1,0,1.24l-2.42,2.42a.87.87,0,0,1-1.23,0l-8-8A.86.86,0,0,1,145.35,67.39ZM142.48,44.9l.61.54.12-1.31.11,1.31.61-.54-.54.61,1.32.12-1.32.11.54.61-.61-.54-.11,1.32-.12-1.32-.61.54.54-.61-1.31-.11,1.31-.12Zm.16,26.37,8,8a1.34,1.34,0,0,1,0,1.89L139.57,92.25A39.08,39.08,0,0,1,147,111.48h-4.75A34.55,34.55,0,0,0,107.93,81h0V76.24h0a39.1,39.1,0,0,1,21.47,6.39l11.35-11.36A1.34,1.34,0,0,1,142.64,71.27ZM69.27,110l-.61-.54-.12,1.31-.11-1.31-.61.54.54-.61L67,109.25l1.32-.12-.54-.61.61.54.11-1.31.12,1.31.61-.54-.54.61,1.31.12-1.31.11Zm-2.6-8.24L64,99.39l-.51,5.71L63,99.39l-2.64,2.34,2.34-2.65L57,98.58l5.71-.51-2.34-2.64L63,97.76l.51-5.71L64,97.76l2.64-2.33-2.34,2.64,5.71.51-5.71.5Zm-9.85,58.69-1.21-1.07L55.38,162l-.24-2.62-1.21,1.07L55,159.21,52.38,159l2.62-.23-1.07-1.21,1.21,1.07.24-2.62.23,2.62,1.21-1.07-1.07,1.21,2.62.23-2.62.24Zm-5.1-23.34L50.5,136l-.23,2.62L50,136l-1.22,1.07,1.08-1.21-2.63-.24,2.63-.23-1.08-1.21L50,135.26l.23-2.62.23,2.62,1.22-1.07-1.08,1.21,2.63.23-2.63.24Zm1.6-22,1.22,1.07.23-2.62L55,116.2l1.22-1.07-1.08,1.21,2.63.24-2.63.23L56.22,118,55,117l-.23,2.62L54.54,117,53.32,118l1.08-1.21-2.63-.23,2.63-.24Zm4.4,30-.61-.54L57,145.87l-.12-1.31-.61.54.54-.61-1.31-.12,1.31-.11-.54-.61.61.54.12-1.31.11,1.31.61-.54-.54.61,1.32.11-1.32.12ZM65.6,68.85l1.21,1.08L67,67.3l.24,2.63,1.21-1.08-1.07,1.22L70,70.3l-2.62.24,1.07,1.21-1.21-1.08L67,73.3l-.23-2.63L65.6,71.75l1.07-1.21-2.62-.24,2.62-.23ZM70,115.47a1.2,1.2,0,0,1,1.2-1.2h73.37a1.2,1.2,0,0,1,1.2,1.2v4.85a1.2,1.2,0,0,1-1.2,1.2H71.24a1.2,1.2,0,0,1-1.2-1.2Zm6.25-27.36.61.54L77,87.34l.12,1.31.61-.54-.54.61,1.31.12L77.2,89l.54.61L77.13,89,77,90.34,76.9,89l-.61.54.54-.61-1.31-.11,1.31-.12Zm1-19,.6.54L78,68.28l.12,1.32.6-.54-.53.61,1.31.11-1.31.12.53.61-.6-.54L78,71.28,77.85,70l-.6.54.53-.61-1.31-.12,1.31-.11ZM88.42,75l2.64,2.34.51-5.71.51,5.71L94.72,75l-2.34,2.64,5.71.51-5.71.51,2.34,2.64-2.64-2.34-.51,5.71-.51-5.71-2.64,2.34,2.34-2.64-5.71-.51,5.71-.51Zm19.51,10.72a28.59,28.59,0,0,1,28.45,25.81H79.47A28.6,28.6,0,0,1,107.93,85.67Zm31.63-59.36-.53.61,1.31.12-1.31.11.53.61-.6-.54-.12,1.32-.12-1.32-.6.54.53-.61L137.34,27l1.31-.12-.53-.61.6.54.12-1.31.12,1.31Zm-2.94-7.57.6.54.12-1.32.12,1.32.6-.54-.53.61,1.31.11-1.31.12.53.61-.6-.54L137.34,21l-.12-1.31-.6.54.53-.61-1.31-.12,1.31-.11Zm.53,24.51-.53-.61.6.54.12-1.31.12,1.31.6-.54-.53.61,1.31.11-1.31.12.53.61-.6-.54-.12,1.31-.12-1.31-.6.54.53-.61-1.31-.12ZM134.42,68l-2.63.24,1.08,1.21-1.21-1.07L131.42,71l-.23-2.62L130,69.48l1.08-1.21L128.42,68l2.63-.23L130,66.59l1.22,1.07.23-2.62.24,2.62,1.21-1.07-1.08,1.21Zm-4.94-35.15.24,2.62,1.21-1.08-1.07,1.22,2.62.23-2.62.24,1.07,1.21-1.21-1.08-.24,2.63-.23-2.63L128,37.32l1.07-1.21-2.62-.24,2.62-.23L128,34.42l1.21,1.08Zm-2.87-8.68.6.54.12-1.31.12,1.31.6-.54-.53.61,1.31.12-1.31.11.53.61-.6-.54-.12,1.32-.12-1.32-.6.54.53-.61-1.31-.11,1.31-.12Zm.72,28-5.71.51L124,55.3,121.32,53l-.51,5.71L120.3,53l-2.64,2.34L120,52.66l-5.71-.51,5.71-.51L117.66,49l2.64,2.34.51-5.71.51,5.71L124,49l-2.34,2.64Zm-8.74-12.51.6.54.12-1.31.12,1.31.6-.54-.53.61,1.31.12-1.31.11.53.61-.6-.54-.12,1.32-.12-1.32-.6.54.53-.61-1.31-.11,1.31-.12Zm-.1-22.76L119.71,18l.23-2.63.23,2.63,1.22-1.08-1.08,1.22,2.63.23-2.63.23,1.08,1.22-1.22-1.08-.23,2.63-.23-2.63-1.22,1.08,1.08-1.22-2.63-.23,2.63-.23Zm-6.11,13.37.61.54.11-1.31.12,1.31.61-.54-.54.61,1.31.12-1.31.11.54.61-.61-.54-.12,1.31L113,31.16l-.61.54.54-.61L111.61,31l1.31-.12Zm-3.22,8.62.23,2.62,1.21-1.07-1.07,1.21,2.62.24-2.62.23,1.07,1.21-1.21-1.07-.23,2.62-.24-2.62-1.21,1.07,1.07-1.21-2.62-.23,2.62-.24-1.07-1.21,1.21,1.07Zm-2.67-22.76.61.53.12-1.31.11,1.31.61-.53-.54.6,1.32.12L107.4,17l.54.6-.61-.53-.11,1.31L107.1,17l-.61.53L107,17l-1.31-.12,1.31-.12ZM105,51.63l.61.54.12-1.31.11,1.31.61-.54-.54.61,1.32.12-1.32.11.54.61-.61-.54-.11,1.31-.12-1.31-.61.54.54-.61-1.31-.11,1.31-.12Zm-.3,11.6-2.62.23,1.07,1.22-1.21-1.08-.24,2.63-.23-2.63-1.21,1.08,1.07-1.22-2.62-.23,2.62-.23-1.07-1.22,1.21,1.08.23-2.63.24,2.63,1.21-1.08L102.07,63ZM102.18,36.6l-.6-.54-.12,1.31-.12-1.31-.6.54.53-.61L100,35.87l1.31-.11-.53-.61.6.54.12-1.32.12,1.32.6-.54-.53.61,1.31.11-1.31.12Zm-9.3-14.21,2.65,2.34L96,19l.51,5.71,2.64-2.34L96.85,25l5.71.51-5.71.51,2.33,2.64-2.64-2.34L96,32.06l-.5-5.71-2.65,2.34,2.34-2.64-5.71-.51L95.22,25Zm-6.06,8.26.61.54.11-1.31.12,1.31.61-.54-.54.61,1.31.12-1.31.11.54.61-.61-.54-.12,1.32-.11-1.32-.61.54.54-.61L86,31.38l1.32-.12Zm-5.06,1.41L83,46.36l6.62-5.86-5.86,6.62,14.3,1.27-14.3,1.27,5.86,6.61L83,50.42l-1.27,14.3-1.27-14.3-6.61,5.85,5.85-6.61-14.3-1.27,14.3-1.27L73.88,40.5l6.61,5.86Zm-7.51-9.35.61.53L75,21.93l.12,1.31.61-.53-.54.6,1.31.12-1.31.12.54.6-.61-.53L75,24.93l-.11-1.31-.61.53.54-.6-1.32-.12,1.32-.12Zm.14,10.73-.54-.61.61.54.11-1.31.12,1.31.61-.54-.54.61,1.31.12-1.31.12.54.6-.61-.54-.12,1.32-.11-1.32-.61.54.54-.6-1.31-.12Zm-9.32-2.83,1.21,1.08.24-2.63.23,2.63L68,30.61l-1.07,1.22,2.62.23-2.62.23L68,33.51l-1.21-1.08-.23,2.63-.24-2.63-1.21,1.08,1.07-1.22-2.62-.23,2.62-.23ZM61.3,41.77l.6.54L62,41l.12,1.31.6-.54-.53.61,1.31.12-1.31.11.53.61-.6-.54L62,44l-.12-1.32-.6.54.53-.61-1.31-.11,1.31-.12ZM60,82.62l-.54.61,1.31.12-1.31.11.54.61-.61-.54-.12,1.31-.11-1.31-.61.54.54-.61-1.32-.11,1.32-.12-.54-.61.61.54.11-1.31.12,1.31ZM57,56.21l.61.54.11-1.32.12,1.32.61-.54-.54.61,1.31.11L58,57.05l.54.61-.61-.54-.12,1.31-.11-1.31-.61.54.54-.61-1.31-.12,1.31-.11ZM55.49,107l-.53.61,1.31.12-1.31.11.53.61-.6-.54-.12,1.32-.12-1.32-.6.54.53-.61-1.31-.11,1.31-.12-.53-.61.6.54.12-1.31.12,1.31ZM53.37,64.73,53.48,66l.61-.54-.54.61,1.32.12-1.32.11.54.61-.61-.54-.11,1.32-.12-1.32-.61.54.54-.61-1.31-.11,1.31-.12-.54-.61.61.54Zm-5-21.31,1.22,1.07.23-2.62L50,44.49l1.22-1.07-1.08,1.21,2.63.23-2.63.24,1.08,1.21L50,45.24l-.23,2.62-.23-2.62-1.22,1.07,1.08-1.21-2.63-.24,2.63-.23ZM45.35,76l.51-5.71L46.37,76,49,73.67l-2.34,2.65,5.71.5-5.71.51L49,80l-2.64-2.34-.51,5.72-.51-5.72L42.71,80l2.34-2.64-5.71-.51,5.71-.5-2.34-2.65Zm-.09,24L44.05,99l-.23,2.62L43.58,99,42.37,100l1.07-1.21-2.62-.23,2.62-.24-1.07-1.21,1.21,1.07.24-2.62.23,2.62,1.21-1.07-1.07,1.21,2.62.24-2.62.23ZM43.82,113.4l-.61-.54-.12,1.31L43,112.86l-.61.54.54-.61-1.32-.12,1.32-.11-.54-.61.61.54.11-1.32.12,1.32.61-.54-.54.61,1.31.11-1.31.12ZM37.11,56.45l.61.54.12-1.32L38,57l.61-.54-.54.61,1.32.11L38,57.29l.54.61L38,57.36l-.11,1.31-.12-1.31-.61.54.54-.61-1.31-.12,1.31-.11Zm.18,13.74-.54-.61.61.54.11-1.32.12,1.32.61-.54-.54.61L39,70.3l-1.31.12.54.61-.61-.54-.12,1.31-.11-1.31-.61.54.54-.61L36,70.3ZM32.07,93.45l.61.54.11-1.31L32.91,94l.61-.54-.54.61,1.31.12L33,94.29l.54.61-.61-.54-.12,1.32-.11-1.32-.61.54.54-.61-1.31-.11,1.31-.12ZM26.79,75.38,28,76.46l.23-2.63.24,2.63,1.21-1.08L28.61,76.6l2.62.23-2.62.23,1.07,1.22L28.47,77.2l-.24,2.63L28,77.2l-1.21,1.08,1.07-1.22-2.62-.23,2.62-.23Zm-8.23,22.7,2.64,2.34.51-5.72.51,5.72,2.64-2.34-2.34,2.64,5.71.51-5.71.5,2.34,2.65L22.22,102l-.51,5.71L21.2,102l-2.64,2.34,2.34-2.65-5.71-.5,5.71-.51Zm-.74,17.36-1.08-1.22L18,115.3l.24-2.63.23,2.63,1.22-1.08-1.08,1.22,2.63.23-2.63.23,1.08,1.22L18.42,116l-.23,2.63L18,116l-1.21,1.08,1.08-1.22-2.63-.23Zm1.54,18.39-.61-.54-.11,1.31-.12-1.31-.61.54.54-.61-1.31-.12,1.31-.11-.54-.61.61.54.12-1.32.11,1.32.61-.54-.54.61,1.31.11-1.31.12ZM25.7,152.2l-.61-.53L25,153l-.12-1.31-.61.53.54-.6-1.31-.12,1.31-.12-.54-.6.61.53L25,150l.11,1.31.61-.53-.54.6,1.31.12-1.31.12Zm3.26-10-.61-.54-.12,1.31-.11-1.31-.61.54.54-.61-1.31-.12,1.31-.11-.54-.61.61.54.11-1.31.12,1.31.61-.54-.54.61,1.31.11-1.31.12Zm8.28,12.26L36,153.35,35.79,156l-.23-2.63-1.22,1.08,1.08-1.22L32.79,153l2.63-.23-1.08-1.22,1.22,1.08.23-2.63.23,2.63,1.22-1.08-1.08,1.22,2.63.23-2.63.23ZM34.07,129l-1.28,14.3L31.52,129l-6.61,5.86,5.85-6.62L16.47,127l14.29-1.27-5.85-6.61,6.61,5.85,1.27-14.3,1.28,14.3,6.61-5.85-5.86,6.61L49.12,127l-14.3,1.27,5.86,6.62Zm10.47,33.1-.61-.54-.11,1.31-.12-1.31-.61.54.54-.61-1.31-.11,1.31-.12-.54-.61.61.54.12-1.31.11,1.31.61-.54-.54.61,1.32.12-1.32.11ZM46.21,145l-.12,1.32L46,145l-.6.54.53-.6-1.31-.12,1.31-.12-.53-.61.6.54.12-1.31.12,1.31.6-.54-.53.61,1.31.12-1.31.12.53.6Zm1.06,25.87a1.92,1.92,0,0,1,1.92-1.92H64.87a6.47,6.47,0,0,1-2.77-5.29V134.81a6.49,6.49,0,0,1,6.48-6.48h16v-2a1.2,1.2,0,0,1,1.2-1.2h44.29a1.21,1.21,0,0,1,1.21,1.2v2h16a6.5,6.5,0,0,1,6.49,6.48v28.82a6.47,6.47,0,0,1-2.77,5.29h15.67a1.92,1.92,0,0,1,1.92,1.92Zm120.52-7.58.54.61-.61-.54-.12,1.32-.11-1.32-.61.54.54-.61-1.32-.11,1.32-.12-.54-.61.61.54.11-1.31.12,1.31.61-.54-.54.61,1.31.12ZM170,111.91l-.12-1.31-.6.53.53-.6-1.31-.12,1.31-.12-.53-.6.6.53.12-1.31.12,1.31.6-.53-.53.6,1.31.12-1.31.12.53.6-.6-.53Zm1.51,23.3-.53-.61.6.54.12-1.31.12,1.31.6-.54-.53.61,1.31.11-1.31.12.53.61-.6-.54-.12,1.31-.12-1.31-.6.54.53-.61-1.31-.12ZM173,153l-.6-.53-.12,1.31-.12-1.31-.6.53.53-.6-1.31-.12,1.31-.12-.53-.6.6.53.12-1.31.12,1.31.6-.53-.53.6,1.31.12-1.31.12Zm9.45,7.44-1.22-1.07L181,162l-.23-2.62-1.22,1.07,1.08-1.21L178,159l2.63-.23-1.08-1.21,1.22,1.07L181,156l.23,2.62,1.22-1.07-1.08,1.21L184,159l-2.63.24Zm-2-15.54,2.34,2.64-2.64-2.34-.51,5.72-.51-5.72-2.64,2.34,2.34-2.64-5.71-.51,5.71-.5-2.34-2.65,2.64,2.34.51-5.71.51,5.71,2.64-2.34-2.34,2.65,5.71.5Zm.25-31.33.61.53.11-1.31.12,1.31.61-.53-.54.6,1.31.12-1.31.12.54.6-.61-.53-.12,1.31-.11-1.31-.61.53.54-.6-1.32-.12,1.32-.12Zm7.08,17-.12,1.31-.12-1.31-.6.53.53-.6-1.31-.12,1.31-.12-.53-.6.6.53.12-1.31.12,1.31.6-.53-.53.6,1.31.12-1.31.12.53.6Zm3.4,34-.6-.54-.12,1.31-.12-1.31-.61.54.54-.61L189,163.8l1.31-.11-.54-.61.61.54.12-1.32.12,1.32.6-.54-.54.61,1.32.11-1.32.12Zm0-45.24L189.93,105l-6.61,5.85,5.85-6.61L174.87,103l14.3-1.27-5.85-6.62,6.61,5.86,1.27-14.3,1.27,14.3,6.62-5.86-5.86,6.62,14.3,1.27-14.3,1.27,5.86,6.61L192.47,105Zm4,30.56-.6-.53-.12,1.31-.12-1.31-.6.53.53-.6-1.31-.12,1.31-.12-.53-.6.6.53.12-1.31.12,1.31.6-.53-.53.6,1.31.12-1.31.12Zm3.75-13.8-.61-.54-.12,1.31-.11-1.31-.61.54.54-.61-1.32-.12,1.32-.11-.54-.61.61.54.11-1.31.12,1.31.61-.54-.54.61,1.31.11-1.31.12Zm-1.1-13.25,1.07,1.22-1.21-1.08-.23,2.63-.24-2.63L196,124l1.07-1.22-2.62-.23,2.62-.23L196,121.12l1.21,1.08.24-2.63.23,2.63,1.21-1.08-1.07,1.22,2.62.23Zm7.73-9.31L205,113l-.12,1.31-.11-1.31-.61.53.54-.6-1.32-.12,1.32-.12-.54-.6.61.53.11-1.31.12,1.31.61-.53-.54.6,1.31.12-1.31.12Z" transform="translate(-10 -10)"/>
  </g>
</svg>
