<svg id="Layer_1" data-name="Layer 1" xmlns="http://www.w3.org/2000/svg" viewBox="0 0 200 200">
  <g>
    <path d="M111.3,72.41c1.07-.13,2.09-.45,3.17.19a1.38,1.38,0,0,0,1.52-.31,36.26,36.26,0,0,0-5.88-.34c0,.17,0,.31.09.33A2.42,2.42,0,0,0,111.3,72.41Z" transform="translate(-10 -10)"/>
    <path d="M110.38,109.56c.84.56,2.45-.82,3.47-2.74Z" transform="translate(-10 -10)"/>
    <path d="M115.39,113.72c-.4-.41-.8-.81-1.17-1.17a4.52,4.52,0,0,0-.64,1.53c-.07,1-.3,2.67.2,3,1.8,1.1,1.67,2.74,1.92,4.37,0,.33.55.59,1.06,1.1-.11.59.28,1.23,1.32,1.38,1.23.18,2.45.43,3.69.52,1,.08,2.1-.05,3.15-.05.72,0,1.66-.19,2.09.18a15.22,15.22,0,0,1,2.34,2.93c1,1.47,1.92,3,3,4.47.52.75,1.24,1.36,1.82,2.07s1.36.8,2,.32a12.34,12.34,0,0,0-.5-2.07c-.71-1.58-1-3.13.13-4.61.62-.84.56-1.49-.3-2a5.82,5.82,0,0,0,1.38-5.63,4.05,4.05,0,0,1,.51-3.41,4,4,0,0,0,.59-3.73,20.61,20.61,0,0,1-1.09-6.56c0-.48-.71-1.41-1.07-1.4a6.15,6.15,0,0,0-2.39.83c-.63.32-1.14,1.12-1.74,1.17-1.08.09-1.69.44-1.82,1.66-1-1.39-1.09-.35-1.29.41-1.08-2.36-2.69-2.59-4.56-.9a4.38,4.38,0,0,1-1.73.64,10.53,10.53,0,0,1-2.39.47c-.52,0-1.17-.32-1.26.41-.15,1.22-1.22,1.51-2,1.67C115,111.61,115,112.45,115.39,113.72Z" transform="translate(-10 -10)"/>
    <path d="M121.67,73.83l-1.75,1.75c2,.13,3.09,2.24,5.55.93l-2.11-2.36a35.91,35.91,0,0,0-6.27-1.69,6.42,6.42,0,0,0,.28.58Z" transform="translate(-10 -10)"/>
    <path d="M130.25,84.86c.31.54,1.06.83,1.56,1.27a10.74,10.74,0,0,1,2,1.92A3.71,3.71,0,0,0,136.52,90a15.7,15.7,0,0,1,3.34,1.31l1.42-3a37.55,37.55,0,0,0-15.12-13c.21.41,0,1.28,0,1.91C127.43,79.69,128.79,82.31,130.25,84.86Z" transform="translate(-10 -10)"/>
    <path d="M103.68,113.33l5.11-2.85-.24-.31a22.51,22.51,0,0,0-2.47,1c-.93.51-1.78,1.17-2.66,1.76Z" transform="translate(-10 -10)"/>
    <path d="M77.76,94.54c.36-.12.88-.14,1.06-.39a10.64,10.64,0,0,0,1.39-2.48c.08-.21-.57-.7-.89-1.08l-.57.57c-.36.66-.69,1.33-1,2l.08-.11.39.28c-.18.3-.37.59-.56.89Z" transform="translate(-10 -10)"/>
    <path d="M102.14,90.62,104.59,89c-.79-1-1.69-.52-2.41,0C101.94,89.14,102.14,90,102.14,90.62Z" transform="translate(-10 -10)"/>
    <path d="M83.18,84.93l-.53.45c-.17.21-.34.41-.5.62A7.45,7.45,0,0,0,83.18,84.93Z" transform="translate(-10 -10)"/>
    <path d="M76.49,110.28a18.63,18.63,0,0,0,2.91,1.89l-.2.34-1.72-.84c1.66.88,2,2.5,2.53,4A6.36,6.36,0,0,0,85.29,120a3.91,3.91,0,0,1,1.59.77,10.69,10.69,0,0,0,5.91,2.09l-5.52-2.37.09-.45c.28-.06.58-.22.81-.15,2,.59,4.08,1.2,6.09,1.86a7,7,0,0,1,1.37.8,3.15,3.15,0,0,0,.33.22c1,.36,5.1-1,5.81-1.86a3.07,3.07,0,0,1,1.26-.75c1.1-.4,2.22-.76,3.36-1.06a2.3,2.3,0,0,1,1.35,0,4.51,4.51,0,0,0,3.83-.61c.59-.31.86-1.19,1.21-2l-1.37,1.13c-.85.69-1.68,1-2.6,0-1.74-1.72-1.76-1.7-3.5.07a3.82,3.82,0,0,1-.46.33c-.59-1-1.16-2-1.79-3-.73.44-1.31.83-.86,1.93a1.86,1.86,0,0,1-2.11,2.61,4.24,4.24,0,0,1-3.23-2.21c-.54-1-1.77-1.93-.78-3.13s1.87-2.91,3.14-4.07a2.19,2.19,0,0,1,3.08-.27c.42.3,1.11.22,1.68.32,0-.13.1-.25.16-.37-.56-.35-1.08-.75-1.66-1a2.47,2.47,0,0,1-1.55-3,4.85,4.85,0,0,1,.09-.55c.37-1.24.71-2.47-1-2.68,0-.87-.09-1.55-.1-2.24a1.73,1.73,0,0,1,.11-.89,1.36,1.36,0,0,0,0-1.87c-.46-.59.6-3.08,1.51-3.77-.07.42-.14.78-.21,1.15l.28.09c.31-.76.62-1.52,1-2.45-1.74,1.23-2.31,1.18-3.47-.49-.43,1.36-.78,2.46-1.1,3.43a3.72,3.72,0,0,1,.42-3.58c.91-1.21,1.79-2.44,2.73-3.71-1.57-1.26-1.94-.09-2.65,1,.06-.72.08-1,.09-1.16l-4.67-.29c-.1.58,0,1.48-.32,1.61-.45.21-1.14-.11-1.72-.19a3.17,3.17,0,0,0-3.3,1.59c.78.6,1.6,1.16,2.34,1.83.35.31.8.9.71,1.23-.23.84.17,1.23.67,1.76.29.3.32.85.47,1.29a4.6,4.6,0,0,1-1.52,0c-.41-.12-.73-.57-1.09-.88-1.29.55-2.6,1.12-3.91,1.66a1.83,1.83,0,0,1-2-1.5c0-1.44.25-2.88.39-4.3l-.41,0C86,89.55,86,89.15,84.5,88c1.06-1.47,1.06-1.47,3.58-1.32l-.26,2.27a17,17,0,0,0,2.69-.83c.59-.29,1-1,1.77-1.72l-2.76-.2c0-.13,0-.25,0-.38l1.58-.42c0-.31,0-.66,0-1.15a11.15,11.15,0,0,1-1.52.5c-.54.07-1.11-.07-1.64,0a11.36,11.36,0,0,0-2.25.54,12.37,12.37,0,0,0-2.71,1.32,1,1,0,0,0,.27,1.78c1.42.15,1.16,1,1.09,2.06l-2.86-1.18c.35,1,.66,1.87,1,2.74l-.36.18-.45-.77a13.37,13.37,0,0,1-1,2A5.1,5.1,0,0,1,79,95a6.92,6.92,0,0,1-2.18.41,36.48,36.48,0,0,0-2.43,12A19,19,0,0,0,76.49,110.28Z" transform="translate(-10 -10)"/>
    <path d="M90.65,80.82a1,1,0,0,1,1.67.8c0,.15.5.38.75.37,2.27-.08,4.69,1,6.77-1a11.38,11.38,0,0,1-1.46-.85,4,4,0,0,1-1.45-3.76c0-.23-.69-.48-1.17-.57l-.25-.38a36.3,36.3,0,0,0-9.23,6.18,6,6,0,0,1,1.32-.43C88.59,80.94,89.62,81.5,90.65,80.82Z" transform="translate(-10 -10)"/>
    <path d="M102.64,74.53c0-.17,0-.33.08-.5-.44-.09-1-.39-1.27-.23s-.57.79-.83,1.21l.35.3Z" transform="translate(-10 -10)"/>
    <path d="M110,10A100,100,0,1,0,210,110,100,100,0,0,0,110,10Zm90.71,90,.15-1.66L201,100l.77-.68-.68.76,1.66.15-1.66.15.68.76-.77-.67-.14,1.65-.15-1.65-.77.67.68-.76-1.65-.15,1.65-.15-.68-.76Zm.11,16.87-.76-.68-.15,1.66-.15-1.66-.76.68.68-.77L198,116l1.66-.15-.68-.76.76.67.15-1.65.15,1.65.76-.67-.67.76,1.65.15-1.65.14Zm-7.91-29.33.5-5.69.51,5.69,2.63-2.33-2.33,2.63,5.69.51-5.69.5,2.33,2.63-2.63-2.33-.51,5.69-.5-5.69-2.64,2.33,2.33-2.63-5.69-.5,5.69-.51-2.33-2.63Zm.53,37.22-.76-.68-.15,1.66-.15-1.66-.76.68.67-.76-1.65-.15,1.65-.15-.67-.76.76.67.15-1.65.15,1.65.76-.67-.68.76,1.66.15-1.66.15ZM186.15,77.6l.68.77-.77-.68-.14,1.65-.15-1.65-.77.68.68-.77L184,77.45l1.65-.14-.68-.77.77.68.15-1.65.14,1.65.77-.68-.68.77,1.66.14ZM184,113.8l-1.72-1.52L182,116l-.33-3.71-1.71,1.52,1.52-1.72-3.71-.33,3.71-.33-1.52-1.71,1.71,1.51.33-3.7.33,3.7,1.72-1.51-1.52,1.71,3.71.33-3.71.33ZM177,121l-.77-.67-.15,1.65-.14-1.65-.77.67.68-.76-1.66-.15,1.66-.14-.68-.77.77.68.14-1.66.15,1.66.77-.68-.68.77,1.65.14-1.65.15Zm8.45-23.34-.77-.67-.14,1.65L184.42,97l-.77.67.68-.76-1.65-.15,1.65-.14-.68-.77.77.68.15-1.66.14,1.66.77-.68-.68.77,1.65.14-1.65.15Zm-4.85-33.74,1.72,1.52.33-3.71.33,3.71,1.71-1.52-1.52,1.72,3.71.33-3.71.33L184.72,68,183,66.51l-.33,3.7-.33-3.7L180.63,68l1.52-1.71L178.44,66l3.71-.33Zm-5.53-4.46-.76-.68-.15,1.65L174,58.79l-.76.68.67-.77-1.65-.14,1.65-.15-.67-.77.76.68.15-1.65.15,1.65.76-.68-.68.77,1.66.15-1.66.14Zm-9.23-21.39.76.68.15-1.66.15,1.66.76-.68-.67.76,1.65.15-1.65.15.67.76-.76-.67-.15,1.65-.15-1.65-.76.67.68-.76L164.89,39l1.66-.15Zm-27.24-10,1.71,1.52.33-3.71.33,3.71,1.72-1.52-1.52,1.72,3.71.33-3.71.33,1.52,1.71L141,30.67l-.33,3.71-.33-3.71-1.71,1.52,1.52-1.71-3.71-.33,3.71-.33ZM142.19,47l-.77-.68L141.28,48l-.15-1.66-.77.68.68-.76-1.65-.15L141,46l-.68-.76.77.67.15-1.65.14,1.65.77-.67-.68.76,1.65.15-1.65.15Zm10.33,3.18L145.28,42l8.17,7.24L155,31.59l1.57,17.68L164.77,42l-7.23,8.18,17.67,1.57-17.67,1.57,7.23,8.18-8.17-7.24L155,72l-1.58-17.67-8.17,7.24,7.24-8.18-17.68-1.57ZM166.3,70.54l-.76-.68-.15,1.65-.15-1.65-.76.68.68-.77-1.66-.14,1.66-.15-.68-.77.76.68.15-1.65.15,1.65.76-.68-.67.77,1.65.15-1.65.14Zm-9.2,39.38-.77-.68-.14,1.65-.15-1.65-.77.68.68-.77L154.3,109l1.65-.15-.68-.77.77.68.15-1.65.14,1.65.77-.68-.68.77,1.66.15-1.66.14Zm-1.35,28.93-1.66.15.68.76-.77-.67-.14,1.65-.15-1.65-.76.67.67-.76-1.65-.15,1.65-.15-.67-.76.76.68.15-1.66.14,1.66.77-.68-.68.76Zm1.62,17.66-1.66.15.68.76-.77-.68-.14,1.66-.15-1.66-.76.68.67-.76-1.65-.15,1.65-.15-.67-.76.76.67.15-1.65.14,1.65.77-.67-.68.76Zm-6.82-70.42-.76-.67-.15,1.65-.15-1.65-.76.67.68-.76-1.66-.15,1.66-.14-.68-.77.76.68.15-1.66.15,1.66.76-.68-.67.77,1.65.14-1.65.15ZM140.78,71l-.76-.68-.15,1.65-.15-1.65L139,71l.68-.77L138,70.05l1.66-.14-.68-.77.76.68.15-1.65.15,1.65.76-.68-.68.77,1.66.14-1.66.15Zm-9.89-54.59.77.68.14-1.66.15,1.66.77-.68-.68.76,1.65.15-1.65.15.68.76-.77-.67-.15,1.65-.14-1.65-.77.67.68-.76-1.66-.15,1.66-.15Zm-3.22,19.39.15,1.66.76-.68-.68.77,1.66.14-1.66.15.68.76-.76-.67-.15,1.65-.15-1.65-.76.67.67-.76-1.65-.15,1.65-.14-.67-.77.76.68Zm.91,22.93-.76-.68-.15,1.65L127.52,58l-.76.68.67-.77-1.65-.14,1.65-.15-.67-.77.76.68.15-1.65.15,1.65.76-.68-.68.77,1.66.15-1.66.14ZM115.84,26.52l-3.58-4.06,4,3.59.78-8.76.78,8.76,4-3.59-3.59,4.06,8.76.78-8.76.77,3.59,4.06-4-3.59-.78,8.76-.78-8.76-4,3.59,3.58-4.06-8.76-.77Zm2.49,24L116.62,49l-.33,3.71L116,49l-1.72,1.52,1.52-1.71-3.71-.33,3.71-.33-1.52-1.72L116,47.94l.33-3.71.33,3.71,1.71-1.52-1.52,1.72,3.71.33-3.71.33Zm-8.17-8.2-.76-.68-.15,1.66-.14-1.66-.77.68.68-.76-1.66-.15,1.66-.15-.68-.76.77.67.14-1.65.15,1.65.76-.67-.67.76,1.65.15-1.65.15Zm-5.6,13.44.77.68.14-1.65.15,1.65.77-.68-.68.77,1.65.15-1.65.14.68.77-.77-.68-.15,1.66-.14-1.66-.77.68.68-.77-1.65-.14,1.65-.15Zm-3.87-19.43-.76-.67-.15,1.65-.15-1.65-.76.67.67-.76-1.65-.15,1.65-.15-.67-.76.76.68.15-1.66.15,1.66.76-.68-.68.76,1.66.15-1.66.15ZM94.51,18.63l1.71,1.52.33-3.71.33,3.71,1.72-1.52-1.52,1.71,3.71.33L97.08,21l1.52,1.72L96.88,21.2l-.33,3.71-.33-3.71-1.71,1.52L96,21l-3.71-.33L96,20.34Zm-10,2,.76.68.15-1.65.15,1.65.76-.68-.67.77,1.65.15-1.65.14.67.77-.76-.68-.15,1.65-.15-1.65-.76.68.68-.77-1.66-.14,1.66-.15Zm4.71,28.62-2.33-2.63L89.55,49l.5-5.69L90.56,49l2.63-2.33-2.33,2.63,5.69.51-5.69.5,2.33,2.64-2.63-2.34-.51,5.7-.5-5.7-2.64,2.34,2.33-2.64-5.69-.5Zm6.33,15.4L94.81,64l-.15,1.65L94.52,64l-.77.67.68-.76-1.66-.15,1.66-.15-.68-.76.77.68.14-1.66.15,1.66.76-.68-.67.76,1.65.15-1.65.15ZM138.27,81a38.81,38.81,0,1,1-54.89,0A38.81,38.81,0,0,1,138.27,81ZM80.07,44l.15-1.66L80.37,44l.76-.68-.67.76,1.65.15-1.65.15.67.76-.76-.67-.15,1.65-.15-1.65-.76.67.68-.76-1.66-.15L80,44.08l-.68-.76ZM61.5,30.09l4.76,4.22L67.18,24l.91,10.3,4.77-4.22-4.22,4.77,10.3.91-10.3.92,4.22,4.76-4.77-4.21-.91,10.29-.92-10.29L61.5,41.45l4.21-4.76-10.29-.92,10.29-.91ZM67,57.58l-.77-.68L66,58.56,65.9,56.9l-.77.68.68-.77-1.65-.14,1.65-.15-.68-.77.77.68L66,54.78l.15,1.65.77-.68-.68.77,1.65.15-1.65.14Zm-5.38,18-.77-.67-.15,1.65-.14-1.65-.77.67.68-.76-1.65-.15,1.65-.15-.68-.76.77.68.14-1.66.15,1.66.77-.68-.68.76,1.65.15-1.65.15ZM46.88,43.32l.76.68.15-1.66L47.93,44l.77-.68-.68.76,1.66.15L48,44.38l.68.76-.77-.67-.14,1.65-.15-1.65-.76.67.67-.76-1.65-.15,1.65-.15Zm2.59,16.31L47.14,57l2.63,2.34.51-5.7.51,5.7L53.42,57l-2.33,2.64,5.69.5-5.69.51,2.33,2.63-2.63-2.33-.51,5.69-.51-5.69-2.63,2.33,2.33-2.63-5.69-.51Zm2.27,72.86-.77-.67-.15,1.65-.14-1.65-.77.67.68-.76-1.65-.15,1.65-.15-.68-.76.77.68.14-1.66.15,1.66.77-.68-.68.76,1.65.15-1.65.15ZM49,103.87l1.52,1.72-1.71-1.52-.33,3.71-.33-3.71-1.72,1.52L48,103.87l-3.71-.33,3.71-.33-1.52-1.71L48.15,103l.33-3.71.33,3.71,1.71-1.52L49,103.21l3.71.33Zm-1.5,11.85-.76-.67-.15,1.65-.15-1.65-.76.67.67-.76-1.65-.15,1.65-.15-.67-.76.76.68.15-1.66.15,1.66.76-.68-.68.76,1.66.15-1.66.15ZM46.09,80.56l.76.68L47,79.59l.15,1.65.76-.68-.67.77,1.65.15-1.65.14.67.77-.76-.68L47,83.37l-.15-1.66-.76.68.68-.77-1.66-.14,1.66-.15ZM40.47,54.63l-.68-.76.76.67.15-1.65.15,1.65.76-.67-.68.76,1.66.15-1.66.14.68.77L40.85,55l-.15,1.66L40.55,55l-.76.68.68-.77-1.66-.14Zm-5.19,8.71L37,64.86l.33-3.71.33,3.71,1.71-1.52-1.52,1.72,3.71.33-3.71.33,1.52,1.72-1.71-1.52-.33,3.71L37,65.92l-1.72,1.52,1.52-1.72-3.71-.33,3.71-.33ZM24,72.84l.76.68.15-1.66.15,1.66.76-.68-.68.77,1.66.14-1.66.15.68.77L25.08,74l-.15,1.65L24.78,74l-.76.68.67-.77L23,73.75l1.65-.14ZM31.34,90,27.75,86l4.06,3.58.77-8.76.78,8.76L37.42,86,33.83,90l8.76.78-8.76.78,3.59,4.05L33.36,92l-.78,8.76L31.81,92l-4.06,3.59,3.59-4.05-8.76-.78Zm6.14,46.26-.77-.68-.15,1.66-.14-1.66-.77.68.68-.76-1.65-.15,1.65-.15-.68-.76.77.67.14-1.65.15,1.65.77-.67-.68.76,1.65.15-1.65.15ZM34,124.1l-2.63-2.33-.51,5.69-.51-5.69-2.63,2.33L30,121.46l-5.69-.5,5.69-.51-2.33-2.63,2.63,2.33.51-5.69.51,5.69L34,117.82l-2.33,2.63,5.69.51-5.69.5Zm-8.06-14.82.76.68.15-1.65L27,110l.77-.68-.68.77,1.66.14-1.66.15.68.77-.77-.68-.14,1.65-.15-1.65-.76.68.67-.77-1.65-.15,1.65-.14Zm-5.79,17-.77-.68-.14,1.66-.15-1.66-.76.68.67-.76-1.65-.15,1.65-.15-.67-.76.76.67.15-1.65.14,1.65.77-.67-.68.76,1.66.15-1.66.15Zm1.12-29.66-.14,1.65L21,96.67l-.77.67.68-.76-1.65-.15,1.65-.14-.68-.77.77.68.15-1.66.14,1.66.77-.68-.68.77,1.65.14-1.65.15.68.76Zm5.91,44.51-.33,3.71-.33-3.71-1.72,1.52L26.29,141l-3.71-.33,3.71-.33-1.52-1.72,1.72,1.52.33-3.71.33,3.71,1.71-1.52-1.52,1.72,3.71.33-3.71.33,1.52,1.72Zm21.31,16.35-1.27,14.32-1.28-14.32-6.62,5.86,5.86-6.62-14.32-1.28,14.32-1.27-5.86-6.63,6.62,5.87,1.28-14.32,1.27,14.32,6.63-5.87-5.87,6.63,14.32,1.27-14.32,1.28,5.87,6.62Zm20.19,27.32L66,182.52l-.5,5.69L65,182.52l-2.63,2.33,2.33-2.63L59,181.71l5.69-.5-2.33-2.64L65,180.9l.51-5.69.5,5.69,2.64-2.33-2.33,2.64,5.69.5-5.69.51Zm-1.28-32.16.76.68.15-1.65.15,1.65.76-.68-.67.77,1.65.15-1.65.14.67.77-.76-.68-.15,1.65-.15-1.65-.76.68.68-.77-1.66-.14,1.66-.15ZM76,168.2l3.71-.33-1.52-1.71,1.72,1.52.33-3.71.33,3.71,1.72-1.52-1.52,1.71,3.71.33-3.71.33,1.52,1.72-1.72-1.52-.33,3.71-.33-3.71-1.72,1.52,1.52-1.72Zm67.29,8.4-.76-.68-.15,1.66-.14-1.66-.77.68.68-.76-1.66-.15,1.66-.15-.68-.76.77.67.14-1.65.15,1.65.76-.67-.67.76,1.65.15-1.65.15Zm-1.47-12.3,1.52,1.71-1.71-1.52-.33,3.71-.34-3.71L139.23,166l1.52-1.71L137,164l3.71-.33-1.52-1.72,1.71,1.52.34-3.71.33,3.71,1.71-1.52-1.52,1.72,3.71.33Zm-29.68.06c0,.11,0,.22,0,.33v10.76H132c4.52,0,6.56,9.92,6.56,9.92H78.8s2-9.92,6.56-9.92h19.76V164.69a2.08,2.08,0,0,1,0-.23,53.43,53.43,0,0,1-34.31-92L67.37,69a2.85,2.85,0,0,1,4-4l9.54,9.54a2.85,2.85,0,0,1-4,4l-1.44-1.44a46.9,46.9,0,1,0,66.3,66.3l-1.14-1.14a2.85,2.85,0,1,1,4-4l9.53,9.53a2.85,2.85,0,1,1-4,4l-3.76-3.76A53.3,53.3,0,0,1,112.12,164.36ZM128,170.75l-.77-.67-.14,1.65-.15-1.65-.77.67.68-.76-1.65-.15,1.65-.15-.68-.76.77.68.15-1.66.14,1.66.77-.68-.68.76,1.65.15-1.65.15Zm-31.64-4.31.76.68.15-1.66.15,1.66.76-.68-.68.77,1.66.14-1.66.15.68.76-.76-.67-.15,1.65-.15-1.65-.76.67.67-.76-1.65-.15,1.65-.14ZM162.76,183l-4-3.59-.78,8.76-.78-8.76L153.1,183l3.58-4-8.76-.78,8.76-.78-3.58-4.05,4.05,3.58.78-8.76.78,8.76,4-3.58-3.59,4.05,8.76.78-8.76.78Zm1.37-21.16.76.68.15-1.66.15,1.66.76-.68-.67.77,1.65.14-1.65.15.67.76-.76-.67-.15,1.65-.15-1.65-.76.67.68-.76-1.66-.15,1.66-.14Zm2.15-25.64.67.76-.76-.67L166,138l-.15-1.65-.76.67.68-.76-1.66-.15,1.66-.15-.68-.76.76.68.15-1.66.15,1.66.76-.68-.67.76,1.65.15Zm-3.95-12.88,2.33,2.63L162,123.66l-.51,5.69-.5-5.69L158.39,126l2.33-2.63-5.69-.5,5.69-.51-2.33-2.63,2.63,2.33.5-5.69.51,5.69,2.63-2.33-2.33,2.63,5.69.51Zm7.25-22.19-.76-.67-.15,1.65-.15-1.65-.76.67.68-.76-1.66-.15,1.66-.15-.68-.76.76.68.15-1.66.15,1.66.76-.68-.68.76,1.66.15-1.66.15Zm1-9-.78-8.76-4.05,3.59,3.58-4-8.76-.78,8.76-.78-3.58-4.06L169.78,81l.78-8.76.78,8.76,4-3.59-3.59,4.06,8.76.78L171.8,83l3.59,4-4-3.59Zm6.65,65.83-.33,3.71-.33-3.71-1.71,1.52,1.51-1.72-3.71-.33,3.71-.33-1.51-1.71,1.71,1.52.33-3.71.33,3.71,1.72-1.52-1.52,1.71,3.71.33-3.71.33,1.52,1.72Zm5.67,12.7-.77-.67-.15,1.65-.14-1.65-.77.67.68-.76-1.65-.15,1.65-.15-.68-.76.77.68L182,168l.15,1.66.77-.68-.68.76,1.65.15-1.65.15Zm11.93-24.91-5.62-5L188.11,153,187,140.86l-5.63,5,5-5.62-12.16-1.08,12.16-1.08-5-5.63,5.63,5,1.08-12.16,1.08,12.16,5.62-5-5,5.63L202,139.14l-12.16,1.08Z" transform="translate(-10 -10)"/>
  </g>
</svg>
