<?xml-stylesheet type="text/css" href="main.css" ?>

<svg id="LOGO" xmlns="http://www.w3.org/2000/svg" width="440" height="270" viewBox="0 0 450 280">
  <g id="LETTERING">
    <g>
      <path d="M210.17,172.66a22.37,22.37,0,0,0,7.41-11.13q2.47-8.76-3.25-13.58t-18.86-4.82H166.86l-22,78.56H175q13.38,0,22.87-6.33a29.61,29.61,0,0,0,12.53-17.12q2.07-7.41-1.49-12.54t-11.66-6.2l.06-.21A32.48,32.48,0,0,0,210.17,172.66ZM191.83,198a13.38,13.38,0,0,1-5.66,7.78,18.39,18.39,0,0,1-10.41,2.85h-9.59L172,187.94h9.7c4.1,0,7,.89,8.81,2.69S192.7,194.88,191.83,198Zm1-25.88a16.29,16.29,0,0,1-9.38,2.63h-7.78l5.28-18.6h6.63q12.93,0,10.5,8.65A12.77,12.77,0,0,1,192.83,172.14Z" transform="translate(-19.13 -21.28)"/>
      <path d="M279.25,141.77a48.75,48.75,0,0,0-31.83,11.51q-14,11.49-19.25,30.13Q223.22,201,230.77,212t24.42,11a48.3,48.3,0,0,0,31.25-11.26q14-11.34,19.14-29.86,5.07-18-2.23-29T279.25,141.77Zm7.44,41q-3.3,11.7-10.52,18.32a23.68,23.68,0,0,1-16.38,6.6q-8.85,0-12.44-6.79t-.29-18.46q3.21-11.5,10.67-18.49t16.75-7q9,0,12.34,6.8t-.13,19.1Z" transform="translate(-19.13 -21.28)"/>
      <polygon points="437.68 136.24 441.73 121.84 396.42 121.84 374.37 200.4 421.49 200.4 425.52 186.05 396.1 186.05 401.14 168.08 426.83 168.08 430.86 153.72 405.17 153.72 410.07 136.24 437.68 136.24"/>
      <polygon points="362.09 121.84 329.25 173.58 325.44 121.84 306.15 121.84 311.17 200.4 312.22 200.4 331.22 200.4 332.27 200.4 381.39 121.84 362.09 121.84"/>
      <path d="M93.07,84.33,73.23,132.39H84.06l6.83-16.56h5.17a28.92,28.92,0,0,0,15.77-4.47,25,25,0,0,0,10-11.72Q128.18,84.31,110,84.33Zm17.24,15.72q-3.11,7.56-11.77,7.57H94.28l6.18-15h4.26Q113.38,92.64,110.31,100.05Z" transform="translate(-19.13 -21.28)"/>
      <path d="M38.82,133.23q20.18,0,29.11-21.65L79.18,84.33H68.35L56.68,112.62Q52,123.87,43.08,123.88q-9.12,0-4.3-11.67L50.29,84.33H39.42l-9.92,24L28,112.08Q19.25,133.23,38.82,133.23Z" transform="translate(-19.13 -21.28)"/>
      <path d="M102.53,143.13H19.13l76.14,11.25L51.88,221.69H71.05l10.48-17.48h27l.67,17.48h20.21l-5.89-78.56Zm-12.84,47.5L106.89,162,108,190.63Z" transform="translate(-19.13 -21.28)"/>
    </g>
  </g>
  <g id="PLANET">
    <g id="PLANET-2" data-name="PLANET">
      <path d="M138.83,57.53c79.71,11.66,111.81,84,111.81,84a76.71,76.71,0,0,1,22.25-6.29A165.16,165.16,0,0,0,28.69,72C59.08,58,96.54,51.34,138.83,57.53Z" transform="translate(-19.13 -21.28)"/>
      <path d="M272,228.66s3.69,33.34-10.23,70.06A164.33,164.33,0,0,0,289,220.05a79.24,79.24,0,0,1-16.86,8.34Z" transform="translate(-19.13 -21.28)"/>
    </g>
  </g>
  <g id="RING">
    <g id="RING-2" data-name="RING">
      <path d="M240.66,33a2.57,2.57,0,0,1,.68.06c20.37.63,36.9,7,47,19.9,15.2,19.39,12.81,49.51-3.21,82.31a43.31,43.31,0,0,1,6.93,1.53c4.92-9.06,21.8-44,8.7-76.22C285.53,23.14,236.53,27.46,219.31,31c0,0,73.52-27.49,97.07,27.91,10.9,25.67.2,56.7-14.41,82.62a31.63,31.63,0,0,1,4.44,3.66C331,104.54,337.23,65.9,318.75,42.34c-23.08-29.43-78.16-27.06-137.67,1.23C185.81,41.77,214.13,31.62,240.66,33Z" transform="translate(-19.13 -21.28)"/>
      <path d="M222.67,214.63s-24.74,32.7-91.81,68.61c31.58-10,66.17-28.28,99.08-54.08,1.47-1.15,2.82-2.36,4.26-3.53A30,30,0,0,1,222.67,214.63Z" transform="translate(-19.13 -21.28)"/>
    </g>
  </g>
</svg>
