<svg id="Layer_1" data-name="Layer 1" xmlns="http://www.w3.org/2000/svg" viewBox="0 0 200 200">
  <path d="M110,10A100,100,0,1,0,210,110,100,100,0,0,0,110,10Zm89.07,81.23.67.59.12-1.44.13,1.44.67-.59-.59.67,1.44.13-1.44.12.59.67-.67-.59-.13,1.45-.12-1.45-.67.59.59-.67L198.21,92l1.45-.13Zm-1.71,6.29-.59.67,1.45.13-1.45.12.59.67-.67-.59-.12,1.45-.13-1.45-.67.59.59-.67-1.44-.12,1.44-.13-.59-.67.67.59.13-1.44.12,1.44ZM186.9,60l.67.59.12-1.45.13,1.45.67-.59-.59.67,1.44.12-1.44.13.59.67-.67-.59-.13,1.44L187.57,61l-.67.59.59-.67L186,60.78l1.45-.12Zm.1,12.75.69-7.77.7,7.77L192,69.56l-3.18,3.59,7.77.69-7.77.69,3.18,3.6-3.59-3.19-.7,7.77L187,74.94l-3.59,3.19,3.18-3.6-7.77-.69,7.77-.69-3.18-3.59Zm5.68,11.87L192,84l-.12,1.45L191.76,84l-.67.59.59-.66-1.44-.13,1.44-.13-.59-.67.67.59.13-1.44.12,1.44.67-.59-.59.67,1.45.13-1.45.13ZM184,88.91l-1.15-1-.22,2.49-.22-2.49-1.15,1,1-1.15-2.48-.22,2.48-.22-1-1.15,1.15,1,.22-2.48.22,2.48,1.15-1-1,1.15,2.48.22-2.48.22Zm-5-24.14.67.59.13-1.44.13,1.44.67-.59-.6.67,1.45.13-1.45.12.6.67-.67-.59-.13,1.45-.13-1.45-.67.59.59-.67-1.44-.12,1.44-.13Zm-.51,12.83.13-1.44.13,1.44.66-.59-.59.67,1.45.13-1.45.13.59.66-.66-.59-.13,1.45L178.49,78l-.67.59.59-.66L177,77.81l1.44-.13-.59-.67Zm-.73,28.74-.66-.59-.13,1.44-.13-1.44-.67.59.59-.67-1.44-.13,1.44-.12-.59-.67.67.59.13-1.45.13,1.45.66-.59-.59.67,1.45.12-1.45.13Zm1.92,19.48.66.59.13-1.44.13,1.44.67-.59-.59.67,1.44.13-1.44.13.59.67-.67-.6-.13,1.45-.13-1.45-.66.6.59-.67-1.45-.13,1.45-.13Zm-60.45,24.44-3.59-3.18-.69,7.77-.69-7.77-3.59,3.18,3.18-3.59-7.77-.69,7.77-.7-3.18-3.59,3.59,3.18.69-7.77.69,7.77,3.59-3.18-3.18,3.59,7.77.7-7.77.69Zm-1.44,22.84-2.49.23,1,1.14-1.15-1-.22,2.48-.22-2.48-1.15,1,1-1.14-2.49-.23,2.49-.22-1-1.14,1.15,1,.22-2.48.22,2.48,1.15-1-1,1.14ZM106,176.22l-.67-.59-.13,1.44-.13-1.44-.67.59.59-.67-1.44-.13,1.44-.13-.59-.67.67.6.13-1.45.13,1.45.67-.6-.6.67,1.45.13-1.45.13Zm-14.68,9.1-.67-.59-.13,1.44-.13-1.44-.67.59.59-.67-1.44-.13,1.44-.12-.59-.67.67.59.13-1.45.13,1.45.67-.59-.59.67,1.44.12-1.44.13ZM88.46,168.7l1.72,1.93-1.94-1.71-.37,4.18-.38-4.18-1.93,1.71,1.71-1.93-4.19-.38,4.19-.37L85.56,166l1.93,1.72.38-4.19.37,4.19L90.18,166,88.46,168l4.19.37Zm3.14-12.44L64,128.69A19.49,19.49,0,0,1,91.6,156.26ZM51,110.52l-.67-.59-.13,1.45-.12-1.45-.67.59.59-.66-1.45-.13L50,109.6l-.59-.67.67.59.12-1.44.13,1.44.67-.59-.59.67,1.44.13-1.44.13ZM49.35,122.7l-.67-.6-.13,1.45-.12-1.45-.67.6.59-.67-1.45-.13,1.45-.13-.59-.67.67.59.12-1.44.13,1.44.67-.59-.59.67,1.44.13-1.44.13Zm-8.13-18.82-1.14-1-.23,2.48-.22-2.48-1.14,1,1-1.15L37,102.51l2.48-.22-1-1.15,1.14,1,.22-2.48.23,2.48,1.14-1-1,1.15,2.48.22-2.48.22Zm-.94-15.73,8.27-8.27,8.28,8.27-8.28,8.28ZM107,75.24l-1.45.13.59.67-.67-.59-.12,1.44-.13-1.44-.67.59.59-.67-1.44-.13,1.44-.13-.59-.66.67.59.13-1.45.12,1.45.67-.59-.59.66Zm-2.62,18.61-.67-.59-.13,1.45-.13-1.45-.67.59.59-.66-1.44-.13,1.44-.13-.59-.67.67.59.13-1.44.13,1.44.67-.59-.6.67,1.45.13-1.45.13Zm-13.11,8.47-.67-.59-.12,1.44-.13-1.44-.67.59.59-.67-1.44-.13,1.44-.13-.59-.66.67.59.13-1.45.12,1.45.67-.59-.59.66,1.45.13-1.45.13ZM82.84,86l2.88-2.88,17.56,17.56-2.88,2.87Zm3,33.07-.66-.59L85,119.93l-.13-1.44-.67.59.59-.67-1.44-.13,1.44-.13-.59-.67.67.6.13-1.45.13,1.45.66-.6-.59.67,1.45.13-1.45.13Zm-4.54-3.42-3.59-3.18L77,120.25l-.69-7.77-3.6,3.18,3.18-3.59-7.77-.69,7.77-.69-3.18-3.6,3.6,3.18.69-7.76.69,7.76,3.59-3.18-3.18,3.6,7.77.69-7.77.69Zm-14.78.88L65.8,116l-.12,1.44L65.55,116l-.67.59.59-.67L64,115.74l1.44-.13-.59-.67.67.59.13-1.44.12,1.44.67-.59-.59.67,1.45.13-1.45.13Zm9.64-20.73-.67-.59-.12,1.45-.13-1.45-.67.59.59-.67L73.67,95l1.44-.13-.59-.67.67.59.13-1.44.12,1.44.67-.59-.59.67L77,95l-1.45.12Zm.49-7.54-8.28,8.28-8.27-8.28L68.32,80Zm-6.72-9.83,8.27-8.28,8.28,8.28-8.28,8.28Zm29.21,1.29.67.59.13-1.45.13,1.45.67-.59-.59.66,1.44.13-1.44.13.59.67-.67-.59-.13,1.44-.13-1.44-.67.59.6-.67-1.45-.13,1.45-.13ZM97.81,67.06l-8.28-8.28,8.28-8.27,8.28,8.27Zm-1.55,1.55L88,76.89,79.7,68.61,88,60.34ZM78,67l-8.28-8.28L78,50.39l8.27,8.28ZM76.49,68.5l-8.28,8.27L59.93,68.5l8.28-8.28Zm-9.83,9.83L58.38,86.6l-8.27-8.27,8.27-8.28ZM48.44,76.66l-8.28-8.28,8.28-8.27,8.28,8.27ZM50.22,98.1l8.28-8.28,8.27,8.28-8.27,8.27Zm45.87,31.16L91,124.19a6,6,0,0,1,0-8.5L113.22,93.5a6,6,0,0,1,8.51,0l5.06,5.06a6,6,0,0,1,0,8.5l-22.2,22.2A6,6,0,0,1,96.09,129.26ZM111,74.58,113,76.29l.37-4.18.37,4.18,1.94-1.71-1.72,1.93,4.19.38-4.19.37,1.72,1.94-1.94-1.72-.37,4.19L113,77.48,111,79.2l1.72-1.94-4.19-.37,4.19-.38Zm1.51-15.06.67.59.13-1.44.13,1.44.67-.59-.6.67,1.45.13-1.45.13.6.67-.67-.6L113.32,62l-.13-1.45-.67.6.59-.67-1.44-.13,1.44-.13ZM117.91,49l3.59,3.18.69-7.77.69,7.77,3.6-3.18-3.19,3.59,7.77.69-7.77.69,3.19,3.6-3.6-3.18-.69,7.76-.69-7.76-3.59,3.18,3.18-3.6-7.77-.69,7.77-.69Zm12.74-2.79.67.59.13-1.44.12,1.44.67-.59-.59.67,1.45.13-1.45.13.59.66-.67-.59-.12,1.45-.13-1.45-.67.59.59-.66L129.8,47l1.44-.13Zm3.77,26.58.67.59.13-1.45.12,1.45.67-.59-.59.66,1.45.13-1.45.13.59.67-.67-.59-.12,1.44-.13-1.44-.67.59.59-.67-1.44-.13,1.44-.13Zm3,6.22,1.14,1,.23-2.48L139,80l1.15-1-1,1.15,2.48.22-2.48.22,1,1.15-1.15-1-.22,2.48-.23-2.48-1.14,1,1-1.15-2.48-.22,2.48-.22Zm6.1,20.85L142,100l.59.67-.66-.59-.13,1.44-.13-1.44-.67.59.59-.67-1.44-.13,1.44-.13-.59-.66.67.59.13-1.45.13,1.45.66-.59-.59.66Zm1.83-8.11.66.59.13-1.44.13,1.44.67-.59-.59.67,1.44.13-1.44.13.59.66-.67-.59-.13,1.45L146,92.76l-.66.59.59-.66-1.45-.13,1.45-.13ZM151.68,124l8.27,8.28-8.27,8.27-8.28-8.27Zm-.16-21,1.15,1,.22-2.49.22,2.49,1.15-1-1,1.15,2.49.22-2.49.22,1,1.15-1.15-1-.22,2.48-.22-2.48-1.15,1,1-1.15-2.48-.22,2.48-.22Zm9.68-26.85.67.59.13-1.44.13,1.44.67-.59-.6.67,1.45.13-1.45.12.6.67-.67-.59L162,78.59l-.13-1.45-.67.59.59-.67-1.44-.12,1.44-.13Zm.3,38.06,8.28,8.28-8.28,8.27-8.27-8.27Zm4-9,.67.59.13-1.44.13,1.44.67-.59-.6.67,1.45.13-1.45.13.6.66-.67-.59-.13,1.45-.13-1.45-.67.59.59-.66-1.44-.13,1.44-.13ZM161.62,134l8.27,8.28-8.27,8.28-8.28-8.28Zm-8.86-18.61-.67-.59-.13,1.44-.13-1.44-.67.59.6-.67-1.45-.13,1.45-.13-.6-.66.67.59.13-1.45.13,1.45.67-.59-.59.66,1.44.13-1.44.13Zm-26.67,19.51-.67-.59-.13,1.44-.13-1.44-.67.59.6-.67-1.45-.13,1.45-.13-.6-.67.67.6.13-1.45.13,1.45.67-.6-.59.67,1.44.13-1.44.13Zm-9.37-15L119.6,117l17.56,17.56-2.88,2.87Zm19-8.11,1.93,1.72.38-4.19.37,4.19,1.94-1.72-1.72,1.94,4.19.37-4.19.37,1.72,1.94-1.94-1.72-.37,4.19-.38-4.19-1.93,1.72,1.71-1.94-4.18-.37,4.18-.37Zm3.87,13-.67-.59-.12,1.44-.13-1.44-.67.59.59-.67-1.44-.13,1.44-.13-.59-.66.67.59.13-1.45.12,1.45.67-.59-.59.66,1.45.13-1.45.13Zm2.3,9.11,8.27,8.27-8.27,8.28-8.28-8.28Zm-8.09-42.29a1.46,1.46,0,0,1,.32,1.55l-1.92,5a1.44,1.44,0,0,1-2.36.5l-3.7-3.7-.71-.7-3.69-3.7a1.44,1.44,0,0,1,.5-2.36l5-1.93a1.44,1.44,0,0,1,1.54.33l2.17,2.17.71.71Zm-6-23.83,1.15,1,.22-2.49.22,2.49,1.15-1-1,1.15,2.48.22-2.48.22,1,1.15-1.15-1-.22,2.48-.22-2.48-1.15,1,1-1.15-2.48-.22,2.48-.22Zm-8.85.75-.67-.59-.13,1.44L118,67.9l-.67.59.6-.67-1.45-.13,1.45-.13-.6-.67.67.6L118.1,66l.13,1.45.67-.6-.59.67,1.44.13-1.44.13Zm-9.51,19,.67.59.13-1.44.13,1.44.66-.59-.59.67,1.45.13-1.45.13.59.67-.66-.6L110.19,90l-.13-1.45-.67.6.59-.67-1.44-.13,1.44-.13Zm4.39,44.07-.66-.59-.13,1.44-.13-1.44-.67.59.59-.67-1.44-.13,1.44-.13-.59-.66.67.59.13-1.45.13,1.45.66-.59-.59.66,1.45.13-1.45.13Zm-11,11.65.67.59.13-1.45.13,1.45.67-.59-.6.67,1.45.12-1.45.13.6.67-.67-.59-.13,1.44-.13-1.44-.67.59.59-.67-1.44-.13,1.44-.12Zm1.44,17.06-.59-.67.67.6.13-1.45.13,1.45.67-.6-.6.67,1.45.13-1.45.13.6.67-.67-.59-.13,1.44-.13-1.44-.67.59.59-.67-1.44-.13ZM132,143.69,140.3,152,132,160.24,123.74,152Zm9.94,9.94,8.28,8.28L142,170.18l-8.27-8.27Zm1.55-1.55,8.28-8.28,8.28,8.28-8.28,8.27Zm18.22,1.66L170,162l-8.28,8.28L153.46,162Zm1.55-1.55,8.28-8.27,8.28,8.27-8.28,8.28Zm9.83-9.83,8.28-8.27,1,1a10.34,10.34,0,0,1,0,14.61l-1,1Zm6.61-9.94-8.27,8.28-8.28-8.28,8.28-8.27Zm-4.1-50.5.67.59.13-1.45.13,1.45.67-.59-.59.66,1.44.13-1.44.13.59.67-.67-.59-.13,1.44-.13-1.44-.67.59.6-.67-1.45-.13,1.45-.13Zm-.82-37,.67.59.13-1.44.13,1.44.67-.59-.59.67,1.44.13-1.44.12.59.67-.67-.59-.13,1.45L175.47,46l-.67.59.6-.67L174,45.76l1.45-.13Zm-7.43,51.6,1.72,1.94-1.94-1.72-.37,4.19-.37-4.19-1.94,1.72,1.72-1.94L162,96.19l4.19-.37-1.72-1.94,1.94,1.71.37-4.18.37,4.18,1.94-1.71-1.72,1.94,4.19.37Zm3.51-21.27-2.48.22,1,1.15-1.15-1-.22,2.48-.22-2.48-1.15,1,1-1.15-2.48-.22,2.48-.23-1-1.14,1.15,1,.22-2.48.22,2.48,1.15-1-1,1.14ZM162.12,51l1.93,1.72.38-4.19.37,4.19L166.74,51,165,52.92l4.19.37-4.19.38,1.72,1.93-1.94-1.71-.37,4.18-.38-4.18-1.93,1.71,1.71-1.93-4.18-.38,4.18-.37Zm-1.75,6.38-.59-.67.66.59.13-1.45.13,1.45.67-.59-.59.67,1.44.12-1.44.13.59.67-.67-.59-.13,1.44-.13-1.44-.66.59.59-.67-1.45-.13Zm-2,30.18.13,1.45.67-.6-.6.67,1.45.13-1.45.13.6.67-.67-.59-.13,1.44-.13-1.44-.67.59.59-.67-1.44-.13,1.44-.13-.59-.67.67.6Zm-.48-15.43-7.77.69,3.18,3.59-3.59-3.18L149.06,81l-.69-7.77-3.59,3.18L148,72.8l-7.77-.69,7.77-.7-3.18-3.59L148.37,71l.69-7.77.69,7.77,3.59-3.18-3.18,3.59ZM146.49,54.47l1.15,1,.22-2.48.22,2.48,1.15-1-1,1.14,2.48.22-2.48.23,1,1.14-1.15-1-.22,2.48-.22-2.48-1.15,1,1-1.14L145,55.83l2.48-.22Zm4.67-17.21-.59.67,1.44.12-1.44.13.59.67-.67-.59-.13,1.44-.13-1.44-.67.59.6-.67-1.45-.13,1.45-.12-.6-.67.67.59.13-1.45.13,1.45ZM143.87,19l.67.59.13-1.44.13,1.44.67-.59-.59.67,1.44.13-1.44.12.59.67L144.8,20l-.13,1.45L144.54,20l-.67.59.6-.67L143,19.83l1.45-.13Zm-15.72,5.78,6.07,5.37,1.17-13.12,1.16,13.12,6.07-5.37-5.37,6.06L150.36,32l-13.11,1.17,5.37,6.06-6.07-5.37L135.39,47,134.22,33.9l-6.07,5.37,5.37-6.06L120.41,32l13.11-1.17ZM116.5,34.22l.66.59.13-1.44.13,1.44.67-.59-.59.67,1.44.13-1.44.13.59.66-.67-.59-.13,1.45-.13-1.45-.66.59.59-.66L115.64,35l1.45-.13Zm-5.1-10.51.67.6.13-1.45.12,1.45.67-.6-.59.67,1.45.13-1.45.13.59.67-.67-.59-.12,1.44-.13-1.44-.67.59.59-.67-1.44-.13,1.44-.13ZM110,44.22l.67.59.13-1.44.13,1.44.67-.59-.6.67,1.45.13-1.45.13.6.66-.67-.59-.13,1.45-.13-1.45-.67.59.59-.66L109.14,45l1.44-.13Zm-5.28-12.93,1.15,1,.22-2.48.22,2.48,1.15-1-1,1.15,2.48.22-2.48.22,1,1.15-1.15-1-.22,2.49L105.86,33l-1.15,1,1-1.15-2.49-.22,2.49-.22ZM92.88,19.54l1.94,1.71.37-4.19.37,4.19,1.94-1.71-1.71,1.93,4.18.38-4.18.37,1.71,1.93-1.94-1.71-.37,4.19-.37-4.19-1.94,1.71,1.72-1.93-4.19-.37,4.19-.38Zm3.26,29.3-8.27,8.28-8.28-8.28,8.28-8.27ZM73.57,22.06l.67.6.13-1.45.13,1.45.67-.6-.6.67,1.45.13L74.57,23l.6.67-.67-.59-.13,1.44-.13-1.44-.67.59.59-.67-1.44-.13,1.44-.13ZM70.62,37.93a10.32,10.32,0,0,1,14.61,0l1,1-8.28,8.27L69.65,38.9ZM66.06,32l.13,1.45.67-.6-.59.67,1.44.13-1.44.13.59.67-.67-.59-.13,1.44-.13-1.44-.66.59.59-.67-1.45-.13,1.45-.13-.59-.67.66.6Zm-3-4.56.67.59.13-1.44L64,28.07l.66-.59-.59.67,1.45.13-1.45.13.59.66L64,28.48l-.13,1.45-.13-1.45-.67.59.59-.66-1.44-.13,1.44-.13Zm5,13,8.28,8.28L68.09,57l-8.27-8.27Zm-1.55,18.1-8.27,8.28L50,58.55l8.28-8.27Zm-11-14.33.67.59.13-1.44.13,1.44.67-.59-.6.67L58,45l-1.45.13.6.66-.67-.59-.13,1.45-.13-1.45-.67.59.59-.66L54.65,45l1.44-.13ZM45.09,42.11,47,43.83l.38-4.19.37,4.19,1.93-1.72L48,44.05l4.19.37L48,44.79l1.71,1.94L47.77,45,47.4,49.2,47,45l-1.93,1.71,1.71-1.94-4.19-.37,4.19-.37Zm-6.78,7.47.67.59.13-1.44.13,1.44.66-.59-.59.67,1.45.13-1.45.13.59.66-.66-.59L39.11,52,39,50.58l-.67.59.59-.66-1.44-.13,1.44-.13Zm.15,11.79-.59-.66.67.59.13-1.45.13,1.45.67-.59-.6.66,1.45.13-1.45.13.6.67-.67-.59-.13,1.44-.13-1.44-.67.59.59-.67L37,61.5Zm-.82,9.53,1-1,8.28,8.28-8.28,8.28-1-1A10.35,10.35,0,0,1,37.64,70.9Zm-3.36,41.28.13-1.44.13,1.44.67-.59-.6.67,1.45.13-1.45.13.6.67-.67-.6L34.41,114l-.13-1.45-.67.6.59-.67-1.44-.13,1.44-.13-.59-.67Zm-3-8.36.6.67-.67-.59-.13,1.44L31,103.9l-.67.59.59-.67-1.44-.13,1.44-.13-.59-.66.67.59.13-1.45.13,1.45.67-.59-.6.66,1.45.13Zm-2.85-43,1.14,1,.23-2.48.22,2.48,1.15-1-1,1.14,2.48.22-2.48.23,1,1.14-1.15-1L29.83,65l-.23-2.48-1.14,1,1-1.14L27,62.16l2.48-.22ZM26.51,79.29l.66.6.13-1.45.13,1.45.67-.6-.59.67,1.44.13-1.44.13.59.67-.67-.59-.13,1.44-.13-1.44-.66.59.59-.67-1.45-.13L27.1,80Zm-7.26,11.4,3.59,3.18.69-7.76.69,7.76,3.6-3.18-3.18,3.6L32.4,95l-7.76.69,3.18,3.59-3.6-3.18-.69,7.77-.69-7.77-3.59,3.18,3.18-3.59L14.66,95l7.77-.69Zm1.22,38.23-.67-.59-.13,1.45-.13-1.45-.67.59.59-.66L18,128.13l1.44-.13-.59-.67.67.59.13-1.44.13,1.44.67-.59-.59.67,1.44.13-1.44.13Zm2.32-12.84,1.14,1,.23-2.48.22,2.48,1.14-1-1,1.14,2.48.23-2.48.22,1,1.14-1.14-1-.22,2.48-.23-2.48-1.14,1,1-1.14-2.48-.22,2.48-.23Zm5,28.12-.67-.6L27,145.05l-.13-1.45-.67.6.6-.67-1.45-.13,1.45-.13-.6-.67.67.59.13-1.44.13,1.44.67-.59-.59.67,1.44.13-1.44.13Zm5.77,13.41-.67-.6-.13,1.45L32.63,157l-.67.6.59-.67-1.44-.13,1.44-.13L32,156l.67.59.13-1.44.13,1.44.67-.59-.6.67,1.45.13-1.45.13Zm-3.77-18,5.37-6.06L22,132.42l13.12-1.17-5.37-6.06,6.06,5.37L37,117.45l1.17,13.11,6.06-5.37-5.37,6.06L52,132.42l-13.12,1.17,5.37,6.06-6.06-5.37L37,147.4l-1.17-13.12Zm16.72,2.95.67.59.13-1.44.13,1.44.67-.59-.59.67,1.44.13-1.44.13.59.67-.67-.6-.13,1.45-.13-1.45-.67.6.59-.67-1.44-.13,1.44-.13Zm-2.4,23.25-1.94-1.71-.37,4.18-.37-4.18-1.94,1.71,1.72-1.94L37,163.54l4.19-.37-1.72-1.94L41.43,163l.37-4.19.37,4.19,1.94-1.72-1.72,1.94,4.19.37-4.19.37Zm5.24,10.89-.67-.59-.13,1.44-.12-1.44-.67.59.59-.67-1.45-.13,1.45-.13-.59-.67.67.59.12-1.44.13,1.44.67-.59-.59.67,1.44.13-1.44.13Zm.2-16.2.59.67-.67-.59-.13,1.44-.13-1.44-.67.59.6-.67-1.45-.13,1.45-.13-.6-.67.67.6.13-1.45.13,1.45.67-.6-.59.67,1.44.13Zm.14-22.28,1,1.14-1.15-1-.22,2.48-.22-2.48-1.15,1,1-1.14L46.51,138l2.48-.23-1-1.14,1.15,1,.22-2.48.22,2.48,1.15-1-1,1.14,2.49.23Zm5.43-18.51,1.15,1,.22-2.48.22,2.48,1.15-1-1,1.15,2.48.22-2.48.22,1,1.15-1.15-1L56.49,124l-.22-2.48-1.15,1,1-1.15-2.48-.22,2.48-.22Zm2.53,25.37-.67-.59L56.86,146l-.13-1.45-.67.59.59-.67-1.44-.12,1.44-.13-.59-.67.67.59.13-1.44.12,1.44.67-.59-.59.67,1.45.13-1.45.12ZM59,174.47l-1.15-1-.22,2.48-.22-2.48-1.15,1,1-1.14-2.48-.23,2.48-.22-1-1.14,1.15,1,.22-2.48.22,2.48,1.15-1-1,1.14,2.49.22-2.49.23Zm2.62-11.22-.67-.59-.13,1.44-.13-1.44-.67.59.59-.67-1.44-.13,1.44-.13-.59-.66.67.59.13-1.45.13,1.45.67-.59-.6.66,1.45.13-1.45.13Zm.24-7.72,12.18-12.18,2.86,2.85L64.76,158.38Zm5.48,38.1-.67-.59-.12,1.45L66.46,193l-.67.59.59-.66-1.44-.13,1.44-.13-.59-.67.67.59.13-1.44.12,1.44.67-.59-.59.67,1.44.13-1.44.13Zm3.41-11.54-1.15-1-.22,2.48-.22-2.48-1.15,1,1-1.14-2.48-.23,2.48-.22-1-1.15,1.15,1,.22-2.48.22,2.48,1.15-1-1,1.15,2.49.22-2.49.23Zm6.06-.57-.67-.59-.12,1.44-.13-1.44-.67.59.59-.67-1.44-.13,1.44-.12-.59-.67.67.59.13-1.45.12,1.45.67-.59-.59.67,1.45.12-1.45.13Zm4.27-22.86L81,160.11l-.13-1.45-.67.6.59-.67-1.44-.13,1.44-.13-.59-.67.67.59.13-1.44.12,1.44.67-.59-.59.67,1.45.13-1.45.13.59.67Zm3.67,42.13-.67-.59L84,201.64l-.13-1.44-.67.59.59-.67L82.34,200l1.44-.13-.59-.66.67.59.13-1.45.13,1.45.67-.59-.59.66,1.44.13-1.44.13Zm17-6,5.37,6.07-6.07-5.37L100,208.6l-1.16-13.11-6.07,5.37,5.37-6.07L85,193.63l13.11-1.17-5.37-6.07,6.07,5.38L100,178.65l1.17,13.12,6.07-5.38-5.37,6.07L115,193.63Zm17.31-6.06-1.14-1-.22,2.48-.23-2.48-1.14,1,1-1.15-2.48-.22,2.48-.22-1-1.15,1.14,1,.23-2.49L118,187l1.14-1-1,1.15,2.48.22-2.48.22Zm-5.24-26.94,8.28-8.28,8.28,8.28-8.28,8.28Zm18.22,1.67,8.28,8.27L132.13,180l-8.27-8.28Zm-1,33.83-1.94-1.72-.37,4.19-.37-4.19-1.94,1.72,1.71-1.94L124,195l4.18-.38-1.71-1.93,1.94,1.71.37-4.19.37,4.19,1.94-1.71-1.72,1.93,4.19.38-4.19.37Zm18.29-14.64a10.34,10.34,0,0,1-14.61,0l-1-1,8.28-8.28,8.27,8.28Zm-5.75-10.8,8.28-8.28,8.27,8.28-8.27,8.28Zm13.63,13.47-.13-1.45-.67.59.6-.66-1.45-.13,1.45-.13-.6-.67.67.59.13-1.44.13,1.44.67-.59-.59.67,1.44.13-1.44.13.59.66-.67-.59Zm4.88,4.2-1.15-1-.22,2.49-.23-2.49-1.14,1,1-1.15-2.48-.22,2.48-.22-1-1.15,1.14,1,.23-2.48.22,2.48,1.15-1-1,1.15,2.48.22-2.48.22Zm5.41-16.2-.12,1.45-.13-1.45-.67.59.59-.66-1.44-.13,1.44-.13-.59-.67.67.59.13-1.44.12,1.44.67-.59-.59.67,1.45.13-1.45.13.59.66Zm3.41,5.23-.67-.59-.13,1.44L170,178l-.67.59.59-.67-1.44-.13,1.44-.13-.59-.67.67.6.13-1.45.13,1.45.67-.6-.6.67,1.45.13-1.45.13Zm7.37-5.33-1.15-1-.22,2.48-.22-2.48-1.15,1,1-1.15-2.48-.22,2.48-.22-1-1.15,1.15,1L177,169l.22,2.49,1.15-1-1,1.15,2.48.22-2.48.22Zm4.52-14.11-.22,2.49-.22-2.49-1.15,1,1-1.15-2.48-.22,2.48-.22-1-1.15,1.15,1,.22-2.48.22,2.48,1.15-1-1,1.15,2.48.22L183,159l1,1.15Zm3.9,5.24-.67-.59-.13,1.45-.13-1.45-.67.59.6-.67-1.45-.12,1.45-.13-.6-.67.67.59.13-1.44.13,1.44.67-.59-.59.67,1.44.13-1.44.12Zm3.66-14.44-.67-.59-.13,1.45-.13-1.45-.66.59.59-.67-1.45-.12,1.45-.13-.59-.67.66.59.13-1.44.13,1.44.67-.59-.59.67,1.44.13-1.44.12Zm3.69-9.8-.66-.59-.13,1.44-.13-1.44-.67.59.59-.67-1.44-.13,1.44-.13-.59-.66.67.59.13-1.45.13,1.45.66-.59-.59.66,1.45.13-1.45.13Zm7.22-5.74-.67-.59-.13,1.44-.13-1.44-.67.59.6-.67-1.45-.13,1.45-.12-.6-.67.67.59.13-1.45.13,1.45.67-.59-.59.67,1.44.12-1.44.13Zm-8.88-19.91,5.37,6.06-6.07-5.37-1.16,13.12-1.17-13.12-6.07,5.37,5.37-6.06-13.11-1.17,13.11-1.17-5.37-6.06,6.07,5.37,1.17-13.11,1.16,13.11,6.07-5.37-5.37,6.06,13.11,1.17Zm14-5.9-.13,1.44-.13-1.44-.67.59.6-.67-1.45-.13,1.45-.13-.6-.67.67.59.13-1.44.13,1.44.67-.59-.59.67,1.44.13-1.44.13.59.67Z" transform="translate(-10 -10)"/>
</svg>
