<svg id="Layer_1" data-name="Layer 1" xmlns="http://www.w3.org/2000/svg" viewBox="0 0 200 200">
  <g>
    <polygon points="103.66 129.91 113.83 126.73 103.66 109.11 103.66 129.91"/>
    <path d="M110,10A100,100,0,1,0,210,110,100,100,0,0,0,110,10Zm90.48,91.26-.93,1,2.27.21-2.27.2.93,1-1-.93-.2,2.27-.2-2.27-1.05.93.93-1-2.27-.2,2.27-.21-.93-1,1.05.93.2-2.27.2,2.27Zm-12-26.64-3.43-3.87,3.87,3.42.75-8.36.74,8.36,3.87-3.42-3.43,3.87,8.37.74-8.37.75L194.29,80l-3.87-3.42-.74,8.36-.75-8.36L185.06,80l3.43-3.86-8.37-.75ZM180.12,89.4l.51,5.74,2.66-2.35-2.35,2.66,5.74.51-5.74.51,2.35,2.66-2.66-2.36-.51,5.75-.51-5.75L177,99.13l2.35-2.66L173.57,96l5.74-.51L177,92.79l2.65,2.35Zm-2.71,26-1-.93-.2,2.27-.2-2.27-1.05.93.93-1.05-2.27-.2,2.27-.21-.93-1,1.05.93.2-2.27.2,2.27,1-.93-.93,1,2.27.21-2.27.2Zm-3.74-60.26,1.05.93.21-2.27.2,2.27,1.05-.93-.93,1,2.27.2-2.27.2.93,1.05-1.05-.93-.2,2.27-.21-2.27-1.05.93.93-1.05-2.27-.2,2.27-.2ZM160.14,52.6l13.29,32.79-4.28,1.73L155.86,54.33ZM170.26,147l-1.63-1.44-.31,3.52-.31-3.52L166.38,147l1.44-1.62-3.51-.32,3.51-.31-1.44-1.63,1.63,1.44.31-3.51.31,3.51,1.63-1.44-1.44,1.63,3.51.31-3.51.32Zm-2.11-44-1.05-.93-.2,2.27-.2-2.27-1,.93.93-1-2.27-.2,2.27-.2-.93-1,1,.93.2-2.27.2,2.27,1.05-.93-.93,1,2.27.2-2.27.2Zm-1.54-17.06-19.32,7.83-11.75-29L154.86,57Zm-29.44,25.91-2.66-2.35-.51,5.74-.51-5.74-2.66,2.35,2.36-2.66-5.75-.51,5.75-.51-2.36-2.66,2.66,2.36.51-5.75.51,5.75,2.66-2.36-2.35,2.66,5.74.51-5.74.51Zm-56.5,4.88-8.93-22L135.18,69l8.93,22ZM63,74.32l5.74-.51-2.35-2.66,2.66,2.35.51-5.74.51,5.74,2.65-2.35-2.35,2.66,5.74.51-5.74.51,2.35,2.65-2.65-2.35-.51,5.74-.51-5.74-2.66,2.35,2.35-2.65ZM85.73,63.87l1.63,1.44.31-3.52L88,65.31l1.63-1.44-1.44,1.62,3.51.32-3.51.31,1.44,1.62L88,66.31l-.31,3.51-.31-3.51-1.63,1.43,1.44-1.62-3.51-.31,3.51-.32Zm22-2.54,1.63,1.44.31-3.52.31,3.52,1.63-1.44L110.15,63l3.51.31-3.51.32,1.44,1.62L110,63.76l-.31,3.52-.31-3.52-1.63,1.44,1.44-1.62-3.51-.32,3.51-.31ZM144,30.18l2.65,2.35.51-5.74.51,5.74,2.66-2.35-2.35,2.66,5.74.51-5.74.51,2.35,2.65-2.66-2.35-.51,5.74-.51-5.74L144,36.51l2.35-2.65-5.74-.51,5.74-.51ZM135.34,56l1,.93.2-2.27.2,2.27,1.05-.93-.92,1.05,2.27.2-2.27.2.92,1-1.05-.93-.2,2.27-.2-2.27-1,.93.93-1-2.27-.2,2.27-.2Zm-9.15-30.5,1,.93.2-2.27.21,2.27,1-.93-.93,1.05,2.27.2-2.27.2L128.7,28l-1-.93-.21,2.27-.2-2.27-1,.93.93-1.05-2.27-.2,2.27-.2ZM106.41,29l6.08,5.39,1.17-13.16,1.18,13.16L120.92,29l-5.39,6.09,13.16,1.17-13.16,1.17,5.39,6.09-6.08-5.39-1.18,13.16-1.17-13.16-6.08,5.39,5.39-6.09L98.64,36.29l13.16-1.17ZM94.07,78.91l.21-2.27.2,2.27,1-.93-.93,1,2.27.2-2.27.2.93,1-1-.93-.2,2.27-.21-2.27-1,.93.93-1-2.27-.2L94,79,93,78ZM85.73,20.84l1.63,1.44.31-3.52L88,22.28l1.63-1.44-1.44,1.63,3.51.31-3.51.31,1.44,1.63L88,23.28l-.31,3.51-.31-3.51-1.63,1.44,1.44-1.63-3.51-.31,3.51-.31Zm-8.21,24,3.87,3.43.74-8.37.74,8.37,3.87-3.43-3.42,3.87,8.36.75-8.36.74,3.42,3.87-3.87-3.43L82.13,59l-.74-8.37-3.87,3.43,3.42-3.87-8.36-.74,8.36-.75ZM67.94,28.9l1,.92.2-2.27.2,2.27,1-.92L69.51,30l2.27.2-2.27.2.93,1-1-.93-.2,2.27L69,30.47l-1,.93.93-1-2.27-.2,2.27-.2ZM62.75,55.17l1,.93L64,53.83l.2,2.27,1.05-.93-.93,1,2.27.2-2.27.2.93,1.05-1.05-.93L64,59l-.21-2.27-1,.93.93-1.05-2.27-.2,2.27-.2Zm0,31.59-.93-1.05,1,.93.2-2.27.2,2.27,1-.93-.93,1.05,2.27.2-2.27.2.93,1-1-.93L63,89.56l-.2-2.28-1,.93.93-1L60.43,87Zm8.56,11.83,6.36,15.68-15.68,6.36L55.58,105ZM47.94,45.36l1.62,1.44.32-3.51.31,3.51,1.63-1.44L50.38,47l3.51.31-3.51.32,1.44,1.62L50.19,47.8l-.31,3.52-.32-3.52-1.62,1.44,1.44-1.62-3.52-.32L49.38,47Zm3.57,20.28-1-.93L50.26,67l-.2-2.27L49,65.64l.93-1-2.27-.2,2.27-.21L49,63.13l1.05.93.2-2.27.2,2.27,1-.93-.93,1.05,2.27.21-2.27.2ZM33.78,56l1,.93L35,54.7l.2,2.27L36.28,56l-.93,1.05,2.27.2-2.27.2.93,1-1.05-.93L35,59.88l-.2-2.27-1,.93.93-1-2.27-.2,2.27-.2ZM28,71.85l1.05.93.21-2.28.2,2.28,1-.93-.93,1.05,2.27.2-2.27.2.93,1-1-.93-.2,2.27L29,73.42,28,74.35l.93-1-2.27-.2,2.27-.2Zm6.86,13.5-5.39-6.09,6.09,5.39,1.17-13.16,1.17,13.16,6.08-5.39-5.38,6.09,13.15,1.17L38.56,87.69l5.38,6.08-6.08-5.38-1.17,13.15L35.52,88.39l-6.09,5.38,5.39-6.08L21.66,86.52Zm15.06,46-3.52.32,1.44,1.62-1.62-1.44-.32,3.52-.31-3.52-1.62,1.44,1.43-1.62-3.51-.32,3.51-.31-1.43-1.62,1.62,1.43.31-3.51.32,3.51,1.62-1.43L46.36,131Zm-8.86-16L40,114.42l-.2,2.27-.2-2.27-1,.93.93-1-2.27-.2,2.27-.2-.93-1.05,1,.93.2-2.27.2,2.27,1.05-.93-.93,1.05,2.27.2-2.27.2ZM21.13,99.27l-.2,2.27-.2-2.27-1.05.93.93-1-2.27-.21,2.27-.2-.93-1,1.05.93.2-2.27.2,2.27,1.05-.93-.92,1,2.27.2-2.27.21.92,1Zm7.61,45.5-1-.93-.2,2.27-.2-2.27-1.05.93.93-1.05-2.27-.2,2.27-.2-.93-1,1.05.93.2-2.27.2,2.27,1-.93-.93,1,2.27.2-2.27.2Zm1-19.19-.51,5.74-.52-5.74-2.65,2.35,2.35-2.65-5.74-.51,5.74-.51-2.35-2.66L28.7,124l.52-5.74.51,5.74,2.65-2.35L30,124.26l5.74.51-5.74.51,2.35,2.65Zm13.38,30.21-.75,8.37-.74-8.37-3.87,3.43,3.42-3.87-8.36-.74,8.36-.75L37.75,150l3.87,3.43.74-8.37.75,8.37L47,150l-3.43,3.87,8.37.75-8.37.74L47,159.22ZM53,177.72l-1-.93-.21,2.27-.2-2.27-1,.93.93-1.05-2.27-.2,2.27-.2-.93-1.05,1,.93.2-2.27.21,2.27,1-.93L52,176.27l2.27.2-2.27.2Zm-6.4-72.11,6.2-2.52,8.44,20.83L55,126.43Zm16.76,50.33L63,159.45l-.31-3.51-1.63,1.44,1.44-1.63L59,155.44l3.51-.31-1.44-1.63,1.63,1.44.31-3.51.31,3.51L65,153.5l-1.44,1.63,3.52.31-3.52.31L65,157.38Zm7.29,14.4-2.27.2.93,1.05-1-.93-.2,2.27-.2-2.27-1,.93.93-1.05-2.27-.2,2.27-.2-.93-1,1,.93.2-2.27.2,2.27,1-.93-.93,1Zm4.54,21.16-2.66-2.35L72,194.89l-.51-5.74-2.65,2.35,2.35-2.66-5.74-.51,5.74-.51-2.35-2.65,2.65,2.35.51-5.74.51,5.74,2.66-2.35-2.35,2.65,5.74.51-5.74.51Zm-2.35-59.67,2.35,2.66-2.66-2.35L72,137.88l-.51-5.74-2.65,2.35,2.35-2.66-5.74-.51,5.74-.51-2.35-2.65,2.65,2.35.51-5.74.51,5.74,2.66-2.35-2.35,2.65,5.74.51Zm20.51,47.71L93,176l-1.62,1.44,1.43-1.62-3.51-.31,3.51-.32-1.43-1.62L93,175l.31-3.52.32,3.52,1.62-1.44-1.44,1.62,3.52.32-3.52.31,1.44,1.62L93.64,176Zm4.8,14-1.05-.93-.2,2.27-.2-2.27-1,.93.93-1.05-2.27-.21,2.27-.2L95.62,191l1,.93.2-2.27.2,2.27,1.05-.93-.93,1.05,2.27.2-2.27.21ZM97.81,159l.93,1-1-.93-.2,2.27-.2-2.27-1.05.93.93-1-2.27-.2,2.27-.21-.93-1.05,1.05.93.2-2.27.2,2.27,1-.93-.93,1.05,2.27.21Zm32.13,33.67-6.08-5.39-1.18,13.16-1.17-13.16-6.08,5.39,5.39-6.09-13.16-1.17,13.16-1.17-5.39-6.09,6.08,5.39,1.17-13.16,1.18,13.16,6.08-5.39-5.39,6.09,13.16,1.17-13.16,1.17ZM122.58,155l1,.93.2-2.27.2,2.27,1-.93-.93,1.05,2.27.2-2.27.2.93,1-1-.93-.2,2.27-.2-2.27-1,.93.93-1-2.27-.2,2.27-.2Zm18.69,5.61-.15.09a3,3,0,0,1-4.11-1.09l-10.23-17.74-13.12,3.88v16.74a3,3,0,0,1-6,0V145.7l-13.11-3.88L84.31,159.56a3,3,0,0,1-4.1,1.09l-.16-.09a3,3,0,0,1-1.1-4.1l27.93-48.37,6.11-2.48,1.86,3.18,27.52,47.67A3,3,0,0,1,141.27,160.56Zm3.44-20.74-1.62-1.44-.32,3.51-.31-3.51-1.62,1.44,1.44-1.63-3.52-.31,3.52-.31-1.44-1.63,1.62,1.44.31-3.51.32,3.51,1.62-1.44-1.44,1.63,3.52.31-3.52.31Zm2.35-34,3.52-.32-1.44-1.62,1.62,1.44.32-3.52.31,3.52,1.62-1.44-1.44,1.62,3.52.32-3.52.31L153,107.7l-1.62-1.44-.31,3.52-.32-3.52-1.62,1.44,1.44-1.62Zm5.65,51.43-.2-2.27-1,.93.93-1.05-2.27-.2,2.27-.21-.93-1.05,1,.93.2-2.27.2,2.27,1.05-.93L153,154.4l2.27.21-2.27.2.93,1.05-1.05-.93Zm4.65,32.38-1.05-.93-.2,2.27-.21-2.27-1.05.93.93-1.05-2.27-.2,2.27-.2-.93-1,1.05.93.21-2.27.2,2.27,1.05-.93-.93,1,2.27.2-2.27.2Zm3.27-56.3-.75-8.36L156,128.34l3.42-3.87-8.36-.74,8.36-.74L156,119.12l3.86,3.42.75-8.36.74,8.36,3.87-3.42L161.82,123l8.36.74-8.36.74,3.42,3.87-3.87-3.42Zm10.86,38.86-2.66-2.36-.51,5.75-.51-5.75-2.66,2.36,2.35-2.66-5.74-.51,5.74-.51-2.35-2.66,2.66,2.35.51-5.74.51,5.74,2.66-2.35-2.36,2.66,5.74.51-5.74.51Zm15.32-14-1.05-.93-.2,2.27-.2-2.27-1.05.93.93-1.05-2.27-.2,2.27-.2-.93-1,1.05.93.2-2.27.2,2.27,1.05-.93-.93,1,2.28.2-2.28.2Zm2.52-28.39-1.17,13.15L187,129.72l-6.08,5.38,5.39-6.08-13.16-1.17,13.16-1.17-5.39-6.09L187,126l1.18-13.16L189.33,126l6.08-5.39L190,126.68l13.16,1.17L190,129l5.39,6.08Z" transform="translate(-10 -10)"/>
    <polygon points="97.66 129.91 97.66 109.11 87.49 126.73 97.66 129.91"/>
  </g>
</svg>
