<svg id="Layer_1" data-name="Layer 1" xmlns="http://www.w3.org/2000/svg" viewBox="0 0 200 200">
  <g>
    <polygon points="162.92 64.41 157.38 68.5 158.48 68.6 160.94 66.83 160.66 66.8 161.02 66.77 161.25 66.6 161.08 66.41 161.28 66.58 161.43 66.47 161.47 65.99 161.51 66.42 163 65.34 162.92 64.41"/>
    <path d="M192.4,63.17l.33-.29-.3.33.72.06-.72.06.3.33-.33-.29-.07.71-.06-.71-.33.29.29-.33-.6,0-3.75,2.58-.22.24.72.06-.72.07.29.33-.33-.3-.06.72-.06-.72-.33.3.29-.33h-.11L181,70.56l1.48.13-1.92.18-2.71,1.86v0l-1.33.92.8.9,16.35-11.41,0-.26,0,.23,3.32-2.31c-.17-.31-.34-.6-.52-.9l-4.17,2.86Z" transform="translate(-10 -10)"/>
    <polygon points="155.04 70.72 154.71 71.01 155 70.68 154.49 70.64 150.24 73.78 151.17 73.86 152.12 73.18 151.84 73.15 152.2 73.12 152.44 72.95 152.27 72.76 152.46 72.93 152.62 72.82 152.66 72.34 152.7 72.76 155.07 71.05 155.04 70.72"/>
    <polygon points="120.97 90.63 121.29 90.36 121.02 90.11 120.97 90.63"/>
    <path d="M197.34,61.31l-3.56,2.38.05.63,3.81-2.5Z" transform="translate(-10 -10)"/>
    <polygon points="121.05 90.07 121.3 90.35 121.69 90.02 121.05 90.07"/>
    <path d="M195.92,58.85c-.19-.34-.38-.67-.59-1L193.8,59l1,.09-1.2.11.49.55-.56-.49-.1,1.21-.1-1.09-4.55,3.36,1.6.15Z" transform="translate(-10 -10)"/>
    <polygon points="173.5 61.38 173.2 61.56 173.46 61.8 173.5 61.38"/>
    <polygon points="182.33 55.3 181.97 54.91 167.42 64.67 167.65 64.92 180.26 56.66 179.96 56.63 180.36 56.59 182.33 55.3"/>
    <polygon points="137.91 74.52 128.72 82.33 130.07 82.45 128.4 82.6 128.26 82.72 128.95 83.5 128.16 82.8 128.05 82.89 127.9 84.62 127.77 83.14 115.63 93.44 115.72 94.49 117.24 93.15 115.9 94.66 116.19 94.69 120.94 90.66 120.89 90.11 120.56 90.4 120.85 90.07 120.14 90.01 120.85 89.95 120.56 89.62 120.89 89.91 120.95 89.19 121.02 89.91 121.34 89.62 121.05 89.95 121.71 90 139.76 74.69 137.91 74.52"/>
    <polygon points="182.65 55.68 181.31 56.51 183.24 56.34 182.65 55.68"/>
    <polygon points="183.5 55.15 182.78 55.6 183.41 56.16 183.5 55.15"/>
    <polygon points="181.98 54.9 182.39 55.26 183.56 54.49 183.63 53.8 181.98 54.9"/>
    <polygon points="106.37 91.32 106.39 91.34 106.41 91.31 106.37 91.32"/>
    <polygon points="100.51 96.18 101.33 96.25 100.37 96.34 99.12 97.75 99.39 98.06 99.08 97.79 97.63 99.43 97.58 100 97.54 99.53 95.78 101.51 95.81 101.83 96.37 101.33 95.88 101.89 95.97 101.9 97.21 100.56 96 101.9 96.92 101.99 97.44 101.4 97.21 101.38 97.48 101.35 97.72 101.08 97.64 100.98 97.73 101.07 98.01 100.76 98.03 100.56 98.04 100.72 104.37 93.61 104.29 93.6 104.38 93.59 104.72 93.22 104.71 93.21 104.72 93.21 106.11 91.65 106.09 91.38 105.53 91.87 106.03 91.32 104.89 91.22 104.25 91.97 100.51 96.18"/>
    <polygon points="174.46 48.92 174.81 48.62 174.51 48.35 174.46 48.92"/>
    <polygon points="106.51 102.98 107.13 102.45 106.59 101.98 106.51 102.98"/>
    <polygon points="166.34 45.99 167.53 45.88 168.1 45.35 167.65 44.83 166.34 45.99"/>
    <polygon points="154.67 57.24 154.88 57.48 155.2 57.19 154.67 57.24"/>
    <polygon points="102.29 92.27 102.08 92.53 102.25 92.69 102.29 92.27"/>
    <polygon points="100.12 96.15 102.31 93.52 102.25 92.89 101.92 93.18 102.22 92.85 101.83 92.81 99.11 96.06 100.12 96.15"/>
    <path d="M108,121l.05-.66-.64.56.34.3Z" transform="translate(-10 -10)"/>
    <polygon points="106.26 101.98 105.38 102.76 106.16 101.88 105.73 101.85 99.89 106.8 100.33 106.84 103.51 104.19 100.43 106.85 100.44 106.85 100.42 106.85 99.27 107.84 99.28 107.85 104.08 103.89 98.29 108.86 98.27 109.02 98.26 108.89 84.28 120.91 91.27 115.5 89.31 117.25 89.33 117.55 106.36 103.11 106.26 101.98"/>
    <polygon points="102.22 92.72 102.06 92.54 101.89 92.75 102.22 92.72"/>
    <polygon points="106.7 101.88 107.17 102.42 107.93 101.77 106.7 101.88"/>
    <polygon points="81.8 123.95 88.75 118.05 88.49 118.03 88.81 118 89.05 117.79 88.91 117.63 89.07 117.78 89.27 117.61 89.3 117.26 81.8 123.95"/>
    <polygon points="77.42 119.65 78.29 118.64 78.15 118.62 77.01 120 77.42 119.65"/>
    <polygon points="127.57 61.27 128.18 60.54 127.02 60.65 127.57 61.27"/>
    <polygon points="136.33 54.51 136.59 54.2 136.37 54.01 136.33 54.51"/>
    <polygon points="136.27 53.56 136.14 53.71 136.25 53.81 136.27 53.56"/>
    <polygon points="131.65 60.13 136.29 54.55 136.25 54.01 135.92 54.3 136.21 53.98 135.94 53.95 130.85 60.06 131.65 60.13"/>
    <polygon points="136.41 53.98 136.6 54.19 136.81 53.94 136.41 53.98"/>
    <polygon points="139.42 50.67 139.09 50.96 139.38 50.63 138.75 50.58 136.34 53.47 136.37 53.81 136.7 53.52 136.41 53.85 136.85 53.89 139.43 50.8 139.42 50.67"/>
    <polygon points="130.38 60.34 128.84 60.48 127.88 61.62 128.6 62.43 130.38 60.34"/>
    <polygon points="157.01 29.69 157.11 29.57 156.92 29.59 157.01 29.69"/>
    <polygon points="156.83 29.91 156.96 29.75 156.85 29.65 156.83 29.91"/>
    <polygon points="136.21 53.85 136.11 53.74 136.01 53.87 136.21 53.85"/>
    <polygon points="156.3 31.91 156.3 31.91 156.29 31.91 156.3 31.91"/>
    <polygon points="154.56 57.77 154.85 57.52 154.6 57.3 154.56 57.77"/>
    <polygon points="150.98 36.92 150.99 36.92 151.13 36.75 150.98 36.92"/>
    <polygon points="156.34 31.86 156.33 31.87 156.34 31.87 156.34 31.86"/>
    <polygon points="169.43 46.38 169.44 46.39 169.46 46.38 169.43 46.38"/>
    <polygon points="177.48 42.87 163.66 54.54 163.73 55.26 165.07 54.11 164.78 54.09 165.14 54.05 165.36 53.87 165.21 53.69 165.38 53.85 165.56 53.69 165.6 53.27 165.63 53.63 175.58 45.12 175.26 45.09 175.65 45.06 175.85 44.89 175.68 44.7 175.87 44.87 176.04 44.73 176.08 44.28 176.11 44.67 177.53 43.45 177.48 42.87"/>
    <polygon points="174.55 48.32 174.82 48.62 175.26 48.25 174.55 48.32"/>
    <polygon points="169.71 52.34 169.97 52.64 170.4 52.28 169.71 52.34"/>
    <polygon points="155.87 57.13 155.85 57.13 155.13 57.76 155.16 57.79 155.13 57.76 154.51 58.29 154.5 58.51 154.48 58.32 150.87 61.45 150.95 62.28 151.83 61.5 151.15 62.26 163.4 51.64 163.4 51.58 163.41 51.63 166.17 49.23 166.17 49.17 165.84 49.46 166.13 49.13 165.41 49.07 166.13 49.01 165.84 48.67 166.17 48.97 166.23 48.25 166.29 48.97 166.62 48.67 166.33 49.01 166.42 49.01 168.71 47.02 168.67 46.55 167.16 47.9 168.5 46.38 168.26 46.36 155.86 57.13 155.87 57.13"/>
    <polygon points="167.66 60.26 170.91 57.8 170.88 57.79 170.92 57.79 171.36 57.46 171.3 57.4 171.36 57.45 171.68 57.22 171.7 56.98 171.72 57.19 177.25 52.98 176.25 52.89 166.74 60.18 167.66 60.26"/>
    <polygon points="169.62 52.93 169.97 52.65 169.67 52.38 169.62 52.93"/>
    <path d="M184.34,49.28l-.46,0-.16.13.2.22-.22-.2-.13.12,0,.5,0-.43-4.42,3.9.08.83L181,52.68l-.6,0,.72-.07-.29-.33.33.29.06-.71,0,.62,6.17-5.66-.28-.36L184,49.25Z" transform="translate(-10 -10)"/>
    <polygon points="119.3 73.3 126.2 65.23 126.07 63.76 119.17 71.89 119.3 73.3"/>
    <polygon points="128.53 62.51 127.73 61.8 126.54 63.2 126.38 65.03 128.53 62.51"/>
    <polygon points="118.39 74.36 118.77 73.92 118.92 72.19 117.64 73.7 118.39 74.36"/>
    <polygon points="124.78 69.5 125.08 69.84 125.41 69.45 124.78 69.5"/>
    <polygon points="124.65 70.34 125.05 69.87 124.72 69.57 124.65 70.34"/>
    <polygon points="127.39 61.49 126.74 60.92 126.61 62.43 127.39 61.49"/>
    <polygon points="80.57 118.99 80.65 119.08 81.05 118.71 80.81 118.74 80.57 118.99"/>
    <polygon points="97.28 105.85 97.3 105.87 98.25 104.95 98.26 104.88 97.28 105.85"/>
    <polygon points="97.29 105.88 97.28 105.86 96.44 106.7 97.29 105.88"/>
    <polygon points="108.74 94.77 102.94 100.26 103.09 100.27 108.78 94.77 108.74 94.77"/>
    <polygon points="102.88 100.48 102.89 100.47 102.87 100.47 102.88 100.48"/>
    <polygon points="98.6 107.26 98.42 107.42 98.36 108.05 98.93 107.55 98.6 107.26"/>
    <path d="M171.88,31.48l-9.55,11.28.33,0-.39,0-.43.51.11.12-.12-.1-.53.62,0,.2V44l-9.09,10.73.3-.27-.78.88,1.9.17-1.9.17.78.88-.88-.78-.17,1.9-.16-1.87-12,14.1,1.33.12,5.22-6.1-.37,0,.43,0,.15-.17-.15-.18.17.15.19-.21,0-.36,0,.29,2.4-2.81h0l.33-.38.33.29.06-.71.06.71.33-.29-.29.33h.08L157.55,51l-.87-.07,1-.09.1-.13-.4-.45.45.4.13-.16.09-.95.07.77,2.58-3.11v0l-.55.49.49-.56L159.43,47l1.21-.1-.49-.56.55.49.11-1.2.11,1.2.48-.42,5.28-6.34,0-.44-.56.5.49-.56-1.2-.11,1.2-.1-.49-.56.56.49.11-1.2.1,1.2.56-.49-.49.56.33,0,1.68-2-.06-.64-.33.3.3-.33-.72-.07.72-.06-.3-.33.33.29.07-.71.06.71.33-.29-.29.33.52,0,3.51-4.22Z" transform="translate(-10 -10)"/>
    <polygon points="98.29 104.85 98.29 104.91 102.61 100.73 102.6 100.58 101.73 101.41 98.29 104.85"/>
    <polygon points="98.15 107.67 91.52 113.78 91.67 113.79 91.48 113.81 91.17 114.1 91.25 114.19 91.16 114.11 90.87 114.37 90.85 114.61 90.83 114.41 86.62 118.28 98.24 108.59 98.2 108.24 95.36 110.65 98.2 108.19 98.15 107.67"/>
    <polygon points="80.5 119.07 80.23 119.37 80.23 119.44 80.58 119.14 80.5 119.07"/>
    <polygon points="102.81 100.53 102.81 100.54 102.82 100.54 102.81 100.53"/>
    <polygon points="104.7 101.75 104.58 101.74 103.24 102.98 104.7 101.75"/>
    <polygon points="80.01 119.64 80.01 119.62 79.93 119.71 80.01 119.64"/>
    <polygon points="108.92 94.6 108.97 94.6 109.04 94.53 109.02 94.51 108.92 94.6"/>
    <polygon points="95.04 102.67 95.53 102.11 95.27 102.08 93.4 104.19 93.4 104.19 87.4 111.13 95.61 102.29 95.6 102.17 95.04 102.67"/>
    <polygon points="96.34 102.64 96.89 102.02 95.88 102.11 96.34 102.64"/>
    <polygon points="95.53 101.89 95.49 101.84 95.43 101.9 95.53 101.89"/>
    <polygon points="81.28 118.52 85.31 114.95 88.03 112.01 90.05 109.77 89.83 109.95 95.7 103.36 95.61 102.34 81.03 118.49 81.28 118.52"/>
    <polygon points="108.83 94.61 108.99 94.47 108.84 94.3 108.5 94.64 108.83 94.61"/>
    <polygon points="98.36 108.11 98.32 108.52 99.2 107.79 98.97 107.59 98.36 108.11"/>
    <polygon points="95.54 101.78 95.6 101.83 95.61 101.7 95.54 101.78"/>
    <polygon points="95.71 103.35 96.34 102.64 95.81 102.17 95.71 103.35"/>
    <polygon points="104.86 93.34 105.08 93.1 105.09 92.98 104.81 93.3 104.86 93.34"/>
    <polygon points="105.13 93.05 106.14 91.93 106.13 91.8 105.12 92.95 105.13 93.05"/>
    <polygon points="108.66 94.76 108.4 94.74 106.15 96.99 108.66 94.76"/>
    <polygon points="106.28 91.62 106.27 91.78 106.49 91.54 106.41 91.47 106.28 91.62"/>
    <polygon points="104.6 93.63 104.53 93.62 101.63 96.93 104.6 93.63"/>
    <polygon points="104.66 93.57 104.85 93.36 104.8 93.31 104.57 93.58 104.66 93.57"/>
    <polygon points="163.59 53.72 168.88 48.89 168.83 48.28 163.51 52.8 163.59 53.72"/>
    <polygon points="156.62 60.49 157.74 60.39 160.52 58.01 160.11 57.54 156.62 60.49"/>
    <polygon points="158.03 60.36 160.98 60.1 161.78 59.44 160.64 58.15 158.03 60.36"/>
    <polygon points="159.9 57.09 163.18 54.1 163.28 52.99 159.19 56.46 159.9 57.09"/>
    <path d="M163,72.55l-1,.09-.53.45.45.5-.51-.45-.44.37-.1,1.21-.1-1L156.77,77l.14,1.61,2.8-2.38-2.79,2.45.07.89,3.54-3h0l6.56-5.61-.91-.08-1.14,1h0l.71.06L165,72l.29.33L165,72l-.06.71-.07-.71-.33.29.15-.16-4.15,3.5,4.05-3.69-.47,0,.57-.05.09-.08-.24-.26.27.23.07-.07.06-.59,0,.5.83-.75-1.51-.14,1.83-.16,3.67-3.34-.62-.71-7.06,6Z" transform="translate(-10 -10)"/>
    <polygon points="150.43 67.3 150.17 67.01 149.75 67.36 150.43 67.3"/>
    <polygon points="150.51 66.72 150.17 67 150.47 67.26 150.51 66.72"/>
    <polygon points="154.12 56.79 153.81 57.07 154.32 57.02 154.12 56.79"/>
    <polygon points="170.04 47.25 169.13 48.03 169.06 48.73 170.37 47.54 170.04 47.25"/>
    <polygon points="145.29 67.34 146.28 66.48 146.38 65.36 144.84 66.7 144.34 67.25 145.29 67.34"/>
    <polygon points="144.34 67.47 144.69 67.86 145.24 67.39 144.34 67.47"/>
    <polygon points="154.43 56.52 154.16 56.76 154.39 56.96 154.43 56.52"/>
    <polygon points="115.6 93.09 127.47 82.8 127.63 82.62 125.73 82.45 127.63 82.28 126.85 81.4 127.73 82.18 127.9 80.28 128.07 82.18 128.95 81.4 128.51 81.9 137.1 74.45 136.15 74.37 137.31 74.26 142.13 70.08 141.5 69.37 142.22 70 144.13 68.34 144.06 67.53 143.5 68.03 144 67.47 142.79 67.36 144 67.25 143.5 66.7 144.06 67.19 144.17 65.99 144.28 67.19 144.84 66.7 146.39 65.27 146.5 64.02 146.59 65.08 149.29 62.61 148.61 62.55 149.44 62.47 150.08 61.89 149.73 61.5 150.12 61.85 150.69 61.32 150.78 60.38 150.85 61.18 154.44 57.89 154.39 57.3 153.83 57.79 154.32 57.24 153.68 57.18 147.64 62.52 147.94 62.55 147.57 62.58 147.37 62.76 147.52 62.94 147.34 62.78 147.17 62.94 147.13 63.36 147.1 63 140.81 68.56 141.65 68.64 140.62 68.73 140.09 69.19 140.53 69.69 140.03 69.25 139.58 69.64 139.48 70.81 139.39 69.81 136.08 72.74 135.66 73.13 135.93 73.15 135.6 73.18 135.08 73.66 135.22 73.82 135.06 73.68 134.59 74.11 134.55 74.53 134.52 74.17 129.97 78.37 130.47 78.41 129.86 78.47 129.5 78.8 129.75 79.08 129.47 78.83 129.15 79.12 129.09 79.79 129.04 79.22 115.48 91.71 115.6 93.09"/>
    <polygon points="166.13 46.17 163.27 48.7 163.75 48.74 163.16 48.8 162.79 49.13 163.04 49.41 162.75 49.16 162.44 49.44 162.38 50.12 162.32 49.54 154.56 56.41 154.6 56.96 155.16 56.46 154.67 57.02 155.32 57.08 167.12 46.26 166.13 46.17"/>
    <polygon points="150.27 61.98 150.61 62.28 150.66 61.63 150.27 61.98"/>
    <polygon points="104.66 101.68 104.81 101.67 105.08 101.44 104.83 101.66 105.82 101.58 106.03 101.4 105.55 100.86 104.66 101.68"/>
    <polygon points="87.37 109.08 87.51 109.24 87.67 109.06 87.37 109.08"/>
    <polygon points="79.96 119.14 79.94 118.93 77.99 121.26 79.96 119.14"/>
    <polygon points="81.16 117.56 80.38 118.44 80.59 118.45 83.92 114.88 81.61 117 94.99 102.06 94.33 102 95.1 101.93 95.33 101.67 95.04 101.33 95.37 101.63 95.64 101.33 95.7 100.62 95.76 101.2 97.51 99.24 97.41 98.09 91.32 105.36 91.47 105.37 91.29 105.39 84.44 113.57 84.66 113.59 84.4 113.61 84.16 113.9 84.24 113.98 84.15 113.91 83.86 114.26 83.85 114.41 83.84 114.28 80.91 117.78 81.16 117.56"/>
    <polygon points="87.3 109.48 87.49 109.26 87.34 109.12 87.3 109.48"/>
    <polygon points="89.27 107.21 89.27 107.19 88.63 107.95 89.27 107.21"/>
    <polygon points="143.72 71.33 146.02 69.37 146.19 67.5 142.72 70.44 143.72 71.33"/>
    <path d="M155.92,80.49l.09-1c-.66.59-1.4,1.23-2.21,1.93l.52.46Z" transform="translate(-10 -10)"/>
    <polygon points="106.16 101.55 106.13 101.51 106.08 101.55 106.16 101.55"/>
    <polygon points="149.52 62.63 146.6 65.16 146.69 66.13 150.12 63.16 150.51 62.72 149.52 62.63"/>
    <polygon points="144.21 68.28 144.67 67.88 144.28 67.53 144.21 68.28"/>
    <polygon points="150.21 62.03 149.73 62.45 150.51 62.38 150.21 62.03"/>
    <polygon points="90.11 106.21 89.34 107.11 89.34 107.13 90.13 106.22 90.11 106.21"/>
    <path d="M140.61,48.49l1.89-1.66-1.67,1.88,3.06.27.86-1.25-.41,0,.47,0,.35-.51-.11-.11.12.1.55-.8h0l5.88-8.5-4.16-.37-7,9.47Zm8.23-9.19.33.29.06-.71.07.71.33-.29-.3.33.72.07-.72.06.3.33-.33-.29-.07.71-.06-.71-.33.29.29-.33-.71-.06.71-.07Zm-4.25,3.35.56.49.11-1.21.1,1.21.56-.49-.49.55,1.2.11-1.2.11.49.56-.56-.5-.1,1.21-.11-1.21-.56.5.49-.56-1.2-.11,1.2-.11Z" transform="translate(-10 -10)"/>
    <polygon points="104.71 108.26 104.44 107.96 103.96 108.33 104.71 108.26"/>
    <polygon points="95.53 114.86 95.5 114.82 95.44 114.87 95.53 114.86"/>
    <polygon points="98.2 111.71 98.45 111.99 98.85 111.65 98.2 111.71"/>
    <polygon points="98.09 112.28 98.41 112.02 98.14 111.77 98.09 112.28"/>
    <path d="M125.18,105.82c-1.64,1.35-3.15,2.57-4.47,3.61l0,.4.56-.49-.5.55L122,110l-1.21.11.5.55-.56-.49-.11,1.21-.11-1.21-.55.49.49-.55-.56,0-.65.5.6-.51-.6,0,.74-.07.29-.24-.31-.35.36.31.23-.19.07-.84.07.72,4.44-3.78v-.14l-1.52,1.34,1.35-1.51-1.33-.12-7.07,6,0,.3.87-.77-.77.88,1.36.12.54-.46-.53.46.53,0-.65.06-.77.66.29.33-.33-.29-.64.55-.07.87-.07-.74-8.32,7.2,0,.58,3.67-3-3.66,3.16,0,.34.55-.49-.49.55.76.07L125.37,108Z" transform="translate(-10 -10)"/>
    <polygon points="104.48 107.93 104.78 108.2 104.83 107.67 104.48 107.93"/>
    <polygon points="105.48 108.96 106.26 108.37 105.06 108.48 105.48 108.96"/>
    <polygon points="104.22 109.04 104.71 108.48 103.87 108.4 98.04 112.87 98.03 112.98 98.02 112.89 95.79 114.59 95.81 114.8 96.37 114.3 95.88 114.86 97.08 114.97 95.88 115.08 96.37 115.63 95.81 115.14 95.71 116.28 104.86 109.42 104.78 108.54 104.22 109.04"/>
    <polygon points="106.3 112.2 105.88 112.51 106.24 112.84 106.3 112.2"/>
    <polygon points="145.87 77.67 145.82 77.04 143.5 78.75 143.56 79.34 144.07 78.97 144.12 78.92 144.1 78.95 145.87 77.67"/>
    <path d="M113.81,120.68l2,1.76.52-.37.32-3.56Z" transform="translate(-10 -10)"/>
    <path d="M193.62,69.42l-.21-2.32-1.51,1.34,1.34-1.52-2.26-.2-7.43,4.63,0,.45.33-.29-.29.33.71.06-.71.06.29.33-.33-.29-.07.71-.06-.71-.33.29.29-.33-.71-.06.71-.06-.23-.27L177.7,75l.1.11-.11-.1-2.91,1.81,2.85-1.86-.27-.24-3.73,2.51-.23,2.6-.2-2.31L171,79l2.19-1.53-.12-1.4-1.08.73.3,0-.39,0-.22.15.19.2-.21-.18-.14.09-.05.52,0-.46-4.7,3.23,0,.42,0-.37-3.86,2.65.67.06-.71.07.29.33-.33-.3-.06.72-.06-.72-.33.3.2-.23-.85.58,5.23.47-6.78.6-1.53,1,3,3.34-3.42-3-.89.61-.66,7.44,3.69-2.48-.06-.59-.33.29.3-.33-.72-.06.72-.07-.3-.33.33.3.07-.72.06.72.33-.3-.29.33.71.07-.71.06.29.33-.33-.29,0,.57,8.38-5.64-.35,0,.46,0,.17-.12-.21-.23.25.21L169,86l.05-.57,0,.51,13.31-9-1.7-.15,1.9-.17-.77-.88.88.78.16-1.9.17,1.89.07,0,.81-.72-.37.43ZM188,71.51l.33.29.07-.72.06.72.33-.29-.29.33.71.06-.71.06.29.33-.33-.29-.06.71-.07-.71-.33.29.29-.33-.71-.06.71-.06ZM158.67,89.42l-.33-.29-.06.71-.06-.71-.33.29.29-.33-.71-.06.71-.07-.29-.33.33.3.06-.72.06.72.33-.3-.29.33.72.07-.72.06Zm5.63-2.54-.33-.29-.07.71-.06-.71-.33.29.29-.33-.71-.06.71-.07-.29-.33.33.3.06-.72.07.72.33-.3-.3.33.72.07-.72.06ZM171,82.24l-.88-.78-.17,1.9-.17-1.9-.88.78.78-.88-1.9-.17,1.9-.17-.78-.88.88.78.17-1.9.17,1.9.88-.78-.78.88,1.9.17-1.9.17Zm5.48-2-.33-.29-.07.71-.06-.71-.33.29.29-.33-.71-.06.71-.07-.29-.33.33.29L176,79l.07.71.33-.29-.29.33.71.07-.71.06Zm2.76-4.38-.33-.29-.07.71-.06-.71-.33.29.29-.33-.71-.07.71-.06L178.4,75l.33.29.06-.71.07.71.33-.29-.3.33.72.06-.72.07Z" transform="translate(-10 -10)"/>
    <polygon points="104.92 109.38 105.47 108.96 104.99 108.54 104.92 109.38"/>
    <path d="M107.67,121.28l-.3-.34-8,6.93v0l.33-.29-.3.33h0c2.75-2.22,5.55-4.5,7.78-6.32l-.56-.05.7-.06Z" transform="translate(-10 -10)"/>
    <polygon points="98.94 96.04 101.75 92.81 101.5 92.79 101.79 92.76 102.02 92.5 101.92 92.39 102.03 92.48 102.3 92.17 102.32 91.97 102.33 92.13 104.57 89.55 102.34 92.21 102.38 92.69 102.71 92.39 102.42 92.72 102.94 92.77 115.23 78.05 117.44 75.48 116.23 75.37 113.67 78.39 113.88 78.41 113.64 78.43 113.39 78.72 113.46 78.81 113.38 78.73 113.08 79.09 113.06 79.23 113.06 79.12 111.45 81.01 112.39 81.09 111.3 81.19 110.87 81.7 111.27 82.14 110.83 81.75 110.3 82.37 110.22 83.27 110.15 82.54 98.73 96.02 98.94 96.04"/>
    <polygon points="103.58 89.39 103.85 89.7 104.15 89.34 103.58 89.39"/>
    <polygon points="100.52 93.7 100.85 93.3 100.58 93.05 100.52 93.7"/>
    <polygon points="100.61 93.01 100.86 93.29 101.13 92.97 100.61 93.01"/>
    <polygon points="110.34 81.93 110.63 81.58 110.39 81.36 110.34 81.93"/>
    <polygon points="113.17 78.47 113.19 78.51 113.22 78.47 113.17 78.47"/>
    <polygon points="98.05 96.55 98.1 96.6 98.15 96.54 98.05 96.55"/>
    <polygon points="78.32 118.41 78.33 118.42 78.32 118.41 78.18 118.58 78.35 118.57 79.14 117.64 79.06 117.56 79.15 117.63 80.1 116.52 80.11 116.43 80.11 116.5 86.52 109.03 86.46 109.02 86.53 109.02 89.16 105.94 89.13 105.64 88.25 106.42 89.03 105.54 88.94 105.53 78.65 118.02 78.75 118.03 78.63 118.04 78.32 118.41"/>
    <path d="M87.37,128.05l-1.65,2.38c0,.07,0,.1.14,0s.85-.9,2-2.26v-.09l-.33.29.3-.33Z" transform="translate(-10 -10)"/>
    <polygon points="97.12 95.96 96.97 95.8 96.81 95.99 97.12 95.96"/>
    <polygon points="89.47 105.1 90.35 104.33 89.57 105.2 89.78 105.22 93.94 100.36 90 105.24 90.83 105.32 97.36 97.49 97.29 96.72 95.77 98.06 97.12 96.55 96.4 96.48 89.45 104.91 89.47 105.1"/>
    <path d="M99.12,128.08,97,130,99,128.3l.19-.21Z" transform="translate(-10 -10)"/>
    <polygon points="97.33 95.36 97.11 95.63 97.29 95.79 97.33 95.36"/>
    <polygon points="102.26 75.02 102.15 73.75 101.91 73.97 91.73 88.18 91.83 89.32 91.96 89.21 95.73 84.01 95.22 83.97 95.81 83.91 102.26 75.02"/>
    <polygon points="73.25 113.22 77.27 106.93 77 106.69 76.94 107.4 76.87 106.69 76.59 106.94 73.18 112.46 73.25 113.22"/>
    <polygon points="76.83 106.65 76.77 106.65 76.62 106.89 76.83 106.65"/>
    <path d="M111.54,125.49l.12-.09-.11-.1Z" transform="translate(-10 -10)"/>
    <path d="M111.59,125.26l.1.12.2-.14Z" transform="translate(-10 -10)"/>
    <polygon points="80.85 113.23 80.92 113.14 80.86 113.08 80.85 113.23"/>
    <polygon points="77.04 106.65 77.28 106.92 77.47 106.61 77.04 106.65"/>
    <polygon points="119.05 104.72 119.25 104.95 119.66 104.67 119.05 104.72"/>
    <path d="M115.53,122.63l-1.72-1.95-8.31,6.4-.69.78,1.9.17-1.9.17.78.87-.88-.77-.17,1.9-.17-1.9-.87.77.77-.87-.19,0L95.23,135l-3,2.48,1.1.1,7.87-6.12S95.59,136.07,95,137c-.33.51,8.46-5.72,16.46-11.45l0-.25-.33.29.29-.33-.72-.06.72-.06-.29-.33.33.29.06-.72.06.72.33-.29-.29.33.39,0,1.82-1.3-3.13-.28,4-.36Z" transform="translate(-10 -10)"/>
    <path d="M199.92,66.22l-6.21,4.08v0L184,76.7l1.11.1-1.45.13-.31.2.63.72-.73-.65-.17.11L182.91,79l-.13-1.48-13.22,8.7.34,0-.44,0-.19.12.21.23-.24-.21-.1.07,0,.56-.05-.5-37.27,24.53,24.7-16.63-.58-6.59-2.06,1.42-.2.22,1.2.11-1.2.11.49.56-.56-.5-.1,1.21-.11-1.21-.56.5.5-.56h-.09l-2,1.35v.08l.33-.3-.29.33.71.07-.71.06.29.33-.33-.29-.07.71-.06-.71-.33.29.29-.33h-.17l-.54.37.52-.38-.52,0,.66-.06,0,0-.28-.31.32.28h0l.06-.62-2.71,2,.17,1.94,1.85-1.64-1.64,1.85,4,.36-4,.35,1.64,1.86-1.85-1.64-.35,4-.36-4-1.85,1.64,1.64-1.86-3.38-.3-29.4,22.55,0,.62.56-.49-.49.55,1.2.11.41-.31,0-.51,0,.45,5.65-4.24v0l.63-.47,0-.26v.22l6.44-4.82h0l.42-.31-.06-.08.07.07.3-.22,0-.27,0,.23,6.75-5L130.31,108l0,.35.33-.29-.29.33.72.07-.72.06.29.33-.33-.29-.06.71-.06-.71-.33.29.29-.33-.48,0-6.59,5.07.06.72.56-.5-.49.56,1.2.11-1.2.11.49.55-.56-.49-.1,1.21-.11-1.21-.56.49.49-.55-1-.09-5.14,4,.28,3.13,7-5-7,5.14.11,1.21,2.44-2.17-1.56,1.77,10.59-7.1,0-.51-.88.77.78-.88-1.9-.16,1.9-.17-.78-.88.88.78.17-1.91.17,1.91.88-.78-.78.88.91.08,4.55-3-.06-.7-.33.3.29-.33-.71-.07.71-.06-.29-.33.33.29.06-.71.06.71.33-.29-.29.33.72.06-.72.07.29.33-.33-.3-.06.7,20-13.4-.06-.64-.33.3.29-.33-.71-.07.71-.06-.29-.33.33.29.06-.71.07.71.33-.29-.29.33.71.06-.71.07.29.33-.33-.3-.06.63,45.89-30.76C200.25,66.91,200.09,66.56,199.92,66.22ZM143.89,96l.33.29.07-.71.06.71.33-.29-.29.33.71.06-.71.07.29.33-.33-.29-.06.71-.07-.71-.33.29.3-.33-.72-.07.72-.06Zm0,3.6-.29-.33.33.29.06-.71.07.71.33-.29-.3.33.72.07-.72.06.3.33-.33-.29-.07.71-.06-.71-.33.29.29-.33-.71-.06Zm-3.66.49.33.29.06-.71.07.71.33-.29-.3.33.72.06-.72.06.3.33-.33-.29-.07.72-.06-.72-.33.29.29-.33-.71-.06.71-.06Zm-3.78,3.58.88.78.17-1.9.17,1.9.88-.78-.78.88,1.9.17-1.9.17.78.88-.88-.78-.17,1.9-.17-1.9-.88.78.78-.88-1.9-.17,1.9-.17Zm-14.9,14.07-.33-.3-.07.72-.06-.72-.33.3.29-.33-.71-.07.71-.06-.29-.33.33.29.06-.71.07.71.33-.29-.29.33.71.06-.71.07Z" transform="translate(-10 -10)"/>
    <polygon points="155.23 81.68 154.95 81.87 155.19 82.08 155.23 81.68"/>
    <polygon points="155.16 82.12 154.94 81.88 154.47 82.18 155.16 82.12"/>
    <polygon points="118.92 105.17 119.16 105.01 118.95 104.83 118.92 105.17"/>
    <polygon points="80.9 113.04 80.95 113.1 81.01 113.03 80.9 113.04"/>
    <polygon points="102.49 73.21 103.37 72.44 102.59 73.31 103.45 73.39 109.84 64.58 108.7 64.48 102.48 73.16 102.49 73.21"/>
    <polygon points="105.82 67.54 106.01 67.76 106.18 67.51 105.82 67.54"/>
    <polygon points="91.4 89.42 91.09 89.08 90.8 89.47 91.4 89.42"/>
    <polygon points="91.58 88.39 91.14 89.01 91.5 89.32 91.58 88.39"/>
    <polygon points="113.12 78.59 113.16 78.54 113.13 78.51 113.12 78.59"/>
    <path d="M147.08,37.07l3.3-4.54-.12-.14.13.12,7.49-10.32-1.26-.66-.82,1.15.06-.06-.11.13-.15.21.68.06-.71.06.29.33-.33-.29-.07.71-.05-.61-3.79,5.29.63.06-.72.06h0l.3.33-.33-.28h0l-.06.69-.05-.54-4.29,6,.36,0-.41,0-.15.21.14.15-.15-.13-.23.32,0,.23V35.5l-1.23,1.72Z" transform="translate(-10 -10)"/>
    <polygon points="105.73 68.15 106 67.77 105.78 67.58 105.73 68.15"/>
    <path d="M88,127.92l.33-.29L88,128h.06c2.48-2.88,6.65-7.78,10.61-12.46l-1-.09L91.49,123h0l-.29.36v0h0L88,127.3Z" transform="translate(-10 -10)"/>
    <path d="M100.85,109.81l.06.71.33-.29-.29.33.52,0,3.57-4.25-1.2-.1,1.39-.13,1-1.18-1,1.18,1.5-.13.19-.23-1.18-1.32,1.32,1.16.24-.29.25-2.81.2,2.27,1.06-1.26-1,1.29.08,1,1.52-1.34L108.05,106l.54.05,1.92-2.3-.06-.66-.33.29.29-.33-.71-.06.71-.06-.29-.33.33.29.06-.72.06.72.33-.29-.29.33.55,0,2.69-3.22-.31-.28-.06.72-.07-.72-.33.29.3-.33-.72-.06.72-.06-.3-.33.33.29.07-.71.06.71.33-.29-.29.33.59,0,6-7.13-.07-.83-.88.78.78-.88-1.9-.17,1.9-.17-.78-.87.88.77.17-1.9.17,1.9.88-.77-.78.87.64.06L123,88.72l0-.21-.33.29.29-.33-.71-.06.71-.06-.29-.33.33.29.07-.71.06.71.33-.29-.29.33h.15l2.52-3-1.35-.12,1.57-.14,1.27-1.52-.48-.55.54.48L129,81.57l.08-.93.07.75L136,73.14l-.16-1.81-3.43,4.09,3.42-4.2,0-.3-2.41,2.13,2.13-2.41-1.8-.16-4.85,5.8.32.28.06-.71.06.71.33-.29-.29.33.71.06-.71.07.29.33-.33-.29-.06.71-.06-.71-.33.29.29-.33-.61-.06-14.19,17,3.79.34-4.4.39-.67.79,1.73,1.94-1.93-1.7-.84,1-.36,4-.29-3.26-10.94,13.06.33.28ZM122.4,85.2l.56.49.11-1.21.1,1.21.56-.49-.49.55,1.2.11-1.2.11.49.56-.56-.5-.1,1.21L123,86l-.56.5.49-.56-1.2-.11,1.2-.11Z" transform="translate(-10 -10)"/>
    <polygon points="90.75 100.56 90.46 100.24 90.15 100.61 90.75 100.56"/>
    <polygon points="105.65 75.75 105.68 75.76 105.93 75.44 105.65 75.75"/>
    <polygon points="109.51 73.65 109.18 73.94 109.47 73.61 108.75 73.55 109.47 73.49 109.18 73.16 109.51 73.45 109.57 72.74 109.63 73.45 109.96 73.16 109.67 73.49 110.12 73.53 111.86 71.28 111.8 70.57 111.24 71.06 111.73 70.51 110.53 70.4 111.73 70.29 111.24 69.73 111.8 70.23 111.9 69.02 112.01 70.23 112.57 69.73 112.07 70.29 112.58 70.34 117.11 64.48 113.46 64.8 115.1 66.66 113.24 65.02 112.89 69.02 112.53 65.02 110.68 66.66 112.32 64.8 110.12 64.61 103.64 73.41 104.49 73.48 103.53 73.57 103.07 74.19 103.37 74.53 103.03 74.24 102.36 75.15 102.32 75.66 102.28 75.26 95.92 83.9 99.46 83.59 100.19 82.67 98.56 80.84 100.37 82.44 101.36 81.19 101.69 77.49 101.95 80.45 105.38 76.13 105.37 76.03 104.81 76.53 105.31 75.97 104.1 75.86 105.31 75.75 104.81 75.2 105.37 75.69 105.48 74.48 105.58 75.69 106.07 75.26 107.57 73.36 105.72 75.76 106.85 75.86 105.65 75.97 106.14 76.53 105.58 76.03 105.48 77.24 105.39 76.2 101.97 80.62 102.19 83.16 103.73 81.8 109.56 74.25 109.51 73.65"/>
    <polygon points="101.34 81.44 100.48 82.54 101.18 83.16 101.34 81.44"/>
    <polygon points="100.88 83.46 100.29 82.79 99.69 83.57 100.88 83.46"/>
    <polygon points="135.55 37.59 135.27 37.27 135 37.64 135.55 37.59"/>
    <polygon points="129.67 38.71 129.4 38.4 129.13 38.76 129.67 38.71"/>
    <polygon points="132.37 41.17 133.75 39.17 130.83 39.43 132.37 41.17"/>
    <polygon points="129.97 37.63 129.55 38.19 129.89 38.49 129.97 37.63"/>
    <polygon points="99.27 107.85 98.92 108.15 99.27 107.86 99.27 107.85"/>
    <polygon points="130.79 45.46 130.77 45.44 130.75 45.46 130.79 45.46"/>
    <polygon points="130.83 45.36 130.8 45.4 130.82 45.42 130.83 45.36"/>
    <polygon points="148.97 20.37 149.36 19.85 148.57 19.92 148.97 20.37"/>
    <polygon points="126.55 48.91 127.24 49.7 127.91 48.79 126.55 48.91"/>
    <polygon points="139.38 50.51 139.09 50.18 138.76 50.56 139.38 50.51"/>
    <polygon points="135.69 36.69 135.29 37.24 135.61 37.52 135.69 36.69"/>
    <polygon points="137.78 27.01 142.46 26.59 143.13 25.63 140.76 22.95 137.78 27.01"/>
    <polygon points="144.33 26 144.46 24.62 143.8 25.52 144.33 26"/>
    <polygon points="143.87 26.46 143.45 26 143.06 26.54 143.87 26.46"/>
    <polygon points="148.4 21.15 148.96 20.39 148.5 19.98 148.4 21.15"/>
    <polygon points="127.02 59.72 127.07 59.72 127.7 58.95 127.02 59.72"/>
    <polygon points="140.61 45.64 139.26 45.52 140.83 45.38 141 45.17 140.38 44.47 141.08 45.09 141.3 44.82 141.43 43.35 141.54 44.53 151.18 32.98 151.17 32.96 150.62 33.45 151.11 32.9 149.9 32.79 151.11 32.68 150.62 32.12 151.17 32.62 151.28 31.41 151.39 32.62 151.74 32.31 160.33 22 159.65 22.07 159.94 22.4 159.61 22.1 159.54 22.82 159.48 22.1 159.15 22.4 159.44 22.07 158.82 22.01 154.48 27.19 155.17 27.25 154.37 27.32 144.27 39.36 144.28 39.42 144.84 38.92 144.34 39.48 145.55 39.59 144.34 39.7 144.84 40.26 144.28 39.76 144.17 40.97 144.06 39.76 143.57 40.2 136.69 48.4 136.7 48.41 137.03 48.11 136.73 48.44 137.45 48.51 136.73 48.57 137.03 48.9 136.7 48.61 136.63 49.32 136.57 48.61 136.38 48.78 127.19 59.73 128.74 59.87 140.61 45.64"/>
    <polygon points="128.74 57.68 131.37 54.45 130.87 54.49 130.55 54.89 130.74 55.11 130.53 54.92 130.11 55.44 130.07 55.82 130.05 55.52 127.18 59.06 130.03 55.29 129.97 54.61 129.41 55.11 129.9 54.55 128.8 54.45 126.54 57.15 126.74 59.44 128.74 57.68"/>
    <polygon points="158.95 27.37 159.26 26.99 159 26.75 158.95 27.37"/>
    <polygon points="159.04 26.71 159.27 26.98 159.53 26.67 159.04 26.71"/>
    <polygon points="125.96 57.84 125.13 58.83 125.82 59.44 125.96 57.84"/>
    <polygon points="124.95 59.05 124.29 59.83 125.54 59.72 124.95 59.05"/>
    <polygon points="119.05 60.77 118.78 61.12 119 61.31 119.05 60.77"/>
    <polygon points="118.96 61.34 118.77 61.13 118.59 61.38 118.96 61.34"/>
    <polygon points="144.39 29.15 144.33 28.5 142.43 30.19 139.46 34.06 139.79 33.77 139.5 34.1 140.21 34.17 139.5 34.23 139.79 34.56 139.46 34.27 139.4 34.98 139.33 34.27 139.25 34.34 136.71 37.66 137.1 37.69 136.66 37.73 136.27 38.23 136.38 38.36 136.26 38.25 135.73 38.95 135.72 39.07 135.71 38.97 130.93 45.22 130.95 45.42 131.28 45.13 130.99 45.46 131.7 45.52 130.99 45.58 131.28 45.91 130.95 45.62 130.89 46.34 130.82 45.62 130.49 45.91 130.79 45.58 130.66 45.57 128.25 48.73 128.45 48.74 128.23 48.77 125.07 52.89 125.74 52.95 125.03 53.01 125.32 53.34 124.99 53.05 124.92 53.76 124.87 53.16 120.48 58.9 121.34 58.98 120.35 59.06 120.24 59.21 120.63 59.64 120.2 59.26 120.04 59.47 119.96 60.35 119.9 59.66 119.08 60.74 119.13 61.31 119.46 61.01 119.16 61.34 119.5 61.38 120.42 60.19 120.34 60.18 120.43 60.17 144.39 29.15"/>
    <polygon points="120.05 59.41 120.17 59.24 120.07 59.15 120.05 59.41"/>
    <polygon points="119.31 61.63 119.45 61.45 119.16 61.47 119.31 61.63"/>
    <polygon points="119.09 61.91 119.29 61.65 119.13 61.51 119.09 61.91"/>
    <polygon points="120.13 59.08 120.22 59.18 120.3 59.07 120.13 59.08"/>
    <polygon points="145.78 24.68 148.4 21.16 148.29 19.98 147.73 20.48 148.23 19.92 147.89 19.89 145.63 22.99 145.78 24.68"/>
    <polygon points="152.99 17.08 152.69 16.75 152.4 17.14 152.99 17.08"/>
    <polygon points="145.9 26 148.83 23.4 153.1 17.88 153.05 17.36 152.49 17.86 152.99 17.3 152.32 17.24 145.87 25.68 145.9 26"/>
    <polygon points="153.12 16.19 152.72 16.72 153.05 17.02 153.12 16.19"/>
    <path d="M169.25,29.45l-3.47,4.28.4,0-.46,0-.13.15.17.2-.19-.17-.17.2,0,.39,0-.31-2.26,2.79.58,0,6-7.36Z" transform="translate(-10 -10)"/>
    <polygon points="159.44 21.94 159.15 21.61 158.83 21.99 159.44 21.94"/>
    <polygon points="112.79 60.98 111.39 62.87 112.53 63.88 112.79 60.98"/>
    <path d="M129,71.51l-.33.29.29-.33-.71-.06.34,0,.18-.25-.1-.12.11.1.27-.36v0l.83-1.11,0-.46-.56.49.49-.56-1.2-.1,1.2-.11-.49-.56.56.5.1-1.21.11,1.21.56-.5-.5.56.3,0,4.13-5.59,0,0,.07-.08.19-.25-.68-.06.71-.07-.29-.33.33.3.06-.72.06.62,2.25-3-.78-.7-.17,1.91L136.11,59l-.88.78.78-.88-1.9-.17,1.9-.16-.78-.88.88.77.17-1.9.17,1.9.88-.77-.78.88,1.43.12,2.34-3.16-.25,0,.29,0,.21-.29-.08-.08.09.07.3-.41v0l4.77-6.42,0-.48-.56.49.5-.56-.63,0L144,49l.88.08-1,.09-1.49,2.05.1.11-.11-.09-1.32,1.83,1.29-1.87-1.75-1.54-.36,4.07-.36-4.07L138,51.32l1.66-1.89-1-.08L123,70.74l.28,3.14,1.86-1.64-1.64,1.85,3.69.33L129,72Zm1.46-9.18.33.3.06-.72.07.72.33-.3-.29.33.71.07-.71.06.29.33-.33-.29-.07.71-.06-.71-.33.29.29-.33-.71-.06.71-.07Zm-5,7.94-.33-.29-.06.71L125,70l-.33.29.3-.33-.72-.07.72-.06-.3-.33.33.29.07-.71.06.71.33-.29-.29.33.71.06-.71.07Z" transform="translate(-10 -10)"/>
    <polygon points="119.17 66.6 118.89 66.28 118.58 66.65 119.17 66.6"/>
    <polygon points="149.41 31.6 145.16 36.85 145.12 37.3 145.08 36.94 142.95 39.58 143.54 39.52 143.78 39.23 143.5 38.92 143.81 39.19 144.12 38.82 144.17 38.21 144.21 38.7 149.75 31.91 149.41 31.6"/>
    <polygon points="112.32 64.09 111.32 62.97 110.37 64.27 112.32 64.09"/>
    <polygon points="148.32 19.29 148.16 19.52 148.29 19.64 148.32 19.29"/>
    <polygon points="148.11 19.57 148.01 19.72 148.23 19.7 148.11 19.57"/>
    <polygon points="153.24 17.7 153.4 17.48 153.26 17.36 153.24 17.7"/>
    <polygon points="135.8 38.15 135.94 37.96 135.83 37.87 135.8 38.15"/>
    <polygon points="153.44 17.43 153.56 17.28 153.33 17.3 153.44 17.43"/>
    <polygon points="152.76 27.46 149.46 31.53 149.77 31.88 153.42 27.4 152.76 27.46"/>
    <polygon points="143.33 27.98 142.09 27.87 135.75 36.61 135.83 37.52 136.38 37.03 135.89 37.59 136.2 37.61 138.74 34.18 138.58 34.17 138.76 34.15 139.03 33.8 139 33.77 139.03 33.79 140.32 32.05 140.26 32.1 140.39 31.96 143.33 27.98"/>
    <polygon points="148.17 31.31 145.35 34.68 145.31 35.09 148.17 31.31"/>
    <polygon points="135.89 37.8 135.98 37.9 136.07 37.79 135.89 37.8"/>
    <polygon points="144 39.7 143.99 39.7 143.83 39.89 144 39.7"/>
    <polygon points="130.24 54.55 130.43 54.76 130.61 54.52 130.24 54.55"/>
    <polygon points="142.93 39.6 130.95 54.4 131.38 54.44 136.19 48.54 135.82 48.51 136.25 48.47 136.39 48.29 136.24 48.11 136.41 48.27 136.6 48.03 136.63 47.69 136.66 47.97 143.44 39.65 142.93 39.6"/>
    <polygon points="146.37 26.46 146.46 26.47 147.15 25.58 146.37 26.46"/>
    <polygon points="144.93 35.18 128.81 54.43 129.9 54.34 129.41 53.78 129.97 54.27 130.07 53.06 130.18 54.27 130.74 53.78 130.24 54.34 130.72 54.38 144.96 35.55 144.93 35.18"/>
    <polygon points="130.13 55.15 130.4 54.8 130.18 54.61 130.13 55.15"/>
    <polygon points="110.49 81.26 110.7 81.5 110.93 81.22 110.49 81.26"/>
    <polygon points="143.29 79.48 142.98 79.14 142.41 79.56 143.29 79.48"/>
    <polygon points="143.09 79.68 142.34 79.61 141.19 80.46 141.24 81.01 143.09 79.68"/>
    <polygon points="183.8 59.3 185.33 58.27 184 57.1 183.8 59.3"/>
    <path d="M150.81,32.88l2.62,2.32,1.12-1.63.57-6.38.43,4.93,1.6-2.3h0l4-5.74c-.89-.53-1.79-1-2.69-1.55Z" transform="translate(-10 -10)"/>
    <path d="M198,62.38l-4.06,2.53.11,1.25,1.52-1.34-1.35,1.52,3.28.29-3.28.29,1.18,1.34,4.18-2.81C199,64.42,198.5,63.39,198,62.38Z" transform="translate(-10 -10)"/>
    <polygon points="143.4 78.83 143.01 79.12 143.35 79.42 143.4 78.83"/>
    <polygon points="138.07 82.76 136.98 83.57 137.93 84.41 138.07 82.76"/>
    <polygon points="136.86 83.66 136.63 83.83 136.86 83.65 136.57 83.32 134.5 84.91 137.72 84.62 136.86 83.66"/>
    <polygon points="136.64 83.27 136.98 83.56 138.08 82.73 138.13 82.12 136.64 83.27"/>
    <polygon points="142.08 79.59 142.23 79.58 142.91 79.06 142.79 78.92 142.93 79.05 143.42 78.68 143.46 78.21 143.49 78.62 145.8 76.86 145.75 76.28 138.42 81.9 138.47 82.44 142.2 79.6 142.08 79.59"/>
    <polygon points="147.49 75.81 147.28 75.96 147.21 76.71 147.92 76.2 147.49 75.81"/>
    <path d="M169.15,31.61l.33.29.07-.71.06.71.33-.29-.29.33.69.06.87-1.05c-.3-.23-.6-.48-.91-.71Z" transform="translate(-10 -10)"/>
    <path d="M176.31,35.18l-.42-.37L151.72,62.46Z" transform="translate(-10 -10)"/>
    <path d="M188.49,62l3.87-2.94-.35,0,.45,0,.49-.37-.23-.26.26.23.35-.26.06-.68.05.59,1.46-1.11c-.13-.2-.26-.41-.4-.61l-6.08,4.66Z" transform="translate(-10 -10)"/>
    <path d="M163.18,26.11l.08.91.56-.49-.49.55.36,0,.75-1c-.28-.19-.57-.37-.86-.55Z" transform="translate(-10 -10)"/>
    <path d="M158.46,29.1l0,.54.55-.5-.49.56.85.08,3.44-4.66c-.34-.21-.68-.45-1-.66Z" transform="translate(-10 -10)"/>
    <path d="M166.45,41.73l0,.14.33-.29-.3.33.72.06-.72.07.3.33-.33-.29-.07.71-.06-.71-.33.29.29-.33h-.11l-4.3,5,.3,0-.35,0-.46.52.1.11-.11-.1-.54.63,0,.18v-.15l-2.28,2.64.91.08-1.06.09-.08.09.43.48-.48-.42-.09.1-.09,1L158,51.5l-7.84,9.06h.15l-.18,0-.28.33,0,0-.05,0-.33.39v0l-7.64,8.82.39,0-.45,0-5.11,5.9,4.9-5.88-.93.08-1.89,2.27.41.46-.46-.4-2.35,2.82-.06.65-.05-.52-6.88,8.26.07.78L131.27,83l-1.64,1.86,1.09.09,3.86-4.53-.08-.85-.56.49.5-.56-1.21-.1,1.21-.11-.5-.56.56.5.11-1.21.11,1.21.55-.5-.49.56.71.06,2.73-3.2-.34,0,.4,0,.16-.19-.14-.16.16.14.21-.24,0-.33,0,.27,5.4-6.34,0-.31-.33.3.29-.33-.71-.07.71-.06-.29-.33.33.29.06-.71.06.71.33-.29-.29.33.25,0,7-8.19-.2,0,.23,0,.25-.3-.06-.07.07.06.31-.36v0l4.39-5.14-2.35,3.13,17.56-20.76-.47,0,.54,0,.1-.11-.21-.23.23.2.12-.13,0-.5,0,.4,2.49-2.94c-.22-.19-.43-.39-.66-.57Z" transform="translate(-10 -10)"/>
    <polygon points="179.84 44.45 180.14 44.2 179.88 43.97 179.84 44.45"/>
    <path d="M187.16,48.62l.24,0-.29,0-.26.23L187,49l-.15-.13-.21.19,0,.36,0-.31-7.31,6.35v.12l1.51-1.34-1.34,1.52.63.05,8.65-7.49-.5-.64Z" transform="translate(-10 -10)"/>
    <polygon points="179.92 43.93 180.15 44.2 180.53 43.88 179.92 43.93"/>
    <path d="M188.23,53.27l0,0h0l-.63.53,0,.19v-.16L186.24,55l-.06.07.71.07-.71.06.29.33-.33-.29-.06.71L186,55.2l-.33.29.2-.23-10.22,8.65V64l.33-.29-.29.33.71.06-.71.07.29.33-.33-.29-.06.71-.06-.71-.33.29.29-.33h-.11l-1.64,1.38.19,2.13L179.6,63l-.06-.57-.33.3.3-.33-.72-.07.72-.06-.3-.33.33.29.07-.71.06.71.33-.29-.29.33.7.06,4-3.34-.05-.59-.33.3.29-.33-.71-.07.71-.06-.29-.33.33.29.07-.71.06.71.33-.29-.29.33.71.06,4.54-3.76,0-.52-.33.29.29-.33-.72-.06.72-.06-.29-.33.33.29.06-.71.06.71.33-.29-.29.33.63,0,1.39-1.15c-.38-.54-.75-1.08-1.14-1.61Z" transform="translate(-10 -10)"/>
    <path d="M151,84.79l-5.9,5,5.84-5-.9-.08c-5.92,5.13-13.6,11.74-20.24,17.3l.06.67.33-.29-.29.33.72.07-.72.06.29.33-.33-.29-.06.71-.06-.71-.33.29.29-.33-.71-.06.71-.07-.29-.33.33.29.06-.66-3.24,2.7,2.47.22,24.06-20ZM136.24,98.35l-.33-.29-.07.71-.06-.71-.33.29.29-.33L135,98l.71-.06-.29-.33.33.29.06-.71.07.71.33-.29-.3.33.72.06-.72.07ZM144.39,92l-.33-.29-.07.71-.06-.71-.33.29.29-.33-.71-.06.71-.07-.29-.33.33.29.06-.71.07.71.33-.29-.3.33.72.07-.72.06Z" transform="translate(-10 -10)"/>
    <polygon points="120.17 76.18 120.78 75.47 120.53 75.49 120.03 76.02 120.17 76.18"/>
    <polygon points="111.8 83.34 111.62 83.13 111.42 83.37 111.8 83.34"/>
    <polygon points="119.35 76.56 119.76 76.08 119.42 75.78 119.35 76.56"/>
    <polygon points="115.9 95.25 117.05 96.55 118.95 94.97 115.9 95.25"/>
    <polygon points="121.18 75 122.95 72.89 121 74.98 121.18 75"/>
    <polygon points="119.92 75.89 120.24 75.52 119.63 75.57 119.92 75.89"/>
    <path d="M147,73.3l33.27-34.42-.37-.35Z" transform="translate(-10 -10)"/>
    <path d="M182.26,40.92l-62.95,62.91,0,.33.72-.64-.72.68v0l5-4.87-.33,0,.4,0,.46-.46-.15-.17.18.15.44-.43,0-.44,0,.37,58.06-56.08Z" transform="translate(-10 -10)"/>
    <polygon points="134.19 59.14 134.31 59.01 134.21 58.92 134.19 59.14"/>
    <polygon points="134.33 58.98 134.43 58.87 134.25 58.89 134.33 58.98"/>
    <polygon points="118.71 75.78 116.85 77.42 118.49 75.57 117.96 75.52 111.92 82.78 111.97 83.3 112.3 83.01 112 83.34 112.72 83.4 112 83.47 112.3 83.8 111.97 83.5 111.9 84.22 111.84 83.5 111.51 83.8 111.8 83.47 111.38 83.43 104.9 91.2 106.03 91.1 105.53 90.54 106.09 91.04 106.2 89.83 106.3 91.04 106.86 90.54 106.37 91.1 106.58 91.12 110.34 86.9 110.06 86.87 110.39 86.84 110.59 86.61 110.48 86.48 110.61 86.59 110.85 86.32 110.87 86.06 110.89 86.27 114.37 82.36 114.33 81.96 113.78 82.45 114.27 81.9 113.06 81.79 114.27 81.68 113.78 81.13 114.33 81.62 114.44 80.41 114.55 81.62 115.11 81.13 114.61 81.68 114.95 81.71 116.61 79.84 114.97 81.71 115.32 81.75 117.71 79.09 118.88 77.71 118.84 77.3 117.46 78.77 118.83 77.17 118.71 75.78"/>
    <polygon points="97.76 111.38 97.61 111.52 97.86 111.49 97.76 111.38"/>
    <path d="M120.56,109.55l-.18.14.15.14Z" transform="translate(-10 -10)"/>
    <polygon points="97.94 111.23 97.81 111.33 97.92 111.43 97.94 111.23"/>
    <path d="M120.47,109.89l-.14-.16-.25.2Z" transform="translate(-10 -10)"/>
    <polygon points="115.72 95.42 115.51 97.83 117.03 96.57 115.72 95.42"/>
    <polygon points="97.86 96.89 97.94 96.78 97.87 96.72 97.86 96.89"/>
    <polygon points="118.7 74.64 118.71 74.64 118.71 74.63 118.7 74.64"/>
    <polygon points="117.92 74.91 118.22 74.55 117.56 73.8 116.52 75.03 117.92 74.91"/>
    <polygon points="98.28 96.81 98.55 96.5 98.31 96.52 98.17 96.69 98.28 96.81"/>
    <polygon points="111.88 82.82 111.63 83.12 111.84 83.3 111.88 82.82"/>
    <polygon points="77.52 117.82 77.4 118 77.83 117.96 77.61 117.71 77.52 117.83 77.52 117.82"/>
    <polygon points="95.46 121.51 95.54 121.6 95.71 121.49 95.46 121.51"/>
    <polygon points="95.41 121.68 95.5 121.62 95.42 121.55 95.41 121.68"/>
    <polygon points="80.56 105.76 80.52 105.71 80.48 105.77 80.56 105.76"/>
    <polygon points="105.61 112.71 104.93 113.21 105.96 113.12 105.61 112.71"/>
    <polygon points="79.35 108.92 79.39 108.87 79.36 108.84 79.35 108.92"/>
    <polygon points="141.08 81.15 141.08 81.15 141.07 81.16 141.08 81.15"/>
    <polygon points="113.02 103.59 112.59 103.92 112.96 104.24 113.02 103.59"/>
    <polygon points="120.24 98.03 120.05 98.18 120.22 98.33 120.24 98.03"/>
    <polygon points="112.89 104.3 112.57 103.94 111.99 104.38 112.89 104.3"/>
    <polygon points="120.18 98.36 120.03 98.19 119.76 98.4 120.18 98.36"/>
    <polygon points="80.61 105.6 80.55 105.68 80.6 105.72 80.61 105.6"/>
    <polygon points="82.19 101.65 82.13 101.58 82.08 101.66 82.19 101.65"/>
    <polygon points="85.53 96.74 85.71 96.48 85.56 96.36 85.53 96.74"/>
    <polygon points="82.24 101.43 82.16 101.55 82.23 101.61 82.24 101.43"/>
    <path d="M200.9,68.34l-8,5.26.29,0-.39,0-.22.15.19.21-.22-.19-.13.08,0,.53,0-.47-3.42,2.24L189,78l.87-.78-.77.88,1.9.17-1.9.17.77.88-.87-.78-.17,1.9-.17-1.9-.88.78.78-.88-1.9-.17,1.9-.17-.78-.88.88.78.16-1.8L171.51,87.58l.26,2.92,1.51-1.34-1.34,1.52,3.28.29-3.28.29,1.34,1.52-1.51-1.35-.3,3.28-.29-3.28-1.51,1.35L171,91.26,167.73,91l3.28-.29-1.34-1.52,1.51,1.34.26-2.88-6.16,4,0,.43.33-.29-.29.33.71.06-.71.07.29.33-.33-.3-.06.72-.07-.72-.33.3.3-.33-.7-.06-34.1,22.31.59.06-.77.06-.77.51.42.47-.49-.43-.45.3-.11,1.26-.1-1.12-10.85,7.1-.36.41,5.29.47-5.29.47,2.16,2.45-2.44-2.17-.47,5.29-.48-5.29-2.44,2.17,2.16-2.45h-.17L111,127.21l4.74-3.17-1.68-.15-1.77,1.3h0l-.41.3.07.08-.08-.07-.29.21,0,.28,0-.25-16.25,12,.61,0,9.48-6v-.19l-.33.29.29-.33-.72-.06.72-.06-.29-.33.33.29.06-.72.06.72.33-.29-.29.33.36,0,4.41-2.82L106,131.43l.21,0-.28,0-.29.2.15.17-.18-.15-.17.11,0,.46,0-.41-9,6,1,.09,6.16-3.68L97.77,138l31,2.76-42.27,3.76L103.82,164,84.27,146.72,80.51,189l-3.76-42.27L57.2,164l17.31-19.55-42.27-3.76L74.51,137,57.2,117.41l19.55,17.31,3.76-42.27,2.61,29.32,3.64-5.12-.64-.06.71-.06-.29-.33.33.29.06-.72.07.72.33-.29-.29.33.46,0L90,112.69l-2.34,3.89h0l-4.32,7.18,0,.64,6.86-8.57-.36,0,.41,0,.15-.19-.14-.17.16.15.2-.25,0-.32,0,.25,4.82-6-4.8,6.24,0,.24.33-.29-.29.33.72.06-.72.07.29.33-.33-.3-.06.72-.06-.72-.33.3.29-.33-.16,0-7,9.09.28,3.16L84.91,127s-1,1.4-.54,1.48,3.79-4.1,3.79-4.1-2.3,3.14-3.58,5a4.92,4.92,0,0,0-.67,1.36l.08.84,2.56-3.2,4.21-5,0-.26-.33.29.3-.33L90,123l.72-.07-.3-.33.33.3.07-.72.06.72.33-.3-.29.33.2,0,6.33-7.53-.3,0,.35,0,.82-1,0,0,0,0,2.54-3,0-.63-.33.3.29-.33-.62-.06L87.94,125.2,98.12,112l-1.07.1.49.56-.56-.5-.1,1.21-.11-1.21-.56.5.5-.56L95.5,112l1.21-.11-.5-.55.56.49.11-1.21.1,1.21.56-.49-.49.55,1.09.1,13.07-16.93,0-.29-2.62,2.32,2.32-2.62-1.77-.16L108,95.7l0,.55.33-.29-.29.33.71.06-.71.07.29.33-.33-.29-.06.71-.07-.71-.33.29.3-.33-.41,0-1.35,1.74.07.77.56-.49-.5.56,1.21.1-1.21.11.5.56-.56-.5-.11,1.21-.1-1.21-.56.5.49-.56-.56,0-5.1,6.61.58-.52-.78.88,1.91.17-1.91.16.78.88-.88-.77-.16,1.9-.17-1.89-13.14,17,.54,0-.62.06,0,.06.24.27-.27-.23-.07.09,0,.57,0-.45-1.84,2.38V125.2l1.26-1.59-.19,0,.22,0,.25-.31,0-.06.06,0,.33-.42v0l3-3.77,0-.21-.33.3.29-.33-.71-.07.71-.06-.29-.33.33.29.06-.71.07.71.33-.29-.29.33h.13l9.76-12.29-1.63-.14,1.88-.17v0l-.76-.86.85.75,0,0,.17-1.84.13,1.47,5.12-6.46-.33,0,.38,0,.42-.53-.09-.1.1.09.55-.7v0l1.12-1.41h0l1.63-2.06L105.84,94l-3.71,5,.58-.52-.77.88,1.9.17-1.9.17.77.88-.88-.78-.16,1.9-.17-1.84-3.18,4.32.25-.22-.3.33.72.07-.72.06.3.33-.33-.29-.07.71-.06-.7-.75,1,.75-1-.33.29.29-.33-.71-.06.71-.07-.29-.33.33.29.06-.71.07.71.05,0,3.18-4.39-.85.76.78-.88-.75-.07L96,106.22l.35,0-.4,0-.15.22.12.14-.14-.12-.23.32,0,.22v-.17l-3.16,4.41,0,.3.33-.29-.29.33.72.06-.72.07.29.33-.33-.29-.06.71-.06-.71-.33.29.29-.33-.19,0-1.89,2.65L92,111.76l-.5-.05.57,0,.07-.09-.22-.25.24.22.11-.16,0-.48,0,.37,3.16-4.46,0-.45-.33.29.29-.33-.71-.06.71-.07-.29-.33.33.29.06-.71.06.71.33-.29-.29.33.3,0,4.61-6.54-1-.09,1.16-.1L101,99l-.39-.44.43.39.55-.78.07-.73,0,.56,10.13-14.34-1.7-.16,1.9-.17-.78-.87.88.77.17-1.9.13,1.48,3.26-4.61-.06-.6-.33.29.3-.33-.72-.06.72-.06-.3-.33.33.29.07-.72.06.72.33-.29-.29.33.4,0,2.12-3h0l12-17-3.24.29,1.34,1.51-1.52-1.34-.29,3.28-.29-3.28-1.52,1.34,1.35-1.51-3.28-.29,3.28-.3-1.35-1.51L126.34,57l.29-3.28.29,3.28,1.52-1.34-1.34,1.51,3.25.29L134,52.35l-.63.06.29.33-.33-.29-.06.71-.06-.71-.33.29.29-.33-.71-.07.71-.06-.29-.33.33.29.06-.71.06.71.33-.29-.29.33.64.06,2.27-3.21-.64-.06.72-.06,10-14.1-.46,0,.53,0,.08-.12-.19-.23.22.2.13-.2,0-.42,0,.33,4.1-5.8h-.14l.16,0,.26-.37h0L154.69,23h0L156,21.2A100,100,0,1,0,200.9,68.34Zm-87.07,63-.33-.29-.06.71-.06-.71-.33.29.29-.33-.72-.07.72-.06-.29-.33.33.29.06-.71.06.71.33-.29-.29.33.72.06-.72.07Zm12.16-4.1-.33-.29-.06.71-.07-.71-.33.29.3-.33-.72-.06.72-.06-.3-.33.33.29.07-.72.06.72.33-.29-.29.33.71.06-.71.06Zm.45-7-.33-.29-.06.71-.07-.71-.33.29.29-.33-.71-.06.71-.07-.29-.33.33.3.07-.72.06.72.33-.3-.29.33.71.07-.71.06Zm22.4-97.12.33.3.06-.72.07.72.33-.3-.3.33.72.07-.72.06.3.33-.33-.29-.07.71-.06-.71-.33.29.29-.33-.71-.06.71-.07Zm-8.37,18-.33-.3-.07.72-.06-.72-.33.3.29-.33-.71-.07.71-.06-.29-.33.33.29.06-.71.07.71.33-.29-.3.33.72.06-.72.07ZM142,26.49l.33.29.06-.72.07.72.33-.29-.3.33.72.06-.72.06.3.33-.33-.29-.07.71-.06-.71-.33.29.29-.33-.71-.06.71-.06Zm-2.17-7.91.33.29.06-.71.06.71.33-.29-.29.33.72.06-.72.07.29.33-.33-.3-.06.72-.06-.72-.33.3.29-.33-.71-.07.71-.06Zm-.66,16.05.88.78.17-1.9.17,1.9.88-.78-.78.88,1.9.17-1.9.17.78.88-.88-.78-.17,1.9-.17-1.9-.88.78.78-.88-1.9-.17,1.9-.17Zm-5.55,2.44.33.3.07-.72.06.72.33-.3-.29.33.71.07-.71.06.29.33-.33-.29-.06.71-.07-.71-.33.29.29-.33-.71-.06.71-.07Zm-6.92,6.06.33.29.07-.71.06.71.33-.29-.29.33.71.06-.71.07.29.33-.33-.3-.06.72-.07-.72-.33.3.3-.33-.72-.07.72-.06Zm-3.24,8.26.33.29.06-.71.06.71.33-.29-.29.33.72.06-.72.07.29.33-.33-.3-.06.72-.06-.72-.33.3.29-.33-.71-.07.71-.06Zm-4.31,14.67.33.29.06-.71.06.71.33-.29-.29.33.72.06-.72.06.29.33-.33-.29-.06.72-.06-.72-.33.29.29-.33-.72-.06.72-.06Zm-5.64-6.32.33.3.06-.72L114,60l.33-.3-.29.33.71.07-.71.06.29.33-.33-.29-.07.71-.06-.71-.33.29.29-.33-.71-.06.71-.07ZM109.9,74.8l.88.78.17-1.9.17,1.9.88-.78-.78.88,1.9.17-1.9.17.78.88-.88-.78L111,78l-.17-1.9-.88.78.78-.88-1.9-.17,1.9-.17Zm-2.69,12.86.33.29.07-.71.06.71.33-.29-.29.33.71.06-.71.07.29.33-.33-.3-.06.72-.07-.72-.33.3.3-.33-.72-.07.72-.06ZM99.44,80l.33.29.07-.72.06.72.33-.29-.29.33.71.06-.71.06.29.33-.33-.29-.06.71-.07-.71-.33.29.29-.33L99,80.4l.71-.06Zm.73,7.87L99.39,87l.88.78.17-1.9.17,1.9.88-.78-.78.88,1.9.17-1.9.17.78.88-.88-.78-.17,1.9-.17-1.9-.88.78.78-.88-1.9-.17Zm-3.69,9.41.33.3.07-.72.06.72.33-.3-.29.33.71.07-.71.06.29.33-.33-.29-.06.71-.07-.71-.33.29.3-.33-.72-.06.72-.07Zm-3-5.1.33.3.07-.72.06.72.33-.3-.29.33.71.07-.71.06.29.33-.33-.29-.06.71-.07-.71-.33.29.3-.33L93,92.59l.72-.07Zm.06,11.51-.29-.33.33.29.06-.71.07.71.33-.29-.3.33.72.07-.72.06.3.33-.33-.29-.07.71-.06-.71-.33.29.29-.33-.71-.06Zm-8.2,12-.33-.29-.07.71-.06-.71-.33.29.29-.33-.71-.07.71-.06-.29-.33.33.29.06-.71.07.71.33-.29-.3.33.72.06-.72.07Zm2.21-1.07-.33-.3-.07.72-.06-.72-.33.3.29-.33-.71-.07.71-.06-.29-.33.33.29.06-.71.07.71.33-.29-.3.33.72.06-.72.07Zm3-4-1.91.17.78.88-.88-.78-.17,1.9-.16-1.9-.88.78.77-.88-1.9-.17,1.9-.17-.77-.88.88.78.16-1.9.17,1.9.88-.78-.78.88Zm-3-3.95.33.29.07-.71L88,107l.33-.29L88,107l.71.06-.71.06.29.33-.33-.29-.06.72-.07-.72-.33.29.3-.33-.72-.06.72-.06Zm-.18-9.52.33.29.06-.71.06.71.33-.29-.29.33.71.06-.71.07.29.33-.33-.3-.06.72-.06-.72-.33.3.29-.33-.72-.07.72-.06ZM86,101.1l.88.78.17-1.9.16,1.9.88-.78-.77.88,1.9.17-1.9.17.77.88-.88-.78-.16,1.9-.17-1.9-.88.78.78-.88-1.91-.17L86.8,102Zm-2,9.71.33.3.07-.72.06.72.33-.3-.29.33.71.07-.71.06.29.33-.33-.29-.06.71-.07-.71-.33.29.3-.33-.72-.06.72-.07Zm-.74,6.34.33.29.06-.71.06.71.34-.29-.3.33.72.06-.72.07.3.33-.34-.29-.06.71-.06-.71-.33.29.29-.33-.71-.07.71-.06Zm47.27,1.61-.33-.29-.06.72-.07-.72-.33.29.29-.33-.71-.06.71-.06-.29-.33.33.29.07-.71.06.71.33-.29-.29.33.71.06-.71.06Zm21.27-16.19.33.3.06-.72.07.72.33-.3-.3.33.72.07-.72.06.3.33-.33-.29-.07.71-.06-.71-.33.29.29-.33-.71-.06.71-.07Zm-15.9,19.59-.33-.29-.06.71-.07-.71-.33.29.3-.33-.72-.06.72-.07-.3-.33.33.3.07-.72.06.72.33-.3-.29.33.71.07-.71.06Zm0-7.69.3.33-.33-.29-.07.71-.06-.71-.33.29.29-.33-.71-.06.71-.06-.29-.33.33.29.06-.72.07.72.33-.29-.3.33.72.06Zm4.92,5.6-.88-.78-.17,1.9-.17-1.9-.88.78.78-.88-1.9-.17,1.9-.17-.78-.88.88.78.17-1.9.17,1.9.88-.78-.78.88,1.9.17-1.9.17Zm3.13,3.72-.33-.29-.06.71-.07-.71-.33.29.3-.33-.72-.06.72-.07-.3-.33.33.3.07-.72.06.72.33-.3-.29.33.71.07-.71.06Zm8.26-8.08-3.32-2.95-.64,7.19-.64-7.19-3.33,2.95,2.94-3.33-7.19-.64,7.19-.64-2.94-3.33,3.33,3,.64-7.2.64,7.2,3.32-3-2.94,3.33,7.19.64-7.19.64ZM160,98.87l-.06.71-.06-.71-.33.29.29-.33-.71-.06.71-.06-.29-.33.33.29.06-.72.06.72.33-.29-.29.33.72.06-.72.06.29.33Zm1.72,11.58-.33-.29-.06.71-.06-.71-.33.29.29-.33-.71-.06.71-.07-.29-.33.33.29.06-.71.06.71.33-.29-.29.33.72.07-.72.06Zm3.26-6-.88-.78-.17,1.9-.17-1.9-.88.78.78-.88-1.9-.17,1.9-.17-.78-.88.88.78.17-1.9.17,1.9.88-.78-.78.88,1.9.17-1.9.17Zm9.64-5.27-.33-.29-.06.71-.07-.71-.33.29.3-.33-.72-.06.72-.06-.3-.33.33.29.07-.72.06.72.33-.29-.29.33.71.06-.71.06ZM176,87.43l-.33-.29-.06.71-.06-.71-.33.29.29-.33-.71-.07.71-.06-.29-.33.33.29.06-.71.06.71.33-.29-.29.33.72.06-.72.07ZM180.53,85l.71-.07-.29-.33.33.29.06-.71.06.71.33-.29-.29.33.72.07-.72.06.29.33-.33-.29-.06.71-.06-.71-.33.29.29-.33ZM182,93.39l-.33-.29-.06.71-.06-.71-.33.29.29-.33-.72-.06.72-.06-.29-.34.33.3.06-.72.06.72.33-.3-.29.34.71.06-.71.06ZM185.39,89l-.88-.78-.17,1.9-.17-1.9-.88.78.78-.88-1.9-.17,1.9-.17-.78-.88.88.78.17-1.9.17,1.9.88-.78-.78.88,1.9.17-1.9.17Zm3.38-4.68-.33-.29-.06.71-.07-.71-.33.29.29-.33-.71-.06.71-.07-.29-.33.33.3.07-.72.06.72.33-.3-.29.33.71.07-.71.06Zm3.48,4.25-.33-.3-.07.72-.06-.72-.33.3.29-.33-.71-.07.71-.06-.29-.33.33.29.06-.71.07.71.33-.29-.3.33.72.06-.72.07Zm6-12-.33-.29-.06.71-.06-.71-.33.29.29-.33-.71-.06.71-.06-.29-.33.33.29.06-.72.06.72.33-.29-.29.33.72.06-.72.06Zm2.31,9.17-.33-.29-.06.71-.07-.71-.33.29.29-.33-.71-.07.71-.06-.29-.33.33.29.07-.71.06.71.33-.29-.29.33.71.06-.71.07Zm2.9,3.92-.06.71-.07-.71L203,90l.3-.33-.72-.07.72-.06-.3-.33.33.29.07-.71.06.71.33-.29-.29.33.71.06-.71.07.29.33Z" transform="translate(-10 -10)"/>
    <polygon points="79.42 108.83 79.44 108.8 79.39 108.81 79.42 108.83"/>
    <polygon points="85.6 96.32 85.73 96.46 85.84 96.3 85.6 96.32"/>
    <polygon points="97.93 86.29 97.75 86.09 97.56 86.32 97.93 86.29"/>
    <polygon points="95.96 88.96 95.73 88.69 95.5 89 95.96 88.96"/>
    <polygon points="96.08 88.24 95.76 88.66 96.03 88.89 96.08 88.24"/>
    <polygon points="98.01 85.74 97.76 86.07 97.97 86.25 98.01 85.74"/>
    <polygon points="90.95 100.69 91.18 100.95 91.44 100.64 90.95 100.69"/>
    <polygon points="111.96 71.15 112.24 70.78 112.01 70.57 111.96 71.15"/>
    <polygon points="109.67 73.61 109.88 73.84 110.08 73.58 109.67 73.61"/>
    <polygon points="129.22 37.9 130.04 36.76 130.25 34.42 130.41 36.25 136.84 27.41 135.35 27.27 128.31 37.1 129.22 37.9"/>
    <polygon points="109.58 74.22 109.86 73.86 109.63 73.65 109.58 74.22"/>
    <polygon points="112.28 70.73 112.48 70.47 112.07 70.51 112.28 70.73"/>
    <polygon points="110.05 64.29 111.15 62.78 110.68 62.24 111.2 62.7 112.83 60.46 112.89 59.87 112.93 60.33 128.2 39.3 126.82 39.18 108.75 64.41 110.05 64.29"/>
    <polygon points="128.56 38.81 129.1 38.06 128.28 37.14 126.99 38.95 128.56 38.81"/>
    <polygon points="90.91 100.72 90.86 101.33 91.17 100.95 90.91 100.72"/>
    <polygon points="102.59 73.65 102.96 74.07 103.3 73.59 102.59 73.65"/>
    <polygon points="102.39 74.85 102.91 74.13 102.49 73.75 102.39 74.85"/>
    <polygon points="87.09 121.41 86.95 121.53 87.07 121.64 87.09 121.41"/>
    <polygon points="81.31 127.39 82.76 126.33 82.09 126.49 93.28 118.11 92.37 118.03 93.52 117.92 94.01 117.56 93.5 116.98 94.08 117.5 94.42 117.25 94.54 115.86 94.65 117.08 95.7 116.29 95.6 115.14 95.04 115.63 95.53 115.08 95.2 115.05 89.3 119.57 94.8 115.01 94.33 114.97 94.92 114.92 95.3 114.6 95.04 114.3 95.34 114.57 95.64 114.31 95.7 113.59 95.76 114.21 97.97 112.38 97.92 111.77 97.36 112.27 97.86 111.71 97.43 111.67 90.07 118.02 90.12 118.03 90.06 118.03 89.66 118.38 89.7 118.42 89.65 118.38 89.32 118.67 89.3 118.84 89.29 118.69 79.41 127.22 79.52 127.23 86.5 121.75 86.32 121.74 86.55 121.72 86.86 121.48 86.74 121.34 86.87 121.46 87.1 121.28 87.13 120.92 87.16 121.24 88.6 120.11 87.17 121.34 87.2 121.64 87.53 121.34 87.23 121.67 87.95 121.74 87.23 121.8 87.53 122.13 87.2 121.84 87.13 122.55 87.07 121.84 86.74 122.13 87.03 121.8 86.67 121.77 80.23 127.29 81.31 127.39"/>
    <polygon points="87.03 121.67 86.92 121.55 86.75 121.7 87.03 121.67"/>
    <path d="M99.43,114.66c2.67-3.14,5.17-6.1,6.92-8.18l-1.28-.12-3.48,4.26h0l-2.26,2.76Z" transform="translate(-10 -10)"/>
    <polygon points="95.6 114.74 95.57 114.77 95.6 114.8 95.6 114.74"/>
    <polygon points="95.31 117.23 94.71 117.69 94.71 117.76 95.31 117.23"/>
    <path d="M99,115.21l0,0-.59-.67-.66.82Z" transform="translate(-10 -10)"/>
    <path d="M99.09,115.07l0-.06.14-1.57-.85,1Z" transform="translate(-10 -10)"/>
    <polygon points="77.87 117.92 77.93 117.33 77.62 117.7 77.87 117.92"/>
    <polygon points="167.71 44.77 168.23 45.23 168.75 44.76 168.84 43.78 167.71 44.77"/>
    <polygon points="156.31 68.18 156.52 68.37 156.55 68 156.31 68.18"/>
    <polygon points="80.22 117.66 83.69 113.65 83.23 113.61 80.19 117.37 80.22 117.66"/>
    <polygon points="83.75 113.53 83.51 113.26 83.27 113.57 83.75 113.53"/>
    <polygon points="83.78 113.49 83.84 112.86 83.52 113.26 83.78 113.49"/>
    <polygon points="79.52 118.46 79.69 118.27 79.58 118.14 79.29 118.48 79.52 118.46"/>
    <polygon points="79.77 118.18 79.97 117.94 80 117.61 79.63 118.06 79.77 118.18"/>
    <polygon points="87.34 108.92 87.67 108.63 87.37 108.96 87.73 108.99 88.57 108.02 89.27 107.18 89.19 106.24 87.31 108.57 87.34 108.92"/>
    <polygon points="83.9 113.41 87.25 109.55 87.21 109.12 86.88 109.42 87.17 109.08 86.91 109.06 83.85 112.84 83.9 113.41"/>
    <polygon points="87.08 108.85 86.98 108.97 87.17 108.96 87.08 108.85"/>
    <polygon points="79.3 118.73 79.11 118.71 76.35 122.13 79.3 118.73"/>
    <polygon points="87.23 108.66 87.1 108.83 87.21 108.92 87.23 108.66"/>
    <polygon points="90.09 106.19 89.59 105.75 89.45 105.92 89.34 107.09 90.09 106.19"/>
    <polygon points="114.64 94.29 114.1 94.74 114.97 94.66 114.64 94.29"/>
    <polygon points="115.2 93.81 114.78 94.17 115.14 94.49 115.2 93.81"/>
    <polygon points="109.08 94.45 109.1 94.47 109.17 94.4 109.17 94.36 109.08 94.45"/>
    <polygon points="142.57 70.57 138.33 74.17 140.6 73.97 143.44 71.56 142.57 70.57"/>
    <polygon points="115.24 93.41 115.38 91.8 113.78 93.28 114.57 93.99 115.24 93.41"/>
    <polygon points="113.76 93.3 111.99 94.93 113.66 94.78 114.46 94.09 113.76 93.3"/>
    <polygon points="105.57 100.84 106.12 101.32 106.28 101.18 106.38 100.09 105.57 100.84"/>
    <polygon points="74.57 122.11 74.91 121.81 74.91 121.61 74.57 122.11"/>
    <polygon points="106.23 101.42 106.26 101.44 106.26 101.4 106.23 101.42"/>
    <polygon points="111.93 94.98 106.47 100.01 106.55 100.94 113.29 95.1 111.93 94.98"/>
    <polygon points="119.33 76.77 119.29 77.22 120.04 76.33 119.88 76.19 119.33 76.77"/>
    <polygon points="89.67 105.65 90.12 106.16 90.72 105.44 89.77 105.53 89.67 105.65"/>
    <polygon points="110.92 86.62 114.41 82.76 114.37 82.39 110.9 86.36 110.92 86.62"/>
    <polygon points="114.87 82.24 114.66 82.06 114.53 82.22 114.49 82.67 114.87 82.24"/>
    <polygon points="110.75 86.81 110.76 86.8 110.64 86.66 110.48 86.83 110.75 86.81"/>
    <polygon points="106.84 91.14 110.65 86.92 110.42 86.9 106.71 91.13 106.84 91.14"/>
    <polygon points="114.53 82.18 114.65 82.05 114.55 81.96 114.53 82.18"/>
    <polygon points="114.71 82.01 114.89 82.22 115.23 81.84 114.83 81.88 114.71 82.01"/>
    <polygon points="106.53 91.5 106.72 91.29 106.56 91.3 106.46 91.42 106.53 91.5"/>
    <polygon points="114.7 81.99 114.8 81.88 114.61 81.9 114.7 81.99"/>
    <polygon points="169.26 46.55 169.26 46.55 169.26 46.55 169.26 46.55"/>
    <polygon points="110.8 86.76 110.81 86.74 110.84 86.42 110.66 86.63 110.8 86.76"/>
    <polygon points="98.94 97.56 99.92 96.38 98.76 96.48 98.39 96.93 98.94 97.56"/>
    <polygon points="97.67 99.07 97.89 98.82 98.89 97.62 98.27 97.07 97.79 97.64 97.67 99.07"/>
    <polygon points="97.84 97.08 97.82 97.34 98.15 96.96 98.03 96.86 97.84 97.08"/>
    <polygon points="90.91 105.32 97.39 97.84 97.37 97.63 90.86 105.32 90.91 105.32"/>
    <polygon points="90.15 106.19 90.81 105.43 90.76 105.44 90.13 106.18 90.15 106.19"/>
    <polygon points="102.33 93.5 102.65 93.12 102.38 92.89 102.33 93.5"/>
    <polygon points="106.3 91.44 106.33 91.4 106.3 91.38 106.3 91.44"/>
    <path d="M154,82.16l-.45-.51L150.88,84l1.12-.1Z" transform="translate(-10 -10)"/>
    <polygon points="108.87 94.27 109.05 94.42 109.18 94.31 109.21 93.93 108.87 94.27"/>
    <polygon points="102.65 93.11 102.91 92.81 102.42 92.85 102.65 93.11"/>
    <polygon points="156.54 69.12 155.13 70.16 155.17 70.52 155.5 70.23 155.21 70.56 155.7 70.6 156.61 69.94 156.54 69.12"/>
    <polygon points="182.23 53.21 182.04 52.99 181.66 53.26 182.23 53.21"/>
    <polygon points="178.45 54.23 179.17 53.71 178.54 53.16 178.45 54.23"/>
    <polygon points="174.75 55.67 174.79 56.06 175.12 55.77 174.83 56.1 175.54 56.16 174.83 56.23 175.12 56.55 174.79 56.26 174.73 56.9 178.31 54.33 178.21 53.16 177.33 53.93 177.75 53.45 174.75 55.67"/>
    <polygon points="178.65 53.05 179.2 53.68 180.28 52.91 178.65 53.05"/>
    <polygon points="182.3 52.82 182.06 52.98 182.27 53.17 182.3 52.82"/>
    <polygon points="174.69 55.71 174.46 55.88 174.66 56.06 174.69 55.71"/>
    <polygon points="174.63 56.1 174.44 55.9 174.11 56.14 174.63 56.1"/>
    <polygon points="177.47 51.96 177.99 52.42 178.24 52.23 178.32 51.3 177.47 51.96"/>
    <polygon points="167.25 64.61 166.33 63.79 163.78 65.55 163.64 67.13 167.25 64.61"/>
    <polygon points="169.8 60.45 174.72 56.91 174.66 56.26 174.33 56.55 174.63 56.23 174.07 56.17 171.95 57.74 172.51 57.79 171.8 57.85 172.09 58.19 171.76 57.89 171.7 58.61 171.64 57.97 168.44 60.33 169.8 60.45"/>
    <polygon points="177.78 55.92 177.62 56.03 177.63 56.06 177.78 55.92"/>
    <polygon points="177.75 42.73 178.02 43.03 178.44 42.67 177.75 42.73"/>
    <path d="M190.34,50.46l-2.46,2.07.66.06,2.06-1.76Z" transform="translate(-10 -10)"/>
    <polygon points="170.42 47.49 171.88 46.16 171.25 46.22 170.13 47.17 170.42 47.49"/>
    <polygon points="177.53 52.77 177.9 52.49 177.45 51.97 176.26 52.88 177.53 52.77"/>
    <polygon points="177.69 42.8 177.64 43.36 177.99 43.06 177.69 42.8"/>
    <polygon points="172.02 46.03 179.34 39.35 171.53 45.98 172.02 46.03"/>
    <polygon points="164.8 62.44 164.34 62.03 164.07 62.23 164 63.04 164.8 62.44"/>
    <polygon points="156.86 68.37 157.74 67.59 157.16 68.24 162.88 63.9 162.81 63.2 156.81 67.8 156.86 68.37"/>
    <polygon points="160.26 57.41 160.73 57.83 163.02 55.87 163.09 55.02 160.26 57.41"/>
    <polygon points="160.88 57.95 162.18 59.11 162.78 58.61 162.99 56.16 160.88 57.95"/>
    <path d="M167.32,71l-6.78,5.73.05.57.33-.29-.29.33.71.06-.71.07.29.33-.33-.3-.06.72-.07-.72-.33.3.3-.33-.68-.06L157,79.69l.17,1.87,12.52-10.39Zm-8.65,8.89-.33-.3-.06.72-.06-.72-.33.3.29-.33-.71-.07.71-.06-.29-.33.33.29.06-.71.06.71.33-.29-.29.33.72.06-.72.07Z" transform="translate(-10 -10)"/>
    <polygon points="145.02 73.34 144.02 72.21 142.09 73.84 144.71 73.61 145.02 73.34"/>
    <polygon points="147.79 75.17 147.88 75.28 148.06 75.15 147.79 75.17"/>
    <polygon points="147.35 75.69 147.31 75.65 147.3 75.73 147.35 75.69"/>
    <polygon points="149.57 75.01 148.43 75.11 148.01 75.42 148.39 75.86 149.57 75.01"/>
    <polygon points="144.37 71.91 145.52 72.93 145.72 72.76 145.91 70.61 144.37 71.91"/>
    <polygon points="99.77 106.91 99.01 107.55 99.21 107.78 100.31 106.86 99.77 106.91"/>
    <polygon points="155.07 70.21 154.86 70.36 155.04 70.52 155.07 70.21"/>
    <polygon points="156.41 68.81 155.59 68.73 149.14 73.68 149.91 73.75 156.41 68.81"/>
    <polygon points="155 70.56 154.84 70.38 154.54 70.6 155 70.56"/>
    <polygon points="98.68 107.18 98.98 107.51 99.66 106.92 98.89 106.99 98.68 107.18"/>
    <polygon points="104.72 101.76 100.33 105.67 99.16 106.74 99.81 106.79 105.53 101.83 104.72 101.76"/>
    <polygon points="156.97 68.81 156.96 68.81 157.44 69.35 158.37 68.68 156.97 68.81"/>
    <polygon points="165.16 62.76 163.95 63.65 163.85 64.73 165.81 63.33 165.16 62.76"/>
    <polygon points="167.56 62.06 167.05 62.02 167.7 61.96 167.75 61.93 167.47 61.63 167.79 61.9 167.81 61.89 167.87 61.2 167.92 61.8 169.03 61 167.32 61.16 165.5 62.5 166.07 63.14 167.56 62.06"/>
    <polygon points="166.38 61.24 165.23 61.34 164.78 61.69 165.19 62.14 166.38 61.24"/>
    <polygon points="156.22 68.25 155.88 68.52 156.42 68.47 156.22 68.25"/>
    <polygon points="155.21 70.68 155.35 70.85 155.64 70.65 155.21 70.68"/>
    <polygon points="155.14 71 155.33 70.87 155.17 70.72 155.14 71"/>
    <polygon points="156.86 68.91 156.78 69.83 157.39 69.38 156.86 68.91"/>
  </g>
</svg>
