<svg id="Layer_1" data-name="Layer 1" xmlns="http://www.w3.org/2000/svg" viewBox="0 0 200 200">
  <path d="M110,10A100,100,0,1,0,210,110,100,100,0,0,0,110,10Zm79.66,76.35.4,5.69,2-1.8-1.81,2,5.69.39-5.69.39,1.81,2-2-1.81-.4,5.69-.39-5.69-2,1.81,1.81-2-5.69-.39,5.53-.39-1.65-2,2,1.8ZM185.8,70.94l1.08,1.21-1.21-1.07-.24,3.37-.23-3.37L184,72.15l1.07-1.21-3.37-.23,3.28-.23-1-1.21,1.21,1.07.23-3.37.24,3.37,1.21-1.07-1.08,1.21,3.38.23Zm-10.51-20,2.86,2.53.55-8,.55,8,2.86-2.53-2.53,2.86,8,.55-8,.55,2.53,2.85-2.86-2.53-.55,8-.55-8-2.86,2.53,2.53-2.85-7.95-.55,7.73-.55Zm-6.87,8.91,1.21,1.08.24-3.38.23,3.38,1.21-1.08L170.24,61l3.37.24-3.37.23,1.07,1.21-1.21-1.07L169.87,65l-.24-3.37-1.21,1.07,1.07-1.21-3.37-.23L169.4,61Zm-8.14-23.53,1.23,1.09.24-3.43.23,3.43,1.23-1.09-1.09,1.23,3.43.24-3.43.24,1.09,1.23L162,38.12l-.23,3.43-.24-3.43-1.23,1.09L161.37,38l-3.43-.24,3.33-.24ZM148.12,25.7l1.23,1.09.24-3.43.24,3.43,1.23-1.09L150,26.93l3.43.23L150,27.4l1.09,1.23-1.23-1.09L149.59,31l-.24-3.43-1.23,1.09,1.09-1.23-3.43-.24,3.34-.23Zm.59,16.58L146.87,40l2.28,2,.44-6.35L150,42l2.28-2-2,2.29,6.36.44-6.36.43,2,2.29-2.28-2-.44,6.35-.44-6.35-2.28,2,2-2.29-6.36-.43Zm4.34,28.52-.81-.71-.15,2.24-.16-2.24-.81.71.72-.81-2.25-.15,2.18-.16-.65-.8.81.71.16-2.25.15,2.25.81-.71-.72.8,2.25.16-2.25.15Zm-6,42a1,1,0,0,1-.79.09,1.07,1.07,0,0,1-.63-.52l-.31-.56a1.06,1.06,0,0,1,1.86-1l.3.56A1.06,1.06,0,0,1,147.05,112.8Zm-4-7.49a1.05,1.05,0,0,1,1.42.43l.31.56a1.06,1.06,0,0,1-.43,1.43,1.07,1.07,0,0,1-1.43-.43l-.3-.56A1.06,1.06,0,0,1,143,105.31Zm-2.74-5.07a1.06,1.06,0,0,1,1.43.43l.3.56a1,1,0,0,1-1.21,1.51,1,1,0,0,1-.64-.51l-.3-.56A1.05,1.05,0,0,1,140.28,100.24ZM116.54,21.9l2.54,2.25.49-7.09.49,7.09,2.55-2.25-2.26,2.54,7.09.49-7.09.49L122.61,28l-2.55-2.25-.49,7.09-.49-7.09L116.54,28l2.25-2.54-7.09-.49,6.89-.49ZM118.22,43,117,41.92l-.24,3.43-.24-3.43L115.28,43l1.09-1.23-3.43-.23,3.34-.24-1-1.23,1.23,1.09.24-3.43.24,3.43,1.23-1.09-1.09,1.23,3.43.24-3.43.23Zm-6.76-8.47-1-1.23,1.23,1.09.23-3.43.24,3.43,1.23-1.09-1.09,1.23,3.43.24-3.43.23,1.09,1.24-1.23-1.09-.24,3.43-.23-3.43-1.23,1.09L111.56,35l-3.43-.23Zm-3.73,38.87a1.05,1.05,0,0,1,1.26-.79l.63.14a1.05,1.05,0,1,1-.48,2l-.62-.14h0A1.05,1.05,0,0,1,107.73,73.41Zm-4.35-2.08.62.14a1.05,1.05,0,1,1-.47,2l-.62-.14-.06,0a1,1,0,0,1,.53-2Zm-15.22-37,1.23,1.09L89.63,32l.23,3.43,1.24-1.09L90,35.57l3.42.23L90,36l1.09,1.23-1.24-1.09-.23,3.43-.24-3.43-1.23,1.09L89.25,36l-3.43-.24,3.33-.23Zm-2.89,33.9a1.05,1.05,0,0,1,1.26-.79l.63.14a1.05,1.05,0,0,1-.47,2l-.63-.14,0,0A1,1,0,0,1,85.27,68.24ZM78.6,24.49l1.23,1.09.23-3.43.24,3.43,1.23-1.09-1.09,1.23,3.43.24-3.43.23,1.09,1.24L80.3,26.34l-.24,3.42-.23-3.42L78.6,27.43l1.09-1.24L76.26,26l3.33-.24Zm-4.27,8.17,1.77,1.57.34-4.95.35,4.95,1.77-1.57L77,34.44l5,.34-5,.34,1.57,1.78-1.77-1.58-.35,5-.34-5L74.33,36.9l1.57-1.78-5-.34,4.81-.34Zm8,34.9a1,1,0,0,1-1.26.79l-.62-.14-.06,0a1.05,1.05,0,0,1,.53-2l.62.15A1,1,0,0,1,82.33,67.56Zm-6.72,44.69-1.12-1-.21,3.11-.22-3.11-1.11,1,1-1.12-3.1-.21,3-.22-.9-1.11,1.11,1,.22-3.11.21,3.11,1.12-1-1,1.11,3.11.22-3.11.21ZM74,65.65a1.06,1.06,0,0,1,1.27-.79l.62.15a1.05,1.05,0,1,1-.47,2l-.63-.15h0A1.06,1.06,0,0,1,74,65.65Zm-5.61-1.29a1,1,0,0,1,1.26-.79l.62.14a1.05,1.05,0,0,1-.47,2.05l-.62-.14h0A1.05,1.05,0,0,1,68.43,64.36ZM51.94,53.11l5.64-6.22,1.5,8.27,7.66,3.44-7.39,4-.92,8.35-6.07-5.81-8.22,1.71,3.64-7.56L43.61,52ZM65.49,63.68a1,1,0,0,1-1.26.79l-.63-.14-.05,0a1,1,0,0,1,.53-2l.62.14A1,1,0,0,1,65.49,63.68ZM59,98.58l-.8-.72L58,100.11l-.15-2.25-.81.72.71-.81-2.24-.16,2.18-.15L57,96.65l.81.72L58,95.12l.16,2.25.8-.72-.71.81,2.25.15-2.25.16Zm3,43.41-3.11.22,1,1.12-1.12-1-.22,3.11-.21-3.11-1.12,1,1-1.12L55,142l3-.21-.9-1.12,1.12,1,.21-3.11.22,3.11,1.12-1-1,1.12Zm-9.56-19.88-1.62-1.42-.31,4.49-.31-4.49-1.61,1.42,1.43-1.61-4.49-.31,4.36-.31-1.3-1.61,1.61,1.43.31-4.49.31,4.49,1.62-1.43-1.43,1.61,4.49.31-4.49.31Zm1-16.67.81.71.16-2.24.15,2.24.81-.71-.72.81,2.25.15-2.25.16.72.8-.81-.71-.15,2.25-.16-2.25-.81.71.72-.8-2.25-.16,2.18-.15ZM38.57,90l.8.71.16-2.25.15,2.25.81-.71-.71.8,2.24.16-2.24.15.71.81-.81-.71-.15,2.24-.16-2.24-.8.71.71-.81L37,90.91l2.19-.16Zm-14,20.42L24,117.71l-.5-7.34-2.64,2.34,2.34-2.64-7.34-.51,7.13-.5-2.13-2.64,2.64,2.33.5-7.34.51,7.34,2.64-2.33-2.34,2.64,7.34.5-7.34.51,2.34,2.64Zm14,39.11-2.3-2-.45,6.42-.44-6.42-2.31,2,2-2.31-6.42-.44,6.24-.45L33.06,144l2.31,2,.44-6.43.45,6.43,2.3-2-2,2.3,6.43.45-6.43.44Zm18.69,27.38-3.34-3-.64,9.29-.64-9.29-3.34,3,3-3.33L43,172.88l9-.64-2.69-3.33,3.34,3,.64-9.3.64,9.3,3.34-3-3,3.33,9.3.64-9.3.65ZM64.13,135,63,134l-.22,3.11L62.59,134l-1.12,1,1-1.12-3.11-.21,3-.22-.9-1.11,1.12,1,.21-3.11.22,3.11,1.11-1-1,1.11,3.11.22-3.11.21Zm.61-30.17,3-.21-.9-1.12,1.12,1,.21-3.11.22,3.11,1.11-1-1,1.12,3.11.21-3.11.22,1,1.11-1.11-1-.22,3.11L68,105.18l-1.12,1,1-1.11Zm9.71,57.3-1.61-1.42-.31,4.49-.31-4.49-1.61,1.42L72,160.52l-4.49-.31,4.37-.31-1.3-1.61,1.61,1.43.31-4.49.31,4.49,1.61-1.43L73,159.9l4.49.31-4.49.31Zm1.34-24-.5,7.34-.51-7.34-2.64,2.33,2.34-2.64-7.34-.5,7.13-.51-2.13-2.63,2.64,2.33.51-7.34.5,7.34,2.64-2.33-2.34,2.63,7.35.51-7.35.5,2.34,2.64Zm11.37,58.82-1.61-1.43L85.24,200l-.31-4.49-1.61,1.43,1.43-1.61L80.26,195l4.36-.31-1.3-1.62,1.61,1.43.31-4.49.31,4.49,1.61-1.43-1.42,1.62,4.49.31-4.49.31Zm4.9-102.09-.81-.71-.15,2.25-.16-2.25-.81.71.72-.8-2.25-.16,2.18-.15-.65-.81.81.71.16-2.24.15,2.24.81-.71-.72.81,2.25.15L91.34,94ZM90.89,69.53a1,1,0,0,1,1.26-.79l.62.14a1,1,0,0,1,.79,1.27,1.05,1.05,0,0,1-1.26.79l-.62-.15h-.06A1.05,1.05,0,0,1,90.89,69.53Zm2.69-21.7,1.84-2.08-5.79-.4,5.62-.4-1.67-2.07,2.07,1.84.4-5.79.4,5.79,2.08-1.84L96.69,45l5.79.4-5.79.4,1.84,2.08L96.45,46l-.4,5.79L95.65,46Zm5.6,23.61a1.06,1.06,0,0,1-1.27.79l-.62-.14-.05,0a1.05,1.05,0,0,1,.52-2l.63.15A1,1,0,0,1,99.18,71.44Zm1,53.48-1.3-1.61,1.61,1.43.31-4.49.31,4.49,1.61-1.43-1.42,1.61,4.49.31-4.49.31,1.42,1.61-1.61-1.42-.31,4.48-.31-4.48-1.61,1.42,1.43-1.61-4.49-.31Zm2.78,48.7-.36-5.25L100.73,170l1.67-1.89-5.25-.36,5.1-.36-1.52-1.89,1.88,1.67L103,162l.37,5.25,1.88-1.67-1.67,1.89,5.25.36-5.25.36,1.67,1.89-1.88-1.67Zm7.75,7.45-1.61-1.42-.31,4.49-.31-4.49-1.61,1.42,1.43-1.61-4.49-.31,4.36-.31-1.3-1.61,1.61,1.43.31-4.49.31,4.49,1.61-1.43-1.42,1.61,4.49.31-4.49.31Zm8.52-23.35-.15-2.24-.81.71.72-.81-2.25-.15,2.18-.16-.65-.8.81.71.15-2.25.16,2.25.81-.71-.72.8,2.25.16-2.25.15.72.81-.81-.71Zm5.59,40.63-1.12-1-.22,3.12-.21-3.12-1.12,1,1-1.11L120,197l3-.21-.9-1.12,1.12,1,.21-3.12.22,3.12,1.12-1-1,1.12L127,197l-3.11.22Zm1.93-109.26-7.22-6.9-9.76,2,4.32-9-4.95-8.67L119,67.91l6.71-7.38,1.78,9.81,9.1,4.1-8.79,4.73Zm3.89-6.72a1,1,0,0,1-.79.09,1.07,1.07,0,0,1-.63-.52l-.31-.56a1.06,1.06,0,1,1,1.86-1l.3.56A1,1,0,0,1,130.65,82.37Zm2.74,5.07a1,1,0,0,1-.79.09A1.08,1.08,0,0,1,132,87l-.3-.57a1,1,0,0,1,.42-1.42,1.05,1.05,0,0,1,1.43.42l.3.57A1,1,0,0,1,133.39,87.44Zm2.73,5.07a1,1,0,0,1-.79.09,1.08,1.08,0,0,1-.64-.51l-.3-.57a1.05,1.05,0,0,1,1.85-1l.31.57A1.05,1.05,0,0,1,136.12,92.51Zm2.73,5.08a1.09,1.09,0,0,1-.79.08,1,1,0,0,1-.63-.51l-.31-.56a1.06,1.06,0,0,1,.43-1.43,1,1,0,0,1,1.43.43l.3.56A1,1,0,0,1,138.85,97.59Zm.77,16.26L148,115l5.64-6.22L155.1,117l7.65,3.45-7.39,4-.92,8.35-6.07-5.8-8.22,1.71,3.64-7.57Zm16.63,25.78a1.06,1.06,0,0,1,1.23.84l.12.63a1,1,0,0,1-.83,1.23,1.15,1.15,0,0,1-.49,0,1,1,0,0,1-.74-.82l-.12-.62A1.05,1.05,0,0,1,156.25,139.63Zm-1.05-3a1,1,0,0,1-.74-.82l-.12-.63a1,1,0,0,1,.84-1.23,1.06,1.06,0,0,1,1.23.84l.12.63a1.06,1.06,0,0,1-.84,1.23A1.15,1.15,0,0,1,155.2,136.65Zm2.13,8.64a1.05,1.05,0,0,1,1.23.84l.05.24a1.06,1.06,0,0,1-.84,1.23,1.15,1.15,0,0,1-.49,0,1,1,0,0,1-.74-.82l0-.24A1.05,1.05,0,0,1,157.33,145.29Zm.07,18.07-.18.62a1.05,1.05,0,0,1-2-.58l.17-.62a1.06,1.06,0,0,1,2,.58Zm-.62-5.5.18-.61a1,1,0,1,1,2,.57l-.18.62a1.05,1.05,0,0,1-2-.58Zm-1,11-.18.62a1.05,1.05,0,1,1-2-.58l.18-.62a1.05,1.05,0,0,1,2,.58ZM155.26,183l-.65,6-4.36-4.16-5.89,1.23,2.61-5.43-3-5.23,6,.81,4.05-4.46,1.08,5.92,5.49,2.48Zm7.12-29.33-.47,4.27-3.11-3-4.21.88,1.86-3.88-2.13-3.74,4.26.58,2.9-3.18.77,4.23,3.92,1.77Zm4-51.5-.24,3.37-.23-3.37-1.21,1.07,1.07-1.21-3.37-.23,3.28-.23-1-1.21,1.21,1.07.23-3.37.24,3.37,1.21-1.07-1.08,1.21,3.38.23-3.38.23,1.08,1.21Zm7.48,7.89-1-.87-.19,2.74-.19-2.74-1,.87.87-1-2.74-.19,2.66-.19-.79-1,1,.87.19-2.74.19,2.74,1-.87-.87,1,2.74.19-2.74.19Zm2.45-22.24L176,83l-1.75,1.55,1.55-1.75-4.87-.33,4.73-.34-1.41-1.75L176,81.91l.34-4.87.33,4.87,1.75-1.55-1.55,1.75,4.87.34-4.87.33,1.55,1.75L176.62,83Zm4.93,78.06-1-.87-.19,2.74-.19-2.74-1,.87.87-1-2.74-.19,2.66-.19-.79-1,1,.87.19-2.74.19,2.74,1-.87-.87,1,2.74.19-2.74.19Zm6.32-21-1.75-1.54-.34,4.86-.33-4.86-1.75,1.54,1.55-1.74-4.87-.34,4.73-.33-1.41-1.75,1.75,1.55.33-4.87.34,4.87,1.75-1.55L186,142.48l4.87.33-4.87.34Zm6.86-14.31-1.21-1.07-.23,3.37-.23-3.37-1.21,1.07,1.07-1.21-3.37-.23,3.27-.24-1-1.21,1.21,1.08.23-3.38.23,3.38,1.21-1.08-1.07,1.21,3.37.24-3.37.23Zm5.18-9.81-.33,4.87-.34-4.87-1.75,1.55,1.55-1.75-4.86-.34,4.73-.33-1.42-1.75,1.75,1.55.34-4.87.33,4.87,1.75-1.55-1.55,1.75,4.87.33-4.87.34,1.55,1.75Z" transform="translate(-10 -10)"/>
</svg>
